<?xml version="1.0" standalone="no"?>
<!DOCTYPE svg PUBLIC "-//W3C//DTD SVG 1.1//EN" "http://www.w3.org/Graphics/SVG/1.1/DTD/svg11.dtd" >
<svg xmlns="http://www.w3.org/2000/svg" xmlns:xlink="http://www.w3.org/1999/xlink" version="1.1">
<metadata>
Created by FontForge 20161013 at Tue Feb  3 07:05:39 2015
 By ,,,
Copyright (c) 2010-2015, Sorkin Type Co (www.sorkintype.com) with Reserved Font Name 'Merriweather'
</metadata>
<defs>
<font id="MerriweatherUltraBold" horiz-adv-x="870" >
  <font-face 
    font-family="Merriweather UltraBold"
    font-weight="900"
    font-stretch="normal"
    units-per-em="2048"
    panose-1="2 6 5 3 5 4 6 3 7 4"
    ascent="1638"
    descent="-410"
    x-height="1137"
    cap-height="1522"
    bbox="-251 -560 3149 2014"
    underline-thickness="96"
    underline-position="-266"
    unicode-range="U+000D-FB02"
  />
<missing-glyph horiz-adv-x="1770" 
d="M177 1416h1416v-1416h-1416v1416zM559 252l324 353l337 -353l113 113l-348 343l348 334l-119 116l-328 -351l-333 352l-114 -116l344 -338l-343 -318z" />
    <glyph glyph-name=".notdef" horiz-adv-x="1770" 
d="M177 1416h1416v-1416h-1416v1416zM559 252l324 353l337 -353l113 113l-348 343l348 334l-119 116l-328 -351l-333 352l-114 -116l344 -338l-343 -318z" />
    <glyph glyph-name=".null" horiz-adv-x="0" 
 />
    <glyph glyph-name=".null" horiz-adv-x="0" 
 />
    <glyph glyph-name="nonmarkingreturn" unicode="&#xd;" horiz-adv-x="0" 
 />
    <glyph glyph-name="space" unicode=" " horiz-adv-x="503" 
 />
    <glyph glyph-name="exclam" unicode="!" horiz-adv-x="715" 
d="M126 1806h453l-93 -1257h-256zM151 175q0 45 18 82.5t49 64.5t73 41.5t90 14.5q47 0 85 -16t64.5 -42.5t41 -61t14.5 -70.5q0 -49 -17.5 -86.5t-49 -63t-75.5 -39t-97 -13.5q-37 0 -72.5 14t-63 39t-44 59.5t-16.5 76.5z" />
    <glyph glyph-name="quotedbl" unicode="&#x22;" horiz-adv-x="1353" 
d="M211 833zM799 1737h343l-56 -904h-232zM211 1737h343l-56 -904h-232z" />
    <glyph glyph-name="numbersign" unicode="#" horiz-adv-x="1523" 
d="M337 347h-203l-3 194h231l36 308h-233l1 194h262l36 330h291l-36 -330h252l36 330h293l-38 -330h223l-1 -194h-252l-32 -308h240l2 -194h-267l-40 -347h-291l38 347h-254l-40 -347h-293zM902 541l39 308h-253l-34 -308h248z" />
    <glyph glyph-name="dollar" unicode="$" horiz-adv-x="1370" 
d="M169 446h226l57 -246q10 -12 25 -23.5t37.5 -21t54 -15t73.5 -5.5q62 0 102.5 15t64.5 41t33.5 60.5t9.5 74.5q0 48 -23.5 87.5t-67 76t-105.5 72t-140 73.5q-66 33 -130.5 75t-116 99.5t-83 134.5t-31.5 179q0 71 26.5 139t81.5 124.5t138.5 96t197.5 53.5v226h198v-223
q59 -5 116.5 -15t107 -20.5t87 -20.5t56.5 -14l-13 -347h-222l-44 220q-17 20 -57 35t-88 15q-51 0 -88 -15.5t-61 -40.5t-35.5 -56.5t-11.5 -63.5q0 -57 31.5 -103t81.5 -84t112.5 -71.5t125.5 -65.5q65 -34 130 -75.5t117 -95t84.5 -120.5t32.5 -153q0 -71 -21.5 -146
t-74.5 -140t-142 -113t-224 -64l-2 -243h-197l2 237q-81 4 -152.5 17t-129.5 27t-101 26.5t-65 16.5z" />
    <glyph glyph-name="percent" unicode="%" horiz-adv-x="2252" 
d="M489 630q-102 0 -178.5 35.5t-127.5 96.5t-76.5 142.5t-25.5 172.5q0 111 34 198t93.5 146t141 90t177.5 31q115 0 193.5 -35.5t126.5 -96.5t68.5 -143.5t20.5 -176.5q0 -111 -34.5 -197t-95 -144.5t-142 -88.5t-175.5 -30zM1329 1538h237l-656 -1538h-237zM509 775
q39 0 62.5 23t35.5 64.5t15.5 97.5t3.5 122q0 55 -3.5 111t-15 101t-34 73t-59.5 28q-38 0 -62 -23t-37 -63.5t-17.5 -96t-4.5 -121.5q0 -49 4 -104.5t16.5 -102.5t35 -78t60.5 -31zM1313 458q0 111 34 198t93.5 146t141 90t177.5 31q115 0 193.5 -35.5t126.5 -96.5
t68.5 -143.5t20.5 -176.5q0 -111 -34.5 -197t-95 -144.5t-142 -88.5t-175.5 -30q-103 0 -179.5 36t-127.5 97t-76 142.5t-25 171.5zM1624 473q0 -33 1.5 -69t6.5 -71.5t13 -67t21 -56t31 -38.5t43 -14q39 0 62.5 23t36 64t16 97t3.5 122q0 55 -4 111t-15.5 101t-33.5 73.5
t-59 28.5q-39 0 -62.5 -23t-37 -63.5t-18 -96.5t-4.5 -121z" />
    <glyph glyph-name="ampersand" unicode="&#x26;" horiz-adv-x="1574" 
d="M57 374q0 70 28.5 128t73 103t99 77t106.5 51q-31 40 -60 85t-51.5 95.5t-36.5 106t-14 118.5q0 87 38.5 161.5t105.5 128.5t158.5 84.5t196.5 30.5q112 0 193 -26t133.5 -69t77 -98t24.5 -113q0 -77 -19.5 -137.5t-61.5 -110t-108 -91.5t-159 -84q37 -45 84 -100
t96 -109.5t96 -104t83 -82.5l25 -24q26 66 32.5 130t4.5 132l-147 32v166h507v-166l-132 -32q0 -63 -12 -118t-32 -102.5t-45.5 -86.5t-51.5 -69q55 -44 114.5 -73.5t133.5 -34.5v-148q-14 -11 -45 -18.5t-66.5 -12t-67.5 -7t-47 -2.5q-45 0 -82.5 3.5t-70.5 11.5t-64 21.5
t-64 33.5q-60 -37 -147.5 -58t-219.5 -21q-142 0 -254.5 24.5t-190.5 74t-119.5 124.5t-41.5 176zM698 918q36 36 58.5 77t35 83.5t17 84.5t4.5 81q0 23 -4 53.5t-16 58.5t-34.5 47t-58.5 19q-62 0 -97.5 -48t-35.5 -158q0 -46 13.5 -89.5t33 -81.5t42.5 -70.5t42 -56.5z
M393 434q0 -69 22.5 -124.5t64 -94t101 -59t133.5 -20.5q59 0 97.5 7t67.5 20q-54 43 -109.5 97.5t-109.5 113t-104.5 119t-95.5 116.5q-29 -32 -48 -73.5t-19 -101.5z" />
    <glyph glyph-name="quotesingle" unicode="'" horiz-adv-x="765" 
d="M211 1737h343l-56 -904h-232z" />
    <glyph glyph-name="parenleft" unicode="(" horiz-adv-x="936" 
d="M91 685q0 164 35 300t89.5 245.5t121 193.5t130 144t116.5 96.5t80 52.5l131 -108q-23 -14 -57 -46t-72 -84.5t-76 -125.5t-69.5 -168.5t-52.5 -214t-25 -261.5q-4 -153 12.5 -282t46 -234.5t68 -188.5t78.5 -144t77.5 -100t64.5 -57l-126 -100q-23 14 -74 46t-114.5 88
t-131.5 139t-124 198.5t-92 266.5t-36 344z" />
    <glyph glyph-name="parenright" unicode=")" horiz-adv-x="936" 
d="M142 0zM845.006 635.042q0 -163.99 -34.998 -299.981q-34.998 -135.992 -89.4951 -245.485q-54.4961 -109.493 -120.992 -193.488t-129.992 -143.991t-116.493 -96.4941q-52.9961 -36.498 -79.9951 -52.4971l-130.991 107.994q22.998 13.999 56.9961 45.9971
t71.9961 84.4941q37.9971 52.4971 75.9951 125.493q37.9971 72.9951 69.4951 168.489t52.4971 213.987q20.999 118.492 24.999 261.483q3.99902 152.991 -12.5 281.983t-45.9971 234.485t-67.9951 188.488q-38.498 82.9951 -78.4961 143.991
q-39.9971 60.9961 -77.4951 99.9941q-37.4971 38.998 -64.4961 56.9961l125.992 99.9941q22.999 -13.999 73.9961 -45.9971t114.493 -87.9941q63.4961 -55.9971 131.491 -138.992q67.9961 -82.9951 123.993 -198.487q55.9961 -115.493 91.9941 -266.484
q35.998 -150.99 35.998 -343.979z" />
    <glyph glyph-name="asterisk" unicode="*" horiz-adv-x="1395" 
d="M118 1017l146 76l323 94l-323 91l-150 69l146 251l139 -96l244 -228l-91 312l-17 178h304l-14 -173l-75 -311l238 227l138 99l151 -248l-140 -78l-332 -92l332 -85l146 -69l-154 -258l-127 94l-252 226l91 -311l18 -174h-304l13 174l75 314l-239 -230l-136 -102z" />
    <glyph glyph-name="plus" unicode="+" horiz-adv-x="1353" 
d="M200 727h169l193 -12l-7 149v228h243v-228l-9 -149l164 12h200v-231h-200l-164 7l9 -146v-240h-243v240l7 146l-193 -7h-169v231z" />
    <glyph glyph-name="comma" unicode="," horiz-adv-x="685" 
d="M132 186q0 45 15 81.5t41 62t62.5 39t80.5 13.5h16q47 0 87 -21.5t68.5 -61.5t44.5 -97.5t16 -129.5q0 -70 -14 -135.5t-37 -124t-53.5 -109t-63.5 -90t-66 -67.5t-62 -41h-3l-113 80v38q66 48 104 121t38 159q0 27 -12 47.5t-30 38t-38.5 35t-38.5 40t-30 51.5t-12 71z
" />
    <glyph glyph-name="hyphen" unicode="-" horiz-adv-x="1298" 
d="M230 741h838v-250h-838v250z" />
    <glyph glyph-name="period" unicode="." horiz-adv-x="680" 
d="M121 176q0 46 18 83.5t49 64.5t73.5 41.5t90.5 14.5t86 -16t64.5 -42.5t41 -61t14.5 -71.5q0 -49 -17.5 -87t-49 -63.5t-75.5 -39t-98 -13.5q-38 0 -73 14t-63 39.5t-44.5 60t-16.5 76.5z" />
    <glyph glyph-name="slash" unicode="/" horiz-adv-x="882" 
d="M565 1599h255l-503 -1962h-255z" />
    <glyph glyph-name="zero" unicode="0" horiz-adv-x="1386" 
d="M100 611q0 183 51.5 311.5t138 210t200.5 119t239 37.5t228 -37.5t176 -115t113 -196.5t40 -283q0 -183 -51 -312t-137.5 -211t-200.5 -119.5t-239 -37.5t-227.5 37.5t-176 115.5t-114 197.5t-40.5 283.5zM699 126q40 0 71.5 28t53.5 88t33 154t11 226q0 154 -10 254.5
t-31 159t-54.5 82t-79.5 23.5q-41 0 -73 -28.5t-55 -88.5t-35 -154t-12 -225q0 -153 11 -253t33.5 -159.5t56.5 -83t80 -23.5z" />
    <glyph glyph-name="one" unicode="1" horiz-adv-x="991" 
d="M114 150l224 25v753q-16 -4 -49 -10t-70 -11.5t-71 -10t-53 -5.5l-26 184q62 12 129.5 35.5t130.5 53t117.5 62.5t90.5 64h1l217 -26v-1088l204 -26v-150h-845v150z" />
    <glyph glyph-name="two" unicode="2" horiz-adv-x="1257" 
d="M53 146q125 78 232.5 160.5t186.5 169t124 178t45 189.5q0 83 -54 131.5t-148 48.5q-53 0 -94.5 -12t-74.5 -29.5t-58.5 -37.5t-47.5 -36l-95 140q26 36 79 78t123.5 78t153 60.5t168.5 24.5q124 0 214.5 -30.5t149.5 -81.5t87 -118t28 -141q0 -100 -52.5 -195
t-142 -183.5t-208 -170t-250.5 -154.5l529 51l87 158l160 -32l-58 -392h-1027z" />
    <glyph glyph-name="three" unicode="3" horiz-adv-x="1177" 
d="M70 -85q46 -16 95.5 -24.5t120.5 -8.5q91 0 162 23.5t120.5 64.5t75.5 96.5t26 120.5q0 125 -67 185.5t-189 68.5l-114 -27l-53 150q46 5 88.5 20t79.5 32q57 27 96 59t63 66.5t34.5 70.5t10.5 72q0 43 -16 73.5t-42 49.5t-59.5 28t-68.5 9q-51 0 -93.5 -9t-77 -23.5
t-61.5 -31t-46 -31.5l-93 167q26 25 77.5 55t119 56.5t146.5 44t160 17.5q100 0 186 -20t149.5 -61.5t99.5 -106t36 -152.5q0 -83 -34 -149t-90.5 -118.5t-129.5 -91.5t-152 -66q100 9 188.5 -8t154.5 -59.5t105 -110t39 -159.5q0 -106 -49.5 -199.5t-144 -163.5
t-231 -110.5t-311.5 -40.5q-41 0 -86 4t-87 10t-78.5 14t-59.5 17v197v0z" />
    <glyph glyph-name="four" unicode="4" horiz-adv-x="1402" 
d="M38 129q25 46 57.5 115t69.5 152t77 176.5t79.5 189t78 189t72 177t61 153t45.5 116.5h74l324 -163q-2 -4 -23 -44t-55 -103.5t-76.5 -143.5t-86.5 -163t-86 -162.5t-75 -141.5t-53.5 -100l-20.5 -38l-98 -144l397 29l39 361l291 20v-357l224 16v-263h-224v-328h-333v328
h-670z" />
    <glyph glyph-name="five" unicode="5" horiz-adv-x="1305" 
d="M173 -141q29 -2 58.5 -3t57.5 -1q102 0 189.5 33t152 88t101.5 127.5t37 150.5q0 67 -18.5 111t-52 70t-81.5 36.5t-107 10.5q-36 0 -74 -5t-74 -12.5t-67.5 -17t-53.5 -18.5l-85 59l96 779h705l20 39h160l-52 -318h-586l-74 -354q21 9 51.5 23.5t72 28t92.5 23t113 9.5
q117 0 201 -28.5t139 -80.5t81 -124t26 -159q0 -154 -68.5 -275.5t-188 -206t-281.5 -129t-348 -44.5q-34 0 -71 3t-72 11l1 174v0z" />
    <glyph glyph-name="six" unicode="6" horiz-adv-x="1397" 
d="M119 637q0 143 39 268.5t105.5 231.5t154.5 190.5t186.5 145t202 95.5t199.5 42l77 -140q-100 -27 -180 -77.5t-142.5 -118.5t-106.5 -150.5t-72 -175.5q44 32 111.5 56t166.5 24q93 0 173 -31.5t138 -91.5t91 -147.5t33 -198.5q0 -114 -38 -220t-112.5 -187t-185 -129.5
t-255.5 -48.5q-140 0 -249 50t-183.5 138.5t-113.5 210t-39 264.5zM713 126q43 0 75.5 26t55 73.5t34 114.5t11.5 149q0 94 -13 159.5t-37 106.5t-57.5 60t-75.5 19q-48 0 -91 -17.5t-70 -40.5q-5 -41 -8 -82t-3 -83q-2 -249 43.5 -367t135.5 -118z" />
    <glyph glyph-name="seven" unicode="7" horiz-adv-x="1234" 
d="M265 -280q58 110 116 230t114 241.5t108.5 241.5t100 231t89 208.5t74.5 175.5l-451 -10l-136 -339l-225 45l59 523h1040l68 -88l-540 -1570l-417 111v0z" />
    <glyph glyph-name="eight" unicode="8" horiz-adv-x="1339" 
d="M78 370q0 57 19 109.5t56.5 98.5t93 84.5t127.5 67.5q-48 33 -89.5 72.5t-72.5 88.5t-49 108.5t-18 132.5q0 98 41 174.5t112.5 129.5t169.5 80.5t212 27.5q124 0 216.5 -27t154 -73.5t92.5 -109.5t31 -135q0 -108 -65 -193.5t-197 -139.5q67 -38 130.5 -82.5
t112.5 -100.5t78.5 -126t29.5 -158q0 -98 -43 -176.5t-122.5 -133.5t-192.5 -84.5t-254 -29.5q-112 0 -215.5 21.5t-183 69t-127 122.5t-47.5 182zM782 936q51 45 79 103t28 116q0 118 -51 179.5t-155 61.5q-35 0 -68 -10.5t-59 -32t-42 -54t-16 -76.5q0 -48 23 -87t62 -73
t90.5 -65t108.5 -62zM392 426q0 -63 16.5 -116.5t49.5 -93t82 -62t113 -22.5q40 0 78 13t67.5 38.5t47.5 62.5t18 85q0 58 -32.5 102.5t-85 82t-119.5 71.5t-136 72q-46 -42 -72.5 -101t-26.5 -132z" />
    <glyph glyph-name="nine" unicode="9" horiz-adv-x="1358" 
d="M311 -216q100 28 178.5 78.5t138.5 119t101.5 153t67.5 180.5q-43 -32 -108 -56t-161 -24q-94 0 -176 34.5t-142.5 98t-95.5 154t-35 203.5t39 215.5t114.5 180t187 123t256.5 45.5q142 0 250 -48t181.5 -134t111 -205.5t37.5 -263.5t-36 -271.5t-98.5 -235.5t-147 -195
t-181 -149.5t-200.5 -98.5t-205 -43zM673 432q48 0 89 15.5t67 38.5q10 88 12 182q2 238 -46 353t-140 115q-42 0 -74 -26t-53.5 -72t-32 -109.5t-10.5 -137.5q0 -95 14 -163t38.5 -111.5t59 -64t76.5 -20.5z" />
    <glyph glyph-name="colon" unicode=":" horiz-adv-x="692" 
d="M127 0zM127 998q0 46 18 83.5t49 64.5t73.5 41.5t90.5 14.5t86 -16t64.5 -42.5t41 -61t14.5 -71.5q0 -49 -17.5 -87t-49 -63.5t-75.5 -39t-98 -13.5q-38 0 -73 14t-63 39.5t-44.5 60t-16.5 76.5zM127 176q0 46 18 83.5t49 64.5t73.5 41.5t90.5 14.5t86 -16t64.5 -42.5
t41 -61t14.5 -71.5q0 -49 -17.5 -87t-49 -63.5t-75.5 -39t-98 -13.5q-38 0 -73 14t-63 39.5t-44.5 60t-16.5 76.5z" />
    <glyph glyph-name="semicolon" unicode=";" horiz-adv-x="692" 
d="M128 0zM141 186q0 45 15 81.5t41 62t62.5 39t80.5 13.5h16q47 0 87 -21.5t68.5 -61.5t44.5 -97.5t16 -129.5q0 -70 -14 -135.5t-37 -124t-53.5 -109t-63.5 -90t-66 -67.5t-62 -41h-3l-113 80v38q66 48 104 121t38 159q0 27 -12 47.5t-30 38t-38.5 35t-38.5 40t-30 51.5
t-12 71zM128 998q0 46 18 83.5t49 64.5t73.5 41.5t90.5 14.5t86 -16t64.5 -42.5t41 -61t14.5 -71.5q0 -49 -17.5 -87t-49 -63.5t-75.5 -39t-98 -13.5q-38 0 -73 14t-63 39.5t-44.5 60t-16.5 76.5z" />
    <glyph glyph-name="less" unicode="&#x3c;" horiz-adv-x="1370" 
d="M168 683l968 495v-272l-609 -290l609 -296v-265l-968 494v134z" />
    <glyph glyph-name="equal" unicode="=" horiz-adv-x="1337" 
d="M198 1005h950v-229h-950v229zM198 455h950v-229h-950v229z" />
    <glyph glyph-name="greater" unicode="&#x3e;" horiz-adv-x="1370" 
d="M234 55zM1202.01 683l-967.94 495v-272l608.963 -290l-608.963 -296v-265l967.94 494v134z" />
    <glyph glyph-name="question" unicode="?" horiz-adv-x="1079" 
d="M337 519q-14 16 -32.5 48.5t-36.5 74t-31 88t-15 90.5q0 35 5.5 62t21 51t44 48t74 52t111 63.5t156.5 83.5q10 14 10 40q-2 80 -20 154t-59.5 130.5t-110 90.5t-169.5 34q-28 0 -48.5 -1.5t-36.5 -4.5t-28.5 -6.5t-24.5 -6.5l-54 208q23 13 113.5 28.5t244.5 15.5
q161 0 274.5 -41t185.5 -108t105 -152.5t33 -173.5q0 -86 -29 -146.5t-74.5 -104.5t-101.5 -74.5t-111 -57.5t-103 -53.5t-76 -61.5q-6 -8 -12.5 -26t-5.5 -44q0 -27 3 -62t6.5 -71t8 -69.5t8.5 -57.5zM313 167q-2 43 13 79t43 62.5t67.5 42.5t85.5 18q45 1 81.5 -12.5
t63.5 -37.5t42.5 -56t18.5 -67q3 -47 -12 -83t-43.5 -61.5t-69.5 -39.5t-92 -15q-36 -3 -70.5 8.5t-62 34t-45.5 55t-20 72.5z" />
    <glyph glyph-name="at" unicode="@" horiz-adv-x="2235" 
d="M144 330q0 172 43.5 330.5t121.5 296t186 250.5t236.5 193t273 124t296.5 44q181 0 327 -50t249.5 -145.5t159.5 -235t56 -318.5q0 -142 -36.5 -261t-95 -214.5t-131.5 -168t-146 -120.5t-139.5 -72.5t-110.5 -24.5q-27 0 -51.5 11t-43.5 33t-30.5 55.5t-12.5 77.5
q-2 42 7 113t29 182q-34 -93 -77.5 -183.5t-96.5 -161t-116.5 -114t-138.5 -43.5q-56 0 -111.5 30t-99.5 87t-72 138.5t-28 185.5q0 91 18 180t52 169t84 149t113.5 119t140.5 78.5t165 28.5q57 0 122 -13.5t125 -42.5q3 10 11 19.5t19 17t23 11.5t23 2q20 -5 44 -13.5
t49 -17.5t51 -17.5t50 -14.5q-9 -40 -21.5 -93.5t-26.5 -114.5t-27 -126.5t-24 -129.5t-18.5 -124t-8.5 -110q-4 -64 5.5 -103t20.5 -39q52 0 105 40.5t95.5 113.5t69 175t26.5 224q0 124 -27.5 220t-76 167t-114 119.5t-141.5 78.5t-158.5 43t-165.5 13
q-172 0 -320.5 -70.5t-258 -200t-172 -312t-62.5 -406.5q0 -126 24 -228.5t66 -183.5t101 -140.5t129 -98.5t148.5 -58t161.5 -19q61 0 121.5 6.5t114 18.5t97 28t72.5 35l56 -128q-44 -38 -102 -66t-125.5 -47t-141.5 -28.5t-150 -9.5q-189 0 -339.5 59.5t-255 170.5
t-160 270.5t-55.5 359.5zM891 461q0 -31 5.5 -73.5t17.5 -80.5t30.5 -65t44.5 -27q31 0 69.5 34.5t77 90t73.5 125.5t58 141q7 23 15.5 51.5t16.5 57.5t14.5 55.5t8.5 45.5q-11 13 -37.5 28.5t-56.5 29t-59.5 22t-46.5 8.5q-59 0 -102.5 -38t-72 -100t-42.5 -141.5
t-14 -163.5z" />
    <glyph glyph-name="A" unicode="A" horiz-adv-x="1465" 
d="M-45 152l115 24l437 1349h442l438 -1350l107 -23v-152h-697v152l133 23l-58 217h-436l-56 -222l152 -18v-152h-574zM827 565l-155 588l-22 126l-24 -126l-147 -588h348z" />
    <glyph glyph-name="B" unicode="B" horiz-adv-x="1501" 
d="M60 152l149 24v1154l-148 30v162h348q49 0 93 1.5t85 4t80 4t78 1.5q185 0 302.5 -24.5t184 -69.5t91 -109.5t24.5 -144.5q0 -83 -28 -148.5t-76 -112.5t-111.5 -75t-133.5 -36q102 -1 185.5 -23t143 -65.5t92 -109t32.5 -152.5q0 -102 -31.5 -189t-109.5 -150.5
t-209.5 -99.5t-330.5 -36q-63 0 -108.5 2t-84.5 4t-76 4t-84 2h-357v152zM619 871q22 -3 60.5 -4t73.5 -1q52 0 87 20.5t56.5 58t31 90t9.5 117.5q0 122 -49 177.5t-152 55.5q-3 0 -18.5 -0.5t-35 -2t-38 -3t-25.5 -3.5v-505zM618 161q9 -5 24.5 -8t34.5 -5.5t39.5 -3.5
t39.5 -1q65 0 110 21t73.5 60.5t41 95.5t12.5 126t-14.5 118t-43 77.5t-71 42t-99.5 12.5q-41 0 -83 -1.5t-64 -3.5v-530z" />
    <glyph glyph-name="C" unicode="C" horiz-adv-x="1364" 
d="M46 740q0 191 57.5 339.5t160.5 250.5t244 155t308 53q78 0 152.5 -7t140 -15.5t117.5 -15.5t84 -7l-27 -502h-259l-78 343q-7 7 -18 14.5t-28 13.5t-42 10t-59 4q-66 0 -119 -36t-90 -110.5t-57 -188.5t-20 -269q0 -143 18.5 -259.5t55 -199t91 -127.5t127.5 -45
q39 0 66.5 5t47 13t32 18.5t23.5 22.5l98 230l234 -20l-33 -354q-37 -4 -70 -11.5t-66 -16t-69 -18t-78.5 -17t-94.5 -12t-117 -4.5q-187 0 -324.5 54.5t-228 154t-135 240.5t-44.5 314z" />
    <glyph glyph-name="D" unicode="D" horiz-adv-x="1568" 
d="M60 152l149 24v1154l-145 30v162h346q50 0 94 1.5t86 4t85 4t92 1.5q187 0 328 -47t235.5 -137.5t141.5 -224t47 -307.5q0 -179 -52.5 -333t-152.5 -266.5t-245.5 -175t-332.5 -58.5q-42 1 -88.5 3.5t-90 5.5t-81.5 5t-62 2h-354v152zM618 171q22 -11 55 -16t70 -5
q76 0 135.5 34t101 107.5t63 189.5t21.5 281q0 130 -16.5 242t-56 194.5t-104 130t-160.5 47.5q-47 0 -73 -7.5t-36 -9.5v-1188z" />
    <glyph glyph-name="E" unicode="E" horiz-adv-x="1351" 
d="M60 152l149 23v1154l-155 31v162h1156l28 -384h-185l-77 210l-351 25v-510l205 5l39 166h154v-534h-154l-37 179l-207 5v-528l384 31l132 267l201 -55l-44 -399h-1238v152z" />
    <glyph glyph-name="F" unicode="F" horiz-adv-x="1283" 
d="M59 152l150 24v1154l-157 30v162h1178l24 -400h-210l-92 219l-327 32v-553l216 5l44 190h162v-579h-160l-46 195l-216 8v-463l309 -24v-152h-875v152z" />
    <glyph glyph-name="G" unicode="G" horiz-adv-x="1536" 
d="M48 752q0 192 53.5 340t156 248t252.5 151.5t343 51.5q82 0 166 -7.5t157.5 -18t130 -21.5t83.5 -17l-27 -417h-295l-63 284q-5 6 -16 14t-30 15t-46 11.5t-64 4.5q-161 0 -239.5 -158.5t-78.5 -460.5q0 -146 15 -264t48.5 -201t88.5 -127.5t136 -44.5q62 0 109 17t69 42
v414l-158 22v163h658v-163l-94 -16v-532q-41 -2 -104.5 -18.5t-144 -36t-175.5 -35t-199 -15.5q-180 0 -316.5 60t-229 164t-139.5 245.5t-47 305.5z" />
    <glyph glyph-name="H" unicode="H" horiz-adv-x="1729" 
d="M68 152l141 23v1156l-139 29v162h716v-162l-163 -29v-461h483v460l-150 30v162h710v-162l-146 -29v-1156l146 -23v-152h-709v152l149 24v498h-483v-499l163 -23v-152h-718v152z" />
    <glyph glyph-name="I" unicode="I" 
d="M74 152l153 24v1154l-156 30v162h734v-162l-162 -30v-1155l162 -25v-150h-731v152z" />
    <glyph glyph-name="J" unicode="J" horiz-adv-x="830" 
d="M195 -10q9 26 16.5 59t13.5 76t9 97.5t3 124.5v983l-164 30v162h727v-162l-151 -29v-768q0 -202 -7.5 -338.5t-25.5 -199.5q-25 -80 -71.5 -150.5t-117.5 -127.5t-167 -98t-220 -60l-89 134q32 12 67 34.5t68 55.5t61 77t48 100z" />
    <glyph glyph-name="K" unicode="K" horiz-adv-x="1586" 
d="M57 152l152 24v1154l-152 30v162h706v-162l-140 -31v-599l449 600l-164 30l-1 162h622v-161l-190 -30l-331 -378q46 -43 95.5 -113.5t98 -152.5t94 -166.5t85 -156.5t71 -123.5t50.5 -65.5l97 -23v-152h-473q-18 0 -42 35.5t-53 93.5t-61.5 130.5t-66.5 146.5t-69 142.5
t-69 118.5l-142 -170v-322l162 -24v-151h-728v152z" />
    <glyph glyph-name="L" unicode="L" horiz-adv-x="1318" 
d="M60 152l149 23v1155l-148 30v162h754v-162l-190 -30v-1151l314 22l140 435l225 -28l-53 -608h-1191v152z" />
    <glyph glyph-name="M" unicode="M" horiz-adv-x="2163" 
d="M-3 152l168 23l134 1155l-195 30v162h751l211 -822l35 -209l31 209l168 822h764v-162l-219 -30l175 -1154l161 -24v-152h-757v152l167 24l-88 864l-39 345l-57 -306l-224 -1026h-339l-289 990l-74 344l-20 -346l-56 -865l211 -24v-152h-619v152z" />
    <glyph glyph-name="N" unicode="N" horiz-adv-x="1655" 
d="M55 152l160 23v1156l-160 29v162h579l510 -810l116 -260v879l-173 29v162h544v-162l-151 -29v-1331h-369l-553 893l-123 270v-987l227 -24v-152h-607v152z" />
    <glyph glyph-name="O" unicode="O" horiz-adv-x="1506" 
d="M745 -23q-190 -1 -322.5 55.5t-216 160t-121 248t-37.5 320.5q0 178 49 323t141 247t224 157t299 55q190 -1 322.5 -54t216 -150.5t121 -236.5t37.5 -312q0 -179 -49 -328t-141.5 -256.5t-224.5 -167.5t-298 -61zM751 128q121 0 186 169t65 492q0 175 -17 291.5
t-49.5 185.5t-78.5 97.5t-103 28.5q-122 0 -186.5 -153.5t-64.5 -475.5q0 -176 17 -297t49.5 -196t78.5 -108.5t103 -33.5z" />
    <glyph glyph-name="P" unicode="P" horiz-adv-x="1389" 
d="M60 152l149 23v1155l-145 30v162h361q60 0 143 5.5t195 4.5q175 -1 291 -31.5t185 -89.5t97 -145t28 -198q0 -132 -38.5 -237t-116 -177.5t-195 -111t-274.5 -38.5q-38 0 -71 2t-45 4v-335l265 -23v-152h-829v152zM623 666q14 -5 38 -8t67 -3q48 0 87.5 19.5t68 66
t44.5 123.5t16 192q0 169 -57 248t-163 79q-25 0 -40.5 -1t-26.5 -3t-18.5 -4t-15.5 -4v-705z" />
    <glyph glyph-name="Q" unicode="Q" horiz-adv-x="1506" 
d="M745 -23q-190 -1 -322.5 55.5t-216 160t-121 248t-37.5 320.5q0 178 49 323t141 247t224 157t299 55q190 -1 322.5 -54t216 -150.5t121 -236.5t37.5 -312q0 -122 -23 -230.5t-67 -199.5t-108 -163.5t-146 -122.5q77 -18 159.5 -54t164.5 -72.5t161 -63.5t149 -27h2
q55 0 84 4t45 10l33 -100q-9 -13 -26.5 -37t-50 -48t-82 -41.5t-122.5 -17.5h-11q-75 0 -142.5 20.5t-130 53t-120.5 73.5t-113.5 81.5t-110.5 76.5t-110 60q-35 -7 -72 -11t-76 -4zM751 128q121 0 186 169t65 492q0 175 -17 291.5t-49.5 185.5t-78.5 97.5t-103 28.5
q-122 0 -186.5 -153.5t-64.5 -475.5q0 -176 17 -297t49.5 -196t78.5 -108.5t103 -33.5z" />
    <glyph glyph-name="R" unicode="R" horiz-adv-x="1526" 
d="M60 152l149 23v1155l-145 30v162h340q46 0 85.5 1.5t80.5 4t87 4t105 1.5q168 0 285 -22.5t189.5 -71.5t105.5 -126.5t33 -187.5q0 -59 -15.5 -123t-50 -122.5t-88.5 -105t-132 -71.5q66 -21 115 -66.5t86 -103t64 -119t50 -114t44 -89t45 -42.5l50 -17v-152h-443
q-19 0 -36.5 25.5t-35.5 67.5t-36 96l-37 111t-39 113.5t-43 103t-48 78.5t-54 41h-147v-462l173 -22v-152h-737v152zM624 789q6 -3 21 -4.5t33 -2t35 -0.5h27q94 0 146 79t52 251q0 73 -12.5 125t-38 85t-65.5 48t-95 15q-43 0 -67.5 -2.5t-35.5 -6.5v-587z" />
    <glyph glyph-name="S" unicode="S" horiz-adv-x="1262" 
d="M120 454h222l57 -257q16 -22 66 -41.5t136 -19.5q113 0 164.5 48.5t51.5 130.5q0 47 -22.5 85t-66 72t-106 67t-141.5 71q-57 27 -122.5 68t-121.5 101t-93.5 142t-37.5 191q0 81 30.5 158t97.5 138t174 98t260 37q96 0 171 -11t131 -24.5t94 -25t61 -12.5l-13 -375h-217
l-49 251q-10 15 -50.5 29.5t-103.5 14.5q-55 0 -92 -15t-59.5 -39t-32.5 -54.5t-10 -61.5q0 -56 31 -100t82.5 -81.5t117.5 -71.5t136 -69q37 -18 78.5 -41t82 -52t77.5 -64.5t65 -79.5t44.5 -96.5t16.5 -115.5q0 -49 -10 -103t-35 -106.5t-68.5 -100t-110.5 -83.5
t-160 -57.5t-218 -21.5q-97 0 -181.5 13t-152 29.5t-116 30.5t-74.5 16z" />
    <glyph glyph-name="T" unicode="T" horiz-adv-x="1517" 
d="M297 152l257 24v1174l-207 -11l-95 -471h-221l32 654h1386l27 -654h-208l-101 471l-197 11v-1174l283 -24v-152h-956v152z" />
    <glyph glyph-name="U" unicode="U" horiz-adv-x="1530" 
d="M143 1330l-119 30v162h719v-162l-170 -34v-751q0 -96 15 -175.5t49 -137t89 -89.5t136 -32q78 0 131.5 33.5t86 92t46.5 138t14 170.5v755l-179 30v162h560v-162l-127 -30v-732q0 -167 -44.5 -283.5t-124 -190t-188.5 -107t-239 -33.5q-160 0 -282 35.5t-205 111
t-125.5 194t-42.5 284.5v721z" />
    <glyph glyph-name="V" unicode="V" horiz-adv-x="1454" 
d="M76 1330l-119 30v162h732v-162l-161 -29l260 -856l37 -145l28 145l256 854l-159 31v162h553v-162l-133 -30l-453 -1345h-337z" />
    <glyph glyph-name="W" unicode="W" horiz-adv-x="2133" 
d="M75 1329l-110 31v162h703v-162l-161 -31l227 -879l28 -142l19 142l193 704l-59 176l-120 30v162h737v-162l-193 -30l229 -880l33 -157l24 157l199 880l-159 30v162h502v-162l-126 -31l-362 -1339h-369l-240 855l-222 -855h-367z" />
    <glyph glyph-name="X" unicode="X" horiz-adv-x="1491" 
d="M10 152l167 22l369 545l-405 610l-127 31v162h751v-162l-142 -32l224 -387l244 389l-167 30v162h556v-162l-167 -30l-373 -505l433 -649l125 -24v-152h-750v152l145 25l-250 422l-239 -425l182 -22v-152h-576v152z" />
    <glyph glyph-name="Y" unicode="Y" horiz-adv-x="1354" 
d="M265 152l203 24v443l-406 712l-110 29v162h704v-162l-122 -31l208 -431l42 -122l43 120l183 434l-151 30v162h551v-162l-121 -25l-377 -715v-445l213 -23v-152h-860v152z" />
    <glyph glyph-name="Z" unicode="Z" horiz-adv-x="1344" 
d="M10 133l707 1114l125 135l-430 -32l-119 -288l-205 31l54 433h1101l54 -138l-688 -1111l-150 -126l522 45l124 314l205 -41l-45 -469h-1178z" />
    <glyph glyph-name="bracketleft" unicode="[" horiz-adv-x="889" 
d="M169 1416q0 74 21 119.5t59 70t90.5 33t116.5 8.5q82 0 155.5 -14t136.5 -30v-126h-236v-1586h236v-128q-63 -18 -136.5 -31t-155.5 -13q-64 0 -116.5 8.5t-90.5 33t-59 70t-21 119.5v1466z" />
    <glyph glyph-name="backslash" unicode="\" horiz-adv-x="882" 
d="M18 0zM273.034 1599h-254.984l502.97 -1962h254.984z" />
    <glyph glyph-name="bracketright" unicode="]" horiz-adv-x="889" 
d="M141 0zM720.011 1416q0 74 -20.999 119.5t-58.9961 70q-37.998 24.5 -90.4951 33t-116.493 8.5q-81.9941 0 -155.49 -14q-73.4951 -14 -136.491 -30v-126h235.985v-1586h-235.985v-128q62.9961 -18 136.491 -31q73.4961 -13 155.49 -13q63.9961 0 116.493 8.5t90.4951 33
q37.9971 24.5 58.9961 70t20.999 119.5v1466z" />
    <glyph glyph-name="asciicircum" unicode="^" horiz-adv-x="1363" 
d="M556 1531h246l412 -1257h-309l-225 873l-224 -873h-307z" />
    <glyph glyph-name="underscore" unicode="_" horiz-adv-x="1711" 
d="M1731 -250v-170h-1751v170h1751z" />
    <glyph glyph-name="grave" unicode="`" horiz-adv-x="681" 
d="M376 1286q-48 18 -112.5 59t-129 93t-119.5 109.5t-85 108.5l217 199h1l380 -452l-149 -117h-3v0z" />
    <glyph glyph-name="a" unicode="a" horiz-adv-x="1175" 
d="M40 330q0 88 40 158.5t121.5 119.5t205.5 75.5t291 26.5v32q0 45 -6.5 77.5t-26 54.5t-56 32.5t-96.5 10.5q-61 0 -113.5 -8t-96 -20t-78 -25.5t-59.5 -23.5h-1l-79 168q21 16 69 43t117 53t156 44.5t187 18.5q130 0 216 -24t138 -76t73.5 -133.5t21.5 -195.5v-586h100
v-148q-19 -4 -55 -9t-79 -9.5t-88 -8t-81 -3.5q-45 0 -73.5 6.5t-44 20.5t-21 37.5t-5.5 57.5v38q-20 -28 -50.5 -56t-71.5 -50.5t-92.5 -36.5t-113.5 -14q-71 0 -134.5 24t-111 69t-75.5 110.5t-28 149.5zM453 374q0 -41 8.5 -74.5t25 -58.5t40.5 -38.5t55 -13.5
q29 0 62 16t54 40v315q-70 0 -117 -16t-75.5 -42.5t-40.5 -59.5t-12 -68z" />
    <glyph glyph-name="b" unicode="b" horiz-adv-x="1299" 
d="M139 1462l-134 30v135l439 53h5l76 -46v-588q22 24 51.5 46t65.5 39t76.5 27t84.5 10q93 0 173.5 -31t139 -98.5t92 -175t33.5 -259.5q0 -134 -43 -248.5t-123.5 -198.5t-197 -132t-263.5 -48q-112 0 -196 10t-142.5 23t-92 26.5t-44.5 19.5v1406zM525 147
q8 -13 34 -23.5t64 -10.5q45 0 81.5 27.5t62.5 84t41 142t15 201.5q1 102 -10.5 173t-33.5 115.5t-53.5 64.5t-70.5 20q-41 0 -76 -17.5t-54 -41.5v-735z" />
    <glyph glyph-name="c" unicode="c" horiz-adv-x="1082" 
d="M61 563q0 144 45 256.5t124.5 190t188.5 118t237 40.5q80 0 138 -9.5t101 -20.5t74.5 -21t58.5 -11l-17 -399h-243l-57 249q-6 26 -28.5 36t-46.5 10q-32 0 -59.5 -16t-48 -58t-32.5 -115.5t-12 -189.5q-1 -204 54.5 -309t157.5 -105q48 0 87 6t72 16t61 23t52 27
l63 -139q-16 -19 -52.5 -47t-91 -54.5t-125.5 -45t-156 -18.5q-146 0 -249.5 44t-169 122t-96 185.5t-30.5 234.5z" />
    <glyph glyph-name="d" unicode="d" horiz-adv-x="1297" 
d="M500 -23q-94 0 -175 32t-140 100.5t-93 175.5t-34 258q0 81 17 159t51 147t85.5 128t121.5 101t157.5 66t194.5 24q22 0 44.5 -3t42.5 -7v296l-191 32v151l496 43h10l72 -56v-1470h99v-150q-25 -5 -60 -10t-74 -9.5t-78.5 -7.5t-72.5 -3q-39 0 -67.5 5t-47 18.5t-28 37
t-9.5 61.5v46q-24 -39 -60.5 -69.5t-79.5 -52t-89.5 -32.5t-91.5 -11zM642 182q50 0 81 18t49 42v737q-12 14 -38 23t-59 9q-40 0 -76 -20.5t-63.5 -70t-44 -132.5t-17.5 -209q-1 -105 11 -180.5t34 -123.5t53 -70.5t70 -22.5z" />
    <glyph glyph-name="e" unicode="e" horiz-adv-x="1144" 
d="M53 567q0 146 40 258t114.5 188t180.5 115t238 39q115 0 201.5 -29t144.5 -83t87.5 -132t31.5 -176q0 -73 -5.5 -125.5t-13.5 -94.5h-612q15 -162 81.5 -237t187.5 -75q39 0 79.5 7.5t78.5 19.5t70.5 25.5t55.5 25.5l66 -141q-21 -24 -66 -54t-106 -57t-134 -45.5
t-151 -18.5q-156 0 -264.5 43.5t-176 122t-98 187t-30.5 237.5zM715 676v18.5t0.5 23.5t0.5 23.5v18.5q0 59 -5 105.5t-18 79t-35.5 49.5t-56.5 17q-32 0 -58 -12t-45 -48t-30 -101.5t-12 -173.5h259z" />
    <glyph glyph-name="f" unicode="f" horiz-adv-x="859" 
d="M56 151l146 22v777h-143v141l143 43v82q0 109 45.5 202t123.5 161t182.5 107t222.5 39q64 0 99.5 -9.5t46.5 -13.5v-345q-11 13 -35.5 28t-56 27.5t-67 21t-68.5 8.5q-58 0 -79 -27t-21 -86v-192h231v-187h-231v-778l199 -21v-151h-738v151z" />
    <glyph glyph-name="g" unicode="g" horiz-adv-x="1316" 
d="M45 -224q0 39 14.5 78t40 73.5t61 62.5t78.5 45q-51 32 -72.5 78t-21.5 99q0 31 11.5 63t33.5 61t53.5 53t71.5 41q-68 23 -113.5 59t-73 82t-39 101t-11.5 115q0 89 42 160t115.5 120t172.5 75t213 26h1q147 0 243.5 -25.5t153.5 -72.5q13 18 35.5 36t50.5 33t60.5 24.5
t66.5 9.5h77v-284h-193q4 -21 5.5 -43.5t1.5 -45.5q0 -92 -31.5 -167t-97.5 -128.5t-166.5 -83t-237.5 -29.5h-1q-95 0 -168 12q-5 -24 -7 -47.5t-2 -31.5q0 -29 10.5 -47.5t35.5 -29.5t66.5 -15.5t104.5 -4.5h200q110 0 195 -18.5t142.5 -58t87.5 -100.5t30 -146
q0 -75 -28 -138t-76.5 -114t-114 -89.5t-141.5 -64t-159 -38.5t-166 -13h-1q-156 0 -262 26t-170.5 71t-92.5 104.5t-28 126.5zM611 542q37 0 62 17.5t40 49t21 75.5t6 96q0 128 -29 186t-99 58h-1q-39 0 -65.5 -17t-42.5 -48t-23 -74t-7 -95q0 -125 32 -186.5t105 -61.5h1z
M449 -18q-8 -23 -12.5 -56t-4.5 -78q0 -51 12 -93t37.5 -72t66.5 -46.5t98 -16.5h2q40 0 78 12t68 38t48 66.5t18 96.5q0 83 -41.5 115t-128.5 32h-195q-12 0 -23.5 0.5t-22.5 1.5z" />
    <glyph glyph-name="h" unicode="h" horiz-adv-x="1405" 
d="M68 152l99 20v1283l-133 30v142l452 53h6l68 -50l1 -427l-21 -187q26 23 63.5 48.5t86 47.5t108.5 36t131 14q98 0 162 -27t101.5 -81.5t52.5 -136.5t15 -192v-552l116 -21v-152h-607v151l95 21v551q0 61 -5.5 103t-19.5 68t-38.5 38t-62.5 12q-54 0 -97.5 -22t-69.5 -48
v-701l101 -21v-152h-604v152z" />
    <glyph glyph-name="i" unicode="i" horiz-adv-x="751" 
d="M62 0zM81 152l112 20v723l-131 40v177l456 55h5l68 -47v-948l106 -20v-152h-616v152zM369 1301q-44 0 -81 14t-63.5 39t-41.5 59t-15 73q0 46 15.5 86.5t44 70.5t70 47t94.5 17h1q52 0 91.5 -14.5t66 -40t40 -59.5t13.5 -73q0 -46 -14.5 -86t-44 -69.5t-73.5 -46.5
t-102 -17h-1v0z" />
    <glyph glyph-name="j" unicode="j" horiz-adv-x="715" 
d="M0 0zM199 892l-132 41l1 179l446 55h5l69 -47v-1098q0 -85 -23.5 -156.5t-62.5 -129.5t-88.5 -101.5t-101.5 -73t-102.5 -44.5t-90.5 -15q-14 0 -33.5 0.5t-38.5 1.5t-35.5 2.5t-23.5 3.5l-19 145q13 0 40 4t56 21q70 39 101.5 140t31.5 278zM363 1301q-44 0 -81 14
t-63.5 39t-41.5 59t-15 73q0 46 15.5 86.5t44 70.5t70 47t94.5 17h1q52 0 91.5 -14.5t66 -40t40 -59.5t13.5 -73q0 -46 -14.5 -86t-44 -69.5t-73.5 -46.5t-102 -17h-1v0z" />
    <glyph glyph-name="k" unicode="k" horiz-adv-x="1373" 
d="M64 152l103 20v1283l-131 30v142l452 53h5l68 -50v-933l-7 -91l340 364l-149 22v145h589v-145l-175 -28l-183 -169l317 -622l96 -21v-152h-607v151l76 22l-159 369l-147 -153l7 -105v-111l103 -22v-151h-598v152z" />
    <glyph glyph-name="l" unicode="l" horiz-adv-x="715" 
d="M56 152l111 21v1282l-133 30v142l452 53h6l68 -50v-1457l111 -21v-152h-615v152z" />
    <glyph glyph-name="m" unicode="m" horiz-adv-x="2125" 
d="M94 151l100 21v723l-109 39v184l413 49h5l59 -47v-69l-1 -49q35 36 88 65.5t110.5 50.5t112.5 32.5t93 11.5q112 0 181 -38.5t104 -116.5q70 72 169.5 113.5t212.5 41.5q88 0 152.5 -25t106.5 -78t62.5 -136t20.5 -199v-552l110 -21v-151h-589v151l75 21v542
q0 67 -7 111.5t-22 71t-39.5 37t-58.5 10.5q-48 0 -88.5 -22.5t-69.5 -47.5q5 -34 7.5 -71t2.5 -79v-552l100 -21v-151h-591v151l85 21v551q0 64 -6 106.5t-21 68t-39 36t-60 10.5q-27 0 -51 -6.5t-45 -16.5t-38 -22.5t-30 -24.5v-702l98 -21v-151h-603v151z" />
    <glyph glyph-name="n" unicode="n" horiz-adv-x="1443" 
d="M91 152l103 20v723l-109 39v184l413 49h5l60 -47v-69l-2 -48q32 31 74.5 60t93.5 51t111 35t126 13q88 0 150.5 -22.5t102.5 -74t59 -135.5t19 -206v-551l100 -19v-154h-592v152l85 21v550q0 64 -6 106.5t-20.5 68t-38.5 36t-60 10.5q-29 0 -54 -7.5t-46 -18t-37.5 -22.5
t-28.5 -22v-702l100 -20v-152h-608v152z" />
    <glyph glyph-name="o" unicode="o" horiz-adv-x="1269" 
d="M53 559q0 158 47.5 273t129.5 189.5t190 110.5t230 36q124 0 228 -36t179 -109t117 -182t42 -255q0 -165 -47.5 -280.5t-129 -188.5t-190 -106.5t-230.5 -33.5q-123 0 -227 36.5t-179 109t-117.5 181.5t-42.5 255zM642 134q38 0 65.5 24t45.5 75t27 131.5t9 193.5
q0 121 -8 207t-27 140.5t-49 80t-73 25.5q-38 0 -66.5 -24t-48 -75t-29.5 -131.5t-10 -193.5q0 -121 9.5 -207t29.5 -140.5t51 -80t74 -25.5z" />
    <glyph glyph-name="p" unicode="p" horiz-adv-x="1320" 
d="M161 -327v1222l-109 39v184l402 49h5l61 -47v-104q19 28 49 55t69 48.5t85 35t97 13.5q94 0 174.5 -31t140 -98.5t93.5 -175t34 -259.5q0 -121 -38 -234t-116 -200.5t-195.5 -140t-276.5 -52.5q-28 0 -54.5 5.5t-39.5 10.5l6 -163v-157l159 -27v-142h-658v142zM548 160
q13 -14 38 -24t58 -10q40 0 76.5 21t64 72t44.5 136t17 213q1 103 -11 176.5t-34 120.5t-53.5 69t-70.5 22q-41 0 -76 -17t-53 -39v-740z" />
    <glyph glyph-name="q" unicode="q" horiz-adv-x="1275" 
d="M500 -23q-93 0 -174 31.5t-140.5 100t-93.5 176t-34 259.5q0 121 38.5 233.5t116.5 199.5t196 139t277 52q31 0 64.5 -5t65 -11.5t58.5 -14t44 -12.5l190 32h5l50 -37v-1447l137 -27v-142h-741v142l217 28v278l6 141q-26 -27 -59 -48.5t-69.5 -36.5t-75.5 -23t-78 -8z
M647 182q41 0 76 18t53 42v736q-12 14 -39.5 23.5t-60.5 9.5q-40 0 -76 -20t-63 -69.5t-43.5 -132.5t-16.5 -209q-1 -105 11 -180.5t34.5 -123.5t54 -71t70.5 -23z" />
    <glyph glyph-name="r" unicode="r" horiz-adv-x="1004" 
d="M84 152l111 20v723l-109 39v184l369 49h5l66 -47v-56l-7 -175h8q9 39 38.5 87.5t76 91t106.5 71.5t131 29q31 0 54.5 -5t34.5 -13v-416q-15 11 -32.5 22t-40.5 20t-52.5 14.5t-68.5 5.5q-64 0 -113 -13t-71 -28v-582l209 -22v-151h-715v152z" />
    <glyph glyph-name="s" unicode="s" horiz-adv-x="1104" 
d="M88 336h224l58 -162q6 -9 21 -18t36 -16t44.5 -11.5t45.5 -4.5q35 0 61.5 8.5t44.5 23.5t27.5 35t9.5 42q0 39 -27.5 67t-73.5 53t-105 50t-123 58q-57 28 -103 63t-78.5 79t-50 98t-17.5 120q0 71 31 134t91.5 110t151 74t209.5 27q86 0 150.5 -9t114 -20t87 -20.5
t67.5 -11.5v-290l-214 1l-58 159q-8 15 -39 29.5t-79 14.5q-70 0 -108 -29.5t-38 -79.5q0 -36 21 -63t56.5 -49.5t81.5 -42.5t96 -42q64 -28 127 -61t113 -78t81 -104.5t31 -140.5q0 -68 -27 -131t-86 -112.5t-153.5 -79t-229.5 -29.5q-94 0 -168 11t-131.5 25t-99.5 27
t-72 17v279z" />
    <glyph glyph-name="t" unicode="t" horiz-adv-x="838" 
d="M148 951h-115v131l9.5 4.5t24 11t32 14t32 13.5t24 10.5l9.5 4.5q18 20 36 47t35 68q20 42 36.5 90t34.5 107h225l15 -314h269v-187h-265v-501q0 -78 2.5 -123t11 -67.5t25.5 -28.5t46 -6h1q48 0 87 8t71 16h1l49 -144q-29 -24 -73 -45.5t-98 -38.5t-116 -27t-129 -10h-2
q-146 0 -212 68t-66 195v704z" />
    <glyph glyph-name="u" unicode="u" horiz-adv-x="1330" 
d="M137 963l-88 25v148l434 27h3l46 -28v-751q0 -58 7.5 -96.5t22.5 -61.5t38 -32.5t55 -9.5t56.5 6.5t42.5 16t30 19.5t20 17v720l-118 29v145l455 26h6l52 -28v-975h101v-149l-50 -10t-68 -11t-83 -9t-95 -4q-42 0 -71.5 10t-48 28.5t-26.5 44t-8 56.5v33q-20 -33 -55 -64
t-79.5 -55t-95.5 -38.5t-102 -14.5q-103 0 -175.5 23t-118 74t-66.5 132.5t-21 198.5v558z" />
    <glyph glyph-name="v" unicode="v" horiz-adv-x="1178" 
d="M48 967l-75 24v147h634v-147l-119 -24l156 -516l34 -150l29 150l152 516l-120 24v147h505v-147l-109 -24l-363 -983h-322z" />
    <glyph glyph-name="w" unicode="w" horiz-adv-x="1725" 
d="M42 970l-90 21v146h603v-146l-127 -23l123 -464l34 -172l26 171l165 634h316l203 -633l33 -170l29 169l111 464l-143 24v146h470v-146l-95 -21l-308 -986h-293l-194 580l-38 229l-25 -229l-171 -580h-302z" />
    <glyph glyph-name="x" unicode="x" horiz-adv-x="1266" 
d="M-2 150l120 23l304 375l-328 421l-96 23v146h698v-147l-118 -22l123 -176l47 -85l50 86l124 175l-121 22v147h461v-147l-109 -22l-299 -365l341 -432l106 -22v-150h-686v150l100 23l-118 188l-58 87l-45 -87l-123 -188l138 -23v-150h-511v150z" />
    <glyph glyph-name="y" unicode="y" horiz-adv-x="1173" 
d="M124 -205q8 -7 27.5 -13t43 -10.5t48.5 -7.5t45 -3q60 0 101.5 20t71 53t50 76t38.5 90h-129l-382 967l-87 24v147h658v-147l-134 -24l154 -516l44 -162l32 162l145 517l-117 23v147h488v-147l-94 -23q-16 -49 -39 -116.5t-50 -145t-56 -160.5t-57 -162.5t-53.5 -151
t-45 -127t-31.5 -89.5t-14 -38q-42 -119 -88.5 -210t-103 -153t-127 -93.5t-161.5 -31.5q-22 0 -47.5 1.5t-50 4.5t-45.5 7.5t-34 10.5v281v0z" />
    <glyph glyph-name="z" unicode="z" horiz-adv-x="1158" 
d="M25 141l484 659l164 185l-329 -17l-63 -206h-179v376h949l58 -133l-464 -681l-149 -172l334 25l113 245l170 -20l-30 -402h-993z" />
    <glyph glyph-name="braceleft" unicode="{" horiz-adv-x="1094" 
d="M273 -11q0 46 10.5 86t27 76t35 69.5t35 69t27 73.5t10.5 83q0 32 -4 60t-27.5 49t-74.5 33.5t-144 12.5v187q93 0 144 8.5t74.5 25t27.5 40t4 54.5q0 66 -22.5 121t-50 108t-50 109t-22.5 126q0 65 19 117.5t62.5 89t114 56t172.5 19.5q94 0 173 -16.5t153 -32.5v-139
h-154q-33 0 -63.5 -5.5t-53 -21.5t-36 -44.5t-13.5 -74.5q0 -41 15 -89.5t32.5 -101t32.5 -106t15 -103.5q0 -56 -25.5 -97t-69 -69.5t-102.5 -46.5t-126 -27q67 -9 126 -28t102.5 -49t69 -72t25.5 -98q0 -50 -15 -102.5t-32.5 -103.5t-32.5 -98.5t-15 -87.5q0 -47 13.5 -76
t36 -44.5t53 -21t63.5 -5.5h154v-146q-74 -16 -153 -32.5t-173 -16.5q-102 0 -172.5 19.5t-114 56t-62.5 89t-19 117.5z" />
    <glyph glyph-name="bar" unicode="|" horiz-adv-x="865" 
d="M306 1780h253v-1966h-253v1966z" />
    <glyph glyph-name="braceright" unicode="}" horiz-adv-x="1094" 
d="M127 0zM821.017 -11q0 46 -10.499 86q-10.5 40 -26.999 76t-34.9971 69.5q-18.499 33.5 -34.998 69t-26.999 73.5q-10.499 38 -10.499 83q0 32 4 60t27.498 49q23.499 21 74.4961 33.5q50.9961 12.5 143.99 12.5v187q-92.9941 0 -143.99 8.5q-50.9971 8.5 -74.4961 25
q-23.498 16.5 -27.498 40t-4 54.5q0 66 22.499 121q22.498 55 49.9971 108q27.498 53 49.9961 109q22.499 56 22.499 126q0 65 -18.999 117.5t-62.4961 89t-113.993 56q-70.4951 19.5 -172.489 19.5q-93.9941 0 -172.989 -16.5t-152.991 -32.5v-139h153.991
q32.998 0 63.4961 -5.5t52.9971 -21.5q22.498 -16 35.9971 -44.5t13.499 -74.5q0 -41 -14.999 -89.5t-32.498 -101t-32.498 -106t-14.999 -103.5q0 -56 25.499 -97q25.498 -41 68.9951 -69.5q43.498 -28.5 102.494 -46.5t125.992 -27q-66.9961 -9 -125.992 -28t-102.494 -49
q-43.4971 -30 -68.9951 -72q-25.499 -42 -25.499 -98q0 -50 14.999 -102.5t32.498 -103.5t32.498 -98.5t14.999 -87.5q0 -47 -13.499 -76t-35.9971 -44.5q-22.499 -15.5 -52.9971 -21t-63.4961 -5.5h-153.991v-146q73.9961 -16 152.991 -32.5t172.989 -16.5
q101.994 0 172.489 19.5q70.4961 19.5 113.993 56t62.4961 89t18.999 117.5z" />
    <glyph glyph-name="asciitilde" unicode="~" horiz-adv-x="1438" 
d="M192 587q14 37 46 78t76 75t98 56t113 22q50 0 91.5 -13.5t77 -33.5t65.5 -44t57.5 -44t53.5 -33.5t52 -13.5q39 0 68.5 9t52.5 24t41.5 35t35.5 43l111 -131q-19 -43 -51.5 -85t-76 -75.5t-96 -54t-110.5 -20.5q-47 0 -84.5 13.5t-69.5 34t-60 44.5t-55 44.5t-55 34
t-59 13.5q-69 0 -121 -32t-91 -74z" />
    <glyph glyph-name="nonbreakingspace" unicode="&#xa0;" horiz-adv-x="670" 
 />
    <glyph glyph-name="exclamdown" unicode="&#xa1;" horiz-adv-x="716" 
d="M129 0zM589.008 -389.89h-452.973l92.9941 1256.92h255.984zM564.009 1241.01q0 -44.9971 -17.998 -82.4951q-17.999 -37.498 -48.9971 -64.4961t-72.9961 -41.4971q-41.9971 -14.499 -89.9941 -14.499q-46.9971 0 -84.9951 15.999q-37.9971 15.999 -64.4961 42.4971
q-26.498 26.498 -40.9971 60.9961t-14.499 70.4961q0 48.9971 17.499 86.4941q17.498 37.498 48.9961 62.9961q31.498 25.499 75.4961 38.998q43.9971 13.499 96.9941 13.499q36.9971 0 72.4951 -13.999t62.9961 -38.998q27.499 -24.998 43.9971 -59.4961
q16.499 -34.498 16.499 -76.4951z" />
    <glyph glyph-name="cent" unicode="&#xa2;" horiz-adv-x="1192" 
d="M500 -10q-107 21 -183 71.5t-124 125.5t-71 170.5t-23 205.5q0 128 36 231.5t100.5 179t154 123t196.5 63.5l11 215h198l-11 -211q56 -5 98.5 -14.5t75.5 -19t59 -16.5t49 -8l-17 -399h-243l-57 249q-6 26 -28.5 36t-46.5 10q-32 0 -59.5 -16t-48 -58t-32.5 -115.5
t-12 -189.5q-1 -204 54.5 -309t157.5 -105q48 0 87 6t72 16t61 23t52 27l63 -139q-15 -17 -47 -42.5t-79.5 -50t-109.5 -44t-136 -25.5l-11 -223h-198l12 233v0z" />
    <glyph glyph-name="sterling" unicode="&#xa3;" horiz-adv-x="1639" 
d="M72 116q0 40 26 71t65 51.5t85 31t86 10.5q11 14 18.5 58t7.5 122v250h-172v169h172v145q0 117 45.5 212.5t124.5 164t185.5 105.5t229.5 37q75 0 136.5 -9.5t111 -25t88.5 -36.5t69 -44l-163 -229q-9 16 -31.5 44t-56.5 54t-78 45.5t-94 19.5q-25 0 -51 -8t-47 -34.5
t-34.5 -76t-13.5 -132.5v-232h243v-169h-243v-195q0 -62 -10 -108t-27.5 -80t-41.5 -58t-53 -43q28 -5 61 -13t70 -15.5t78.5 -13.5t86.5 -6q69 0 114.5 13t72.5 37.5t38.5 61.5t11.5 85q0 30 -5.5 58.5t-14.5 53t-21 43t-25 29.5h396q9 -8 19.5 -25t18.5 -40t13.5 -51
t5.5 -58q0 -85 -34 -158t-99 -127t-159.5 -84.5t-215.5 -30.5q-108 0 -196 18t-161.5 39.5t-134 40t-112.5 19.5q-48 -42 -106 -72t-123 -30q-33 0 -61.5 7.5t-49.5 22t-33 36t-12 50.5z" />
    <glyph glyph-name="currency" unicode="&#xa4;" horiz-adv-x="1547" 
d="M389 503q-38 54 -59 119.5t-21 139.5q0 76 22 145.5t62 128.5l-236 233l136 139l239 -239q52 32 112 50t126 18q67 0 127.5 -16.5t114.5 -47.5l239 237l138 -138l-234 -230q38 -55 59 -120t21 -138q0 -76 -22.5 -145.5t-63.5 -128.5l236 -232l-138 -138l-238 238
q-53 -32 -113 -50t-126 -18t-126 16t-113 46l-236 -236l-138 138zM772 580q44 0 77.5 15t56 40.5t34 60t11.5 73.5q0 46 -16 83t-41.5 62t-59 38.5t-67.5 13.5q-42 0 -74.5 -16.5t-55 -43.5t-34 -62.5t-11.5 -74.5t15 -73.5t40 -60t57.5 -40.5t67.5 -15z" />
    <glyph glyph-name="yen" unicode="&#xa5;" horiz-adv-x="1723" 
d="M251 473h426v178h-426v149h333l-321 534l-141 30v158h753v-158l-142 -28l198 -415l44 -114l44 113l202 416l-168 28v158h564v-158l-155 -30l-284 -534h363v-149h-435v-178h435v-150h-435v-151l213 -24v-148h-832v148l190 24v151h-426v150z" />
    <glyph glyph-name="brokenbar" unicode="&#xa6;" horiz-adv-x="865" 
d="M306 1780h253v-830h-253v830zM306 641h253v-827h-253v827z" />
    <glyph glyph-name="section" unicode="&#xa7;" horiz-adv-x="1422" 
d="M213 218h233l47 -187q7 -13 27 -27t49 -26t65 -19.5t75 -7.5q88 0 131.5 32t43.5 89q0 36 -23.5 64.5t-64 53.5t-95 49t-117.5 51q-108 49 -186 103t-128 117.5t-74 137.5t-24 163q0 86 42 155.5t121 127.5q-50 49 -80.5 111t-30.5 143q0 75 35.5 137t101.5 106.5
t159.5 69.5t208.5 25q72 0 140 -10.5t125 -24t100.5 -25.5t67.5 -16l-13 -305h-206l-62 155q-4 7 -18.5 18t-37 21t-52.5 17t-65 7q-76 0 -115 -31t-39 -83q0 -35 16.5 -61t46.5 -48t72 -42t93 -44q39 -20 90 -42.5t105 -51.5t105.5 -64.5t92 -81t65.5 -101.5t25 -125
q0 -66 -12 -119t-32.5 -96t-48.5 -76.5t-61 -60.5q46 -47 74 -106t28 -135q0 -65 -28.5 -129t-90 -115t-158.5 -82.5t-234 -31.5q-91 0 -172 14t-147.5 31t-115 32t-73.5 17zM776 596q52 -24 110 -51t112 -61q30 43 30 98q0 49 -25 87.5t-71.5 73t-112.5 69t-147 76.5
q-53 27 -116 57.5t-124 70.5q-20 -23 -28.5 -51t-8.5 -63q0 -42 29 -81t80.5 -76.5t121 -74t150.5 -74.5z" />
    <glyph glyph-name="dieresis" unicode="&#xa8;" horiz-adv-x="1021" 
d="M747 1324q-36 0 -65.5 16.5t-50.5 42t-33 57t-12 62.5q0 45 11.5 83t35.5 66.5t61 44.5t88 16h1q48 0 82.5 -14t56.5 -38.5t32.5 -56.5t10.5 -68q0 -45 -12.5 -83.5t-38.5 -67t-67.5 -44.5t-98.5 -16h-1zM220 1324q-36 0 -66 14.5t-51.5 38.5t-33.5 56.5t-12 68.5
q0 45 12 83t36 66.5t61 44.5t87 16h1q48 0 82.5 -14t57 -38.5t33 -56.5t10.5 -68q0 -45 -12.5 -83.5t-39 -67t-67 -44.5t-97.5 -16h-1z" />
    <glyph glyph-name="copyright" unicode="&#xa9;" horiz-adv-x="2130" 
d="M198 1001q0 121 31 232.5t87.5 207.5t136 174t176 133.5t208 86t231.5 30.5t231 -30.5t207 -86t174.5 -133.5t134 -174t86 -207.5t30.5 -232.5t-30.5 -232.5t-86 -207.5t-134 -174.5t-174.5 -134t-207 -86t-231 -30.5t-231.5 30.5t-208 86t-176 134t-136 174.5t-87.5 207
t-31 233zM355 1001q0 -154 55 -287.5t151 -232.5t226 -156t281 -57q100 0 191.5 26.5t170 74t142.5 114.5t109 148.5t69.5 175t24.5 194.5q0 102 -24.5 196.5t-69.5 175.5t-109 147.5t-142.5 114t-170 73t-191.5 25.5q-102 0 -194.5 -26.5t-171.5 -74t-143.5 -114.5
t-109.5 -148.5t-69.5 -175t-24.5 -193.5zM632 1002q0 106 37 197.5t104.5 158.5t160.5 105t206 38q33 0 72 -4t75.5 -12t66.5 -19t45 -26l-6 -272h-146l-47 138q-6 4 -14.5 9.5t-22 9.5t-33.5 7t-50 3q-52 0 -91 -22.5t-64.5 -62t-38 -93t-12.5 -116.5q0 -71 20 -129
t56 -99.5t86 -64t110 -22.5q57 0 111 19.5t89 51.5l70 -127q-21 -27 -56 -54.5t-79.5 -50t-96 -36.5t-105.5 -14q-113 0 -196.5 36.5t-139.5 101.5t-83.5 154t-27.5 195z" />
    <glyph glyph-name="ordfeminine" unicode="&#xaa;" horiz-adv-x="1068" 
d="M372 669q-76 0 -134 20.5t-97 57t-58.5 88t-19.5 114.5q0 76 42 131.5t117 92t178 53.5t225 16v23q0 49 -7 80.5t-24.5 48.5t-47.5 23.5t-75 6.5q-90 0 -163 -16t-133 -40l-76 150q31 19 81.5 39.5t112 38t128 28.5t128.5 11q94 0 168.5 -17.5t126.5 -58t79.5 -105.5
t27.5 -160v-479h90v-115q-20 -5 -51 -10t-66.5 -10t-72.5 -8t-68 -3q-30 0 -56.5 2t-46.5 10t-31.5 25t-11.5 47v37q-20 -22 -47.5 -43.5t-61.5 -39t-73 -28t-83 -10.5zM506 851q33 0 67 12t52 41v222q-61 -2 -103.5 -11t-69 -26.5t-38.5 -43.5t-12 -60q0 -60 28.5 -97
t75.5 -37z" />
    <glyph glyph-name="guillemotleft" unicode="&#xab;" horiz-adv-x="1975" 
d="M200 69zM991 693l694 467l108 -170l-377 -381l377 -375l-108 -165l-694 459v165zM200 693l694 467l108 -170l-377 -381l377 -375l-108 -165l-694 459v165z" />
    <glyph glyph-name="logicalnot" unicode="&#xac;" horiz-adv-x="1410" 
d="M210 734h990v-574h-256v354h-734v220z" />
    <glyph glyph-name="uni00AD" unicode="&#xad;" horiz-adv-x="1345" 
d="M230 734h885v-236h-885v236z" />
    <glyph glyph-name="registered" unicode="&#xae;" horiz-adv-x="2130" 
d="M198 1001q0 121 31 232.5t87.5 207.5t136 174t176 133.5t208 86t231.5 30.5t231 -30.5t207 -86t174.5 -133.5t134 -174t86 -207.5t30.5 -232.5t-30.5 -232.5t-86 -207.5t-134 -174.5t-174.5 -134t-207 -86t-231 -30.5t-231.5 30.5t-208 86t-176 134t-136 174.5t-87.5 207
t-31 233zM355 1001q0 -154 55 -287.5t151 -232.5t226 -156t281 -57q100 0 191.5 26.5t170 74t142.5 114.5t109 148.5t69.5 175t24.5 194.5q0 102 -24.5 196.5t-69.5 175.5t-109 147.5t-142.5 114t-170 73t-191.5 25.5q-102 0 -194.5 -26.5t-171.5 -74t-143.5 -114.5
t-109.5 -148.5t-69.5 -175t-24.5 -193.5zM653 627l78 28v688l-78 24v117h203q30 -1 54 -0.5t50 2t56.5 2.5t74.5 1q106 0 178.5 -20t117.5 -56t65 -85t20 -106q0 -42 -8.5 -85.5t-31 -81t-62 -66t-100.5 -39.5q55 -20 89 -50.5t54 -65.5t31 -70t21.5 -63.5t25 -46.5
t41.5 -19v-113h-235q-28 0 -45.5 24t-29.5 61t-22.5 81.5t-25 85t-37 71.5t-57.5 42h-92v-238l87 -22v-105h-422v105zM988 1027q23 -7 48 -8t50 -1t45.5 14.5t35 38.5t22.5 54.5t8 62.5q0 93 -29.5 132.5t-101.5 39.5q-20 0 -40 -2.5t-38 -8.5v-322z" />
    <glyph glyph-name="macron" unicode="&#xaf;" horiz-adv-x="681" 
d="M5 1634h671v-220h-671v220z" />
    <glyph glyph-name="degree" unicode="&#xb0;" horiz-adv-x="1078" 
d="M538 908q-80 0 -151 30.5t-124 83t-84 122.5t-31 149q0 82 31 152.5t84 122t124 80.5t151 29q85 0 157 -30.5t124.5 -83t81.5 -122.5t29 -148q0 -83 -30.5 -153.5t-83.5 -122t-124.5 -80.5t-153.5 -29zM540 1107q37 0 68 14t52.5 39t33.5 59t12 74q0 37 -13 70.5t-36 59
t-53.5 41t-66.5 15.5q-37 0 -68 -14.5t-53 -40t-34 -59t-12 -72.5q0 -36 13.5 -70t36.5 -59.5t54 -41t66 -15.5z" />
    <glyph glyph-name="plusminus" unicode="&#xb1;" horiz-adv-x="1353" 
d="M555 509l7 145l-193 -7h-169v233h169l193 -12l-7 149v228h243v-228l-9 -149l164 12h200v-233h-200l-164 7l9 -145v-210h-243v210zM205 228h940v-229h-940v229z" />
    <glyph glyph-name="acute" unicode="&#xb4;" horiz-adv-x="681" 
d="M122 1403l381 452h1l217 -199q-20 -34 -52 -71.5t-71 -74.5t-82.5 -72t-86.5 -65t-83 -52.5t-72 -34.5h-2z" />
    <glyph glyph-name="mu" unicode="&#xb5;" horiz-adv-x="1398" 
d="M165 457l-2 4v496l-94 36v143l444 26l45 -28v-780q0 -34 11.5 -63.5t32 -52t48.5 -35.5t61 -13q31 0 54.5 7.5t40 19.5t26.5 27t14 30v683l-109 39l-1 140l457 26l46 -27v-975h101v-150q-42 -11 -104 -23.5t-151 -12.5q-42 0 -69 11.5t-43.5 30.5t-23 44t-6.5 52v40
q-12 -39 -35.5 -70.5t-54.5 -54.5t-67.5 -35.5t-73.5 -12.5q-56 0 -100 15t-76 43v-410h-371v830z" />
    <glyph glyph-name="paragraph" unicode="&#xb6;" horiz-adv-x="1758" 
d="M366 149l201 24v606q-110 0 -191.5 32.5t-135 93.5t-79.5 148t-26 197q0 98 36.5 182t107 146t174 97.5t236.5 35.5q84 0 141 -1.5t102.5 -3.5t87 -5t94 -5t124.5 -3.5t179 -1.5h171v-155l-156 -23v-1340l132 -24v-149h-444v1519q-33 5 -83.5 9.5t-104.5 4.5
q-15 0 -31 -0.5t-21 -2.5v-1530h-514v149z" />
    <glyph glyph-name="periodcentered" unicode="&#xb7;" horiz-adv-x="732" 
d="M149 506zM149 696q0 46 18 83.5t49 64.5t73.5 41.5t90.5 14.5t86 -16t64.5 -42.5t41 -61t14.5 -71.5q0 -49 -17.5 -87t-49 -63.5t-75.5 -39t-98 -13.5q-38 0 -73 14t-63 39.5t-44.5 60t-16.5 76.5z" />
    <glyph glyph-name="cedilla" unicode="&#xb8;" horiz-adv-x="615" 
d="M342 14l44 -5q16 -15 42.5 -44.5t50.5 -69.5t40.5 -89t13.5 -103q-4 -71 -27 -117.5t-64.5 -74.5t-100.5 -39.5t-135 -11.5h-1q-17 0 -37 2.5t-39.5 6.5t-37 9.5t-30.5 11.5l1 214q21 -7 46 -10t36 -3h1q33 0 58.5 4t43 18t26 42t8.5 75q0 26 -7 53t-17.5 51.5t-21.5 44
t-19 30.5z" />
    <glyph glyph-name="ordmasculine" unicode="&#xba;" horiz-adv-x="1119" 
d="M560 670q-111 0 -204 30t-159.5 91.5t-103.5 154.5t-35 218q2 124 47 213t117 146t163 84t187 27q241 0 365.5 -123.5t122.5 -356.5q-1 -129 -45 -220.5t-114.5 -150t-159.5 -86t-181 -27.5zM557 804q39 0 65 11t41.5 45.5t21.5 100t6 175.5q0 89 -7 158t-22.5 116
t-40.5 71t-61 23q-37 -1 -62 -19t-40.5 -57.5t-22.5 -103t-7 -155.5q0 -182 34.5 -274t94.5 -91z" />
    <glyph glyph-name="guillemotright" unicode="&#xbb;" horiz-adv-x="1971" 
d="M187 69zM1773.01 693l-693.957 467l-107.993 -170l376.977 -381l-376.977 -375l107.993 -165l693.957 459v165zM989.012 693l-693.957 467l-107.993 -170l376.977 -381l-376.977 -375l107.993 -165l693.957 459v165z" />
    <glyph glyph-name="onequarter" unicode="&#xbc;" horiz-adv-x="2503" 
d="M1450 333q20 35 48 90.5t61.5 123t70.5 143t74.5 152t73.5 149.5t68 135h279l55 -62l-334 -529l-130 -167l319 16l37 248l222 12v-247l170 9l-1 -196h-169v-208h-263l-1 208h-485zM117 699l262 23l1 632q-57 -19 -119.5 -29.5t-112.5 -18.5l-54 165q45 12 95 28.5
t101.5 38.5t102 50t94.5 64h5l196 -32v-897l243 -24v-155h-814v155zM767 -201l678 1850l224 -9l-679 -1849z" />
    <glyph glyph-name="onehalf" unicode="&#xbd;" horiz-adv-x="2500" 
d="M94 0zM117 699l262 23l1 632q-57 -19 -119.5 -29.5t-112.5 -18.5l-54 165q45 12 95 28.5t101.5 38.5t102 50t94.5 64h5l196 -32v-897l243 -24v-155h-814v155zM767 -201l678 1850l224 -9l-679 -1849zM1495 135q55 31 114.5 73t116.5 92.5t108.5 107t90 115.5t61 118.5
t22.5 116.5q0 36 -11.5 64t-32 47.5t-48.5 29.5t-60 10q-49 0 -89 -11.5t-71.5 -28t-56 -34.5t-41.5 -30l-94 121q22 21 59.5 52t92.5 60t128 49.5t166 20.5q86 0 155.5 -21.5t119 -63.5t76.5 -103.5t27 -140.5q0 -58 -22 -116t-60.5 -114.5t-91.5 -111t-115.5 -104
t-131.5 -93.5t-140 -80l450 46l86 142l144 -28l-53 -321h-846z" />
    <glyph glyph-name="threequarters" unicode="&#xbe;" horiz-adv-x="2497" 
d="M1444 333q20 35 48 90.5t61.5 123t70.5 143t74.5 152t73.5 149.5t68 135h279l55 -62l-334 -529l-130 -167l319 16l37 248l222 12v-247l170 9l-1 -196h-169v-208h-263l-1 208h-485zM108 753q19 -11 50 -18.5t64.5 -13t64 -8t49.5 -2.5q124 0 192.5 43.5t68.5 131.5
q0 24 -7.5 50t-27.5 48t-56 37t-93 18q-4 -2 -22 -6.5t-39 -9.5q-25 -6 -55 -13l-43 119q30 6 62 16.5t65 21.5q32 10 63.5 24.5t56 36.5t39.5 51.5t15 68.5q0 61 -40 88.5t-115 27.5q-30 0 -63.5 -6.5t-65.5 -16.5t-60 -23.5t-47 -26.5l-79 129q20 18 60 41t94 43.5t118 34
t131 13.5q93 0 163.5 -19t118 -53.5t72 -83.5t24.5 -108q0 -53 -18 -94t-49.5 -73t-74 -56.5t-91.5 -43.5q71 1 129.5 -15t100.5 -48.5t65.5 -79t23.5 -104.5q0 -74 -33 -137t-99 -110t-164.5 -73.5t-228.5 -26.5q-39 0 -86.5 6t-92.5 15t-83 20t-57 21v164zM761 -201
l678 1850l224 -9l-679 -1849z" />
    <glyph glyph-name="questiondown" unicode="&#xbf;" horiz-adv-x="1079" 
d="M30 0zM742.021 902.031q13.999 -15.999 32.498 -48.4971q18.499 -32.4971 36.498 -73.9951q17.999 -41.4971 30.998 -87.9941q12.999 -46.498 14.999 -90.4951q0 -34.998 -5.5 -61.9961q-5.49902 -26.998 -20.998 -50.9971q-15.5 -23.998 -43.998 -47.9971
q-28.498 -23.998 -73.9951 -51.9961q-45.4971 -27.999 -110.993 -63.4961q-65.4961 -35.498 -156.49 -83.4951q-10 -13.999 -10 -39.998q2 -79.9951 19.999 -153.99q17.999 -73.9961 59.4961 -130.492q41.498 -56.4961 109.993 -90.4941q68.4961 -33.998 169.49 -33.998
q27.998 0 48.4971 1.5t36.4971 4.49902q16 3 28.499 6.5t24.498 6.5l53.9971 -207.987q-22.999 -13 -113.493 -28.499t-244.485 -15.499q-160.99 0 -274.483 40.998q-113.493 40.9971 -185.488 107.993q-71.9961 66.9961 -104.993 152.491q-32.998 85.4941 -32.998 173.489
q0 85.9941 28.998 146.491q28.998 60.4961 74.4951 104.493t101.494 74.4951q55.9961 30.498 110.993 57.4971q54.9961 26.998 102.993 53.4961q47.9971 26.499 75.9961 61.4971q5.99902 7.99902 12.499 25.998q6.49902 17.999 5.5 43.9971q0 26.999 -3 61.9961
q-3 34.998 -6.5 70.9961t-7.99902 69.4961q-4.5 33.4971 -8.5 57.4961zM766.02 1254.01q1.99902 -42.9971 -13 -78.9951q-14.999 -35.9971 -42.9971 -62.4961q-27.998 -26.498 -67.4961 -42.4971q-39.4971 -15.999 -85.4941 -17.999q-44.998 -1 -81.4951 12.499
q-36.498 13.499 -63.4961 37.498q-26.999 23.998 -42.498 55.9961t-18.498 66.9961q-3 46.9971 11.999 82.9951t43.4971 61.4961q28.498 25.499 69.4961 39.498q40.9971 13.999 91.9941 14.999q35.998 3 70.4961 -8.5q34.4971 -11.499 61.9961 -33.998
q27.498 -22.498 45.4971 -54.9961t19.999 -72.4961z" />
    <glyph glyph-name="Agrave" unicode="&#xc0;" horiz-adv-x="1465" 
d="M0 0zM-43 152l115 24l437 1349h442l438 -1350l107 -23v-152h-697v152l133 23l-58 217h-436l-56 -222l152 -18v-152h-574zM829 565l-155 588l-22 126l-24 -126l-147 -588h348zM762 1593q-30 8 -81.5 33.5t-108.5 61.5t-111.5 79t-90.5 87l242 160h1l295 -319l-145 -102h-1
v0z" />
    <glyph glyph-name="Aacute" unicode="&#xc1;" horiz-adv-x="1465" 
d="M0 0zM-43 152l115 24l437 1349h442l438 -1350l107 -23v-152h-697v152l133 23l-58 217h-436l-56 -222l152 -18v-152h-574zM829 565l-155 588l-22 126l-24 -126l-147 -588h348zM573 1695l295 319h1l242 -160q-48 -50 -105.5 -94.5t-113 -79.5t-102 -57.5t-72.5 -29.5h-1z
" />
    <glyph glyph-name="Acircumflex" unicode="&#xc2;" horiz-adv-x="1465" 
d="M0 0zM-43 152l115 24l437 1349h442l438 -1350l107 -23v-152h-697v152l133 23l-58 217h-436l-56 -222l152 -18v-152h-574zM829 565l-155 588l-22 126l-24 -126l-147 -588h348zM301 1704l325 300h209l323 -299l-126 -109l-302 185l-303 -185z" />
    <glyph glyph-name="Atilde" unicode="&#xc3;" horiz-adv-x="1465" 
d="M0 0zM-43 152l115 24l437 1349h442l438 -1350l107 -23v-152h-697v152l133 23l-58 217h-436l-56 -222l152 -18v-152h-574zM829 565l-155 588l-22 126l-24 -126l-147 -588h348zM244 1793q18 32 46 69.5t68 70t93 54t121 21.5q45 0 82.5 -11t69.5 -28t60.5 -36.5t56 -36.5
t55 -28t58.5 -11q34 0 58.5 9t43 23.5t32.5 31.5t28 33l107 -108q-23 -41 -52 -80t-66.5 -70t-85.5 -49.5t-108 -18.5q-66 0 -118 23.5t-98 52t-89.5 52t-92.5 23.5q-30 0 -54.5 -10t-44.5 -24.5t-35.5 -31.5t-28.5 -30z" />
    <glyph glyph-name="Adieresis" unicode="&#xc4;" horiz-adv-x="1465" 
d="M0 0zM-43 152l115 24l437 1349h442l438 -1350l107 -23v-152h-697v152l133 23l-58 217h-436l-56 -222l152 -18v-152h-574zM829 565l-155 588l-22 126l-24 -126l-147 -588h348zM976 1626q-36 0 -65.5 16t-51 40.5t-33.5 55t-12 60.5q0 43 11.5 80t35.5 64.5t61 43t88 15.5
h1q48 0 83 -14t57 -37t32.5 -54t10.5 -65q0 -43 -12.5 -80.5t-38.5 -65t-67.5 -43.5t-98.5 -16h-1zM426 1626q-36 0 -65.5 14t-50.5 37.5t-33 54.5t-12 66q0 43 11.5 80t35.5 64.5t61 43t88 15.5h1q48 0 82.5 -14t56.5 -37t32.5 -54t10.5 -65q0 -43 -12.5 -80.5t-39 -65
t-67.5 -43.5t-98 -16h-1z" />
    <glyph glyph-name="Aring" unicode="&#xc5;" horiz-adv-x="1465" 
d="M-45 152l115 24l431 1332q-41 19 -68 44.5t-43 56.5t-22.5 65.5t-5.5 70.5q1 63 29 112.5t78.5 84.5t121 53.5t157.5 18.5h1q103 0 172.5 -22t112 -59.5t60 -87.5t17.5 -107q-2 -78 -42 -136t-115 -92l433 -1335l107 -23v-152h-697v152l133 23l-58 217h-436l-56 -222
l152 -18v-152h-574zM737 1598q45 0 74 9.5t46 27t23.5 42t6.5 54.5t-7 57t-24.5 48t-46 33.5t-71.5 12.5h-1q-44 0 -73.5 -10.5t-46.5 -29t-24 -44t-7 -55.5q0 -26 7.5 -52t25 -46.5t46.5 -33.5t71 -13h1zM827 565l-155 588l-22 126l-24 -126l-147 -588h348z" />
    <glyph glyph-name="AE" unicode="&#xc6;" horiz-adv-x="1965" 
d="M-159 150l143 25l466 1155l-255 30v162h1626l28 -384h-185l-74 210l-359 26v-511l206 7l38 164h155v-534h-154l-37 177l-208 7v-528l389 31l134 267l226 -62l-66 -392h-1248v150l151 24v236h-436l-82 -236l150 -24v-150h-608v150zM817 590v765h-111l-98 -295l-164 -470
h373z" />
    <glyph glyph-name="Ccedilla" unicode="&#xc7;" horiz-adv-x="1364" 
d="M501 -296q21 -7 46 -10t36 -3h1q33 0 58.5 4t43 18t26 42t8.5 75q0 40 -15.5 81.5t-32.5 70.5q-159 15 -277 75.5t-195.5 158.5t-115.5 231t-38 293q0 191 57.5 339.5t160.5 250.5t244 155t308 53q78 0 152.5 -7t140 -15.5t117.5 -15.5t84 -7l-27 -502h-259l-78 343
q-7 7 -18 14.5t-28 13.5t-42 10t-59 4q-66 0 -119 -36t-90 -110.5t-57 -188.5t-20 -269q0 -143 18.5 -259.5t55 -199t91 -127.5t127.5 -45q39 0 66.5 5t47 13t32 18.5t23.5 22.5l98 230l234 -20l-33 -354q-50 -6 -93 -17t-90 -23t-103 -22.5t-132 -14.5q19 -21 40 -50
t39 -64.5t29 -76.5t9 -85q-4 -71 -27 -117.5t-64.5 -74.5t-100.5 -39.5t-135 -11.5h-1q-17 0 -37 2.5t-39.5 6.5t-37 9.5t-30.5 11.5l1 214v0z" />
    <glyph glyph-name="Egrave" unicode="&#xc8;" horiz-adv-x="1351" 
d="M54 0zM697 1593q-30 8 -81.5 33.5t-108.5 61.5t-111.5 79t-90.5 87l242 160h1l295 -319l-145 -102h-1v0zM60 152l149 23v1154l-155 31v162h1156l28 -384h-185l-77 210l-351 25v-510l205 5l39 166h154v-534h-154l-37 179l-207 5v-528l384 31l132 267l201 -55l-44 -399
h-1238v152z" />
    <glyph glyph-name="Eacute" unicode="&#xc9;" horiz-adv-x="1351" 
d="M54 0zM516 1695l295 319h1l242 -160q-48 -50 -105.5 -94.5t-113 -79.5t-102 -57.5t-72.5 -29.5h-1zM60 152l149 23v1154l-155 31v162h1156l28 -384h-185l-77 210l-351 25v-510l205 5l39 166h154v-534h-154l-37 179l-207 5v-528l384 31l132 267l201 -55l-44 -399h-1238
v152z" />
    <glyph glyph-name="Ecircumflex" unicode="&#xca;" horiz-adv-x="1351" 
d="M54 0zM60 152l149 23v1154l-155 31v162h1156l28 -384h-185l-77 210l-351 25v-510l205 5l39 166h154v-534h-154l-37 179l-207 5v-528l384 31l132 267l201 -55l-44 -399h-1238v152zM269 1704l325 300h209l323 -299l-126 -109l-302 185l-303 -185z" />
    <glyph glyph-name="Edieresis" unicode="&#xcb;" horiz-adv-x="1351" 
d="M54 0zM947 1626q-36 0 -65.5 16t-51 40.5t-33.5 55t-12 60.5q0 43 11.5 80t35.5 64.5t61 43t88 15.5h1q48 0 83 -14t57 -37t32.5 -54t10.5 -65q0 -43 -12.5 -80.5t-38.5 -65t-67.5 -43.5t-98.5 -16h-1zM397 1626q-36 0 -65.5 14t-50.5 37.5t-33 54.5t-12 66q0 43 11.5 80
t35.5 64.5t61 43t88 15.5h1q48 0 82.5 -14t56.5 -37t32.5 -54t10.5 -65q0 -43 -12.5 -80.5t-39 -65t-67.5 -43.5t-98 -16h-1zM60 152l149 23v1154l-155 31v162h1156l28 -384h-185l-77 210l-351 25v-510l205 5l39 166h154v-534h-154l-37 179l-207 5v-528l384 31l132 267
l201 -55l-44 -399h-1238v152z" />
    <glyph glyph-name="Igrave" unicode="&#xcc;" 
d="M52 0zM74 152l153 24v1154l-156 30v162h734v-162l-162 -30v-1155l162 -25v-150h-731v152zM444 1593q-30 8 -81.5 33.5t-108.5 61.5t-111.5 79t-90.5 87l242 160h1l295 -319l-145 -102h-1v0z" />
    <glyph glyph-name="Iacute" unicode="&#xcd;" 
d="M71 0zM74 152l153 24v1154l-156 30v162h734v-162l-162 -30v-1155l162 -25v-150h-731v152zM273 1695l295 319h1l242 -160q-48 -50 -105.5 -94.5t-113 -79.5t-102 -57.5t-72.5 -29.5h-1z" />
    <glyph glyph-name="Icircumflex" unicode="&#xce;" 
d="M0 0zM74 152l153 24v1154l-156 30v162h734v-162l-162 -30v-1155l162 -25v-150h-731v152zM-1 1704l325 300h209l323 -299l-126 -109l-302 185l-303 -185z" />
    <glyph glyph-name="Idieresis" unicode="&#xcf;" 
d="M0 0zM74 152l153 24v1154l-156 30v162h734v-162l-162 -30v-1155l162 -25v-150h-731v152zM678 1626q-36 0 -65.5 16t-51 40.5t-33.5 55t-12 60.5q0 43 11.5 80t35.5 64.5t61 43t88 15.5h1q48 0 83 -14t57 -37t32.5 -54t10.5 -65q0 -43 -12.5 -80.5t-38.5 -65t-67.5 -43.5
t-98.5 -16h-1zM128 1626q-36 0 -65.5 14t-50.5 37.5t-33 54.5t-12 66q0 43 11.5 80t35.5 64.5t61 43t88 15.5h1q48 0 82.5 -14t56.5 -37t32.5 -54t10.5 -65q0 -43 -12.5 -80.5t-39 -65t-67.5 -43.5t-98 -16h-1z" />
    <glyph glyph-name="Eth" unicode="&#xd0;" horiz-adv-x="1568" 
d="M60 152l149 24v530h-136v158h136v466l-145 30v162h346q50 0 94 1.5t86 4t85 4t92 1.5q187 0 328 -47t235.5 -137.5t141.5 -224t47 -307.5q0 -179 -52.5 -333t-152.5 -266.5t-245.5 -175t-332.5 -58.5q-42 1 -88.5 3.5t-90 5.5t-81.5 5t-62 2h-354v152zM618 171
q22 -11 55 -16t70 -5q76 0 135.5 34t101 107.5t63 189.5t21.5 281q0 130 -16.5 242t-56 194.5t-104 130t-160.5 47.5q-47 0 -73 -7.5t-36 -9.5v-495h250v-158h-250v-535z" />
    <glyph glyph-name="Ntilde" unicode="&#xd1;" horiz-adv-x="1661" 
d="M55 0zM361 1793q18 32 46 69.5t68 70t93 54t121 21.5q45 0 82.5 -11t69.5 -28t60.5 -36.5t56 -36.5t55 -28t58.5 -11q34 0 58.5 9t43 23.5t32.5 31.5t28 33l107 -108q-23 -41 -52 -80t-66.5 -70t-85.5 -49.5t-108 -18.5q-66 0 -118 23.5t-98 52t-89.5 52t-92.5 23.5
q-30 0 -54.5 -10t-44.5 -24.5t-35.5 -31.5t-28.5 -30zM55 152l160 23v1156l-160 29v162h579l510 -810l116 -260v879l-173 29v162h544v-162l-151 -29v-1331h-369l-553 893l-123 270v-987l227 -24v-152h-607v152z" />
    <glyph glyph-name="Ograve" unicode="&#xd2;" horiz-adv-x="1516" 
d="M53 0zM787 1593q-30 8 -81.5 33.5t-108.5 61.5t-111.5 79t-90.5 87l242 160h1l295 -319l-145 -102h-1v0zM750 -23q-190 -1 -322.5 55.5t-216 160t-121 248t-37.5 320.5q0 178 49 323t141 247t224 157t299 55q190 -1 322.5 -54t216 -150.5t121 -236.5t37.5 -312
q0 -179 -49 -328t-141.5 -256.5t-224.5 -167.5t-298 -61zM756 128q121 0 186 169t65 492q0 175 -17 291.5t-49.5 185.5t-78.5 97.5t-103 28.5q-122 0 -186.5 -153.5t-64.5 -475.5q0 -176 17 -297t49.5 -196t78.5 -108.5t103 -33.5z" />
    <glyph glyph-name="Oacute" unicode="&#xd3;" horiz-adv-x="1516" 
d="M53 0zM599 1695l295 319h1l242 -160q-48 -50 -105.5 -94.5t-113 -79.5t-102 -57.5t-72.5 -29.5h-1zM750 -23q-190 -1 -322.5 55.5t-216 160t-121 248t-37.5 320.5q0 178 49 323t141 247t224 157t299 55q190 -1 322.5 -54t216 -150.5t121 -236.5t37.5 -312
q0 -179 -49 -328t-141.5 -256.5t-224.5 -167.5t-298 -61zM756 128q121 0 186 169t65 492q0 175 -17 291.5t-49.5 185.5t-78.5 97.5t-103 28.5q-122 0 -186.5 -153.5t-64.5 -475.5q0 -176 17 -297t49.5 -196t78.5 -108.5t103 -33.5z" />
    <glyph glyph-name="Ocircumflex" unicode="&#xd4;" horiz-adv-x="1516" 
d="M53 0zM750 -23q-190 -1 -322.5 55.5t-216 160t-121 248t-37.5 320.5q0 178 49 323t141 247t224 157t299 55q190 -1 322.5 -54t216 -150.5t121 -236.5t37.5 -312q0 -179 -49 -328t-141.5 -256.5t-224.5 -167.5t-298 -61zM756 128q121 0 186 169t65 492q0 175 -17 291.5
t-49.5 185.5t-78.5 97.5t-103 28.5q-122 0 -186.5 -153.5t-64.5 -475.5q0 -176 17 -297t49.5 -196t78.5 -108.5t103 -33.5zM329 1704l325 300h209l323 -299l-126 -109l-302 185l-303 -185z" />
    <glyph glyph-name="Otilde" unicode="&#xd5;" horiz-adv-x="1516" 
d="M53 0zM270 1793q18 32 46 69.5t68 70t93 54t121 21.5q45 0 82.5 -11t69.5 -28t60.5 -36.5t56 -36.5t55 -28t58.5 -11q34 0 58.5 9t43 23.5t32.5 31.5t28 33l107 -108q-23 -41 -52 -80t-66.5 -70t-85.5 -49.5t-108 -18.5q-66 0 -118 23.5t-98 52t-89.5 52t-92.5 23.5
q-30 0 -54.5 -10t-44.5 -24.5t-35.5 -31.5t-28.5 -30zM750 -23q-190 -1 -322.5 55.5t-216 160t-121 248t-37.5 320.5q0 178 49 323t141 247t224 157t299 55q190 -1 322.5 -54t216 -150.5t121 -236.5t37.5 -312q0 -179 -49 -328t-141.5 -256.5t-224.5 -167.5t-298 -61z
M756 128q121 0 186 169t65 492q0 175 -17 291.5t-49.5 185.5t-78.5 97.5t-103 28.5q-122 0 -186.5 -153.5t-64.5 -475.5q0 -176 17 -297t49.5 -196t78.5 -108.5t103 -33.5z" />
    <glyph glyph-name="Odieresis" unicode="&#xd6;" horiz-adv-x="1516" 
d="M53 0zM1007 1626q-36 0 -65.5 16t-51 40.5t-33.5 55t-12 60.5q0 43 11.5 80t35.5 64.5t61 43t88 15.5h1q48 0 83 -14t57 -37t32.5 -54t10.5 -65q0 -43 -12.5 -80.5t-38.5 -65t-67.5 -43.5t-98.5 -16h-1zM457 1626q-36 0 -65.5 14t-50.5 37.5t-33 54.5t-12 66
q0 43 11.5 80t35.5 64.5t61 43t88 15.5h1q48 0 82.5 -14t56.5 -37t32.5 -54t10.5 -65q0 -43 -12.5 -80.5t-39 -65t-67.5 -43.5t-98 -16h-1zM750 -23q-190 -1 -322.5 55.5t-216 160t-121 248t-37.5 320.5q0 178 49 323t141 247t224 157t299 55q190 -1 322.5 -54t216 -150.5
t121 -236.5t37.5 -312q0 -179 -49 -328t-141.5 -256.5t-224.5 -167.5t-298 -61zM756 128q121 0 186 169t65 492q0 175 -17 291.5t-49.5 185.5t-78.5 97.5t-103 28.5q-122 0 -186.5 -153.5t-64.5 -475.5q0 -176 17 -297t49.5 -196t78.5 -108.5t103 -33.5z" />
    <glyph glyph-name="multiply" unicode="&#xd7;" horiz-adv-x="1276" 
d="M462 616l-342 320l206 203l314 -351l312 351l201 -201l-335 -322l335 -319l-201 -201l-312 349l-312 -349l-200 200z" />
    <glyph glyph-name="Oslash" unicode="&#xd8;" horiz-adv-x="1506" 
d="M374 55q-87 46 -149 115.5t-101 159.5t-57.5 198.5t-18.5 232.5q0 178 49 323t141 247t224 157t299 55q51 -1 97.5 -4.5t89.5 -11.5l90 235l171 -50l-91 -238q91 -42 155.5 -107.5t105.5 -152.5t60 -193.5t19 -230.5q0 -179 -49 -328t-141.5 -256.5t-224.5 -167.5
t-298 -61q-102 0 -190 17l-94 -243l-184 49zM897 1327q-29 35 -65 50t-78 15q-122 0 -186.5 -153.5t-64.5 -475.5q0 -136 10 -238t30 -176zM608 201q29 -38 65 -55.5t78 -17.5q121 0 186 169t65 492q0 128 -9.5 222.5t-26.5 163.5z" />
    <glyph glyph-name="Ugrave" unicode="&#xd9;" horiz-adv-x="1530" 
d="M24 0zM833 1593q-30 8 -81.5 33.5t-108.5 61.5t-111.5 79t-90.5 87l242 160h1l295 -319l-145 -102h-1v0zM143 1330l-119 30v162h719v-162l-170 -34v-751q0 -96 15 -175.5t49 -137t89 -89.5t136 -32q78 0 131.5 33.5t86 92t46.5 138t14 170.5v755l-179 30v162h560v-162
l-127 -30v-732q0 -167 -44.5 -283.5t-124 -190t-188.5 -107t-239 -33.5q-160 0 -282 35.5t-205 111t-125.5 194t-42.5 284.5v721z" />
    <glyph glyph-name="Uacute" unicode="&#xda;" horiz-adv-x="1530" 
d="M24 0zM646 1695l295 319h1l242 -160q-48 -50 -105.5 -94.5t-113 -79.5t-102 -57.5t-72.5 -29.5h-1zM143 1330l-119 30v162h719v-162l-170 -34v-751q0 -96 15 -175.5t49 -137t89 -89.5t136 -32q78 0 131.5 33.5t86 92t46.5 138t14 170.5v755l-179 30v162h560v-162
l-127 -30v-732q0 -167 -44.5 -283.5t-124 -190t-188.5 -107t-239 -33.5q-160 0 -282 35.5t-205 111t-125.5 194t-42.5 284.5v721z" />
    <glyph glyph-name="Ucircumflex" unicode="&#xdb;" horiz-adv-x="1530" 
d="M24 0zM143 1330l-119 30v162h719v-162l-170 -34v-751q0 -96 15 -175.5t49 -137t89 -89.5t136 -32q78 0 131.5 33.5t86 92t46.5 138t14 170.5v755l-179 30v162h560v-162l-127 -30v-732q0 -167 -44.5 -283.5t-124 -190t-188.5 -107t-239 -33.5q-160 0 -282 35.5t-205 111
t-125.5 194t-42.5 284.5v721zM385 1704l325 300h209l323 -299l-126 -109l-302 185l-303 -185z" />
    <glyph glyph-name="Udieresis" unicode="&#xdc;" horiz-adv-x="1530" 
d="M24 0zM1054 1626q-36 0 -65.5 16t-51 40.5t-33.5 55t-12 60.5q0 43 11.5 80t35.5 64.5t61 43t88 15.5h1q48 0 83 -14t57 -37t32.5 -54t10.5 -65q0 -43 -12.5 -80.5t-38.5 -65t-67.5 -43.5t-98.5 -16h-1zM504 1626q-36 0 -65.5 14t-50.5 37.5t-33 54.5t-12 66
q0 43 11.5 80t35.5 64.5t61 43t88 15.5h1q48 0 82.5 -14t56.5 -37t32.5 -54t10.5 -65q0 -43 -12.5 -80.5t-39 -65t-67.5 -43.5t-98 -16h-1zM143 1330l-119 30v162h719v-162l-170 -34v-751q0 -96 15 -175.5t49 -137t89 -89.5t136 -32q78 0 131.5 33.5t86 92t46.5 138
t14 170.5v755l-179 30v162h560v-162l-127 -30v-732q0 -167 -44.5 -283.5t-124 -190t-188.5 -107t-239 -33.5q-160 0 -282 35.5t-205 111t-125.5 194t-42.5 284.5v721z" />
    <glyph glyph-name="Yacute" unicode="&#xdd;" horiz-adv-x="1322" 
d="M0 0zM254 152l203 24v443l-406 712l-110 29v162h704v-162l-122 -31l208 -431l42 -122l43 120l183 434l-151 30v162h551v-162l-121 -25l-377 -715v-445l213 -23v-152h-860v152zM533 1695l295 319h1l242 -160q-48 -50 -105.5 -94.5t-113 -79.5t-102 -57.5t-72.5 -29.5h-1z
" />
    <glyph glyph-name="Thorn" unicode="&#xde;" horiz-adv-x="1397" 
d="M54 150l154 24v1156l-156 32v160h737l2 -161l-166 -31v-148q38 3 70 6.5t64.5 7t69 5.5t82.5 2q228 0 339 -100t111 -311q0 -122 -34.5 -211.5t-99.5 -148.5t-159 -88t-212 -29q-33 0 -67.5 1.5t-65.5 4t-57 5t-41 4.5v-155l205 -25v-150h-776v150zM625 475
q38 -8 75 -8.5t66 -0.5q35 0 64.5 22.5t51 64t33.5 99t12 126.5q0 49 -9.5 96.5t-31.5 85t-58.5 60.5t-89.5 23q-30 0 -62.5 -4.5t-50.5 -9.5v-554z" />
    <glyph glyph-name="germandbls" unicode="&#xdf;" horiz-adv-x="1393" 
d="M41 152l102 22v800q0 87 19.5 168.5t58 152.5t95 130t130 101t163.5 65.5t196 23.5q114 0 196 -19t134.5 -54.5t77.5 -85.5t25 -112q0 -58 -17 -98t-42 -69.5t-55 -51.5t-55 -44.5t-42 -48.5t-17 -62q0 -37 26.5 -70.5t65.5 -71t85.5 -80.5t85.5 -98t65.5 -125t26.5 -160
q0 -84 -30 -155t-93.5 -122.5t-162.5 -81t-237 -29.5q-15 0 -38.5 2t-48 5.5t-47.5 7.5t-38 8v186q20 -10 55.5 -18t71.5 -8q33 0 59.5 12.5t44.5 34t27.5 50t9.5 60.5q0 65 -18.5 114.5t-45.5 90t-59.5 75.5t-59.5 70.5t-45.5 75.5t-18.5 91q0 49 14 83t35 62.5t46 56
t46 63.5t35 85t14 121q0 42 -9.5 69.5t-26 44t-39 23.5t-48.5 7q-109 0 -161.5 -109t-52.5 -326v-1014h-503v152z" />
    <glyph glyph-name="agrave" unicode="&#xe0;" horiz-adv-x="1181" 
d="M40 0zM40 330q0 88 40 158.5t121.5 119.5t205.5 75.5t291 26.5v32q0 45 -6.5 77.5t-26 54.5t-56 32.5t-96.5 10.5q-61 0 -113.5 -8t-96 -20t-78 -25.5t-59.5 -23.5h-1l-79 168q21 16 69 43t117 53t156 44.5t187 18.5q130 0 216 -24t138 -76t73.5 -133.5t21.5 -195.5v-586
h100v-148q-19 -4 -55 -9t-79 -9.5t-88 -8t-81 -3.5q-45 0 -73.5 6.5t-44 20.5t-21 37.5t-5.5 57.5v38q-20 -28 -50.5 -56t-71.5 -50.5t-92.5 -36.5t-113.5 -14q-71 0 -134.5 24t-111 69t-75.5 110.5t-28 149.5zM453 374q0 -41 8.5 -74.5t25 -58.5t40.5 -38.5t55 -13.5
q29 0 62 16t54 40v315q-70 0 -117 -16t-75.5 -42.5t-40.5 -59.5t-12 -68zM621 1286q-48 18 -112.5 59t-129 93t-119.5 109.5t-85 108.5l217 199h1l380 -452l-149 -117h-3v0z" />
    <glyph glyph-name="aacute" unicode="&#xe1;" horiz-adv-x="1181" 
d="M40 0zM40 330q0 88 40 158.5t121.5 119.5t205.5 75.5t291 26.5v32q0 45 -6.5 77.5t-26 54.5t-56 32.5t-96.5 10.5q-61 0 -113.5 -8t-96 -20t-78 -25.5t-59.5 -23.5h-1l-79 168q21 16 69 43t117 53t156 44.5t187 18.5q130 0 216 -24t138 -76t73.5 -133.5t21.5 -195.5v-586
h100v-148q-19 -4 -55 -9t-79 -9.5t-88 -8t-81 -3.5q-45 0 -73.5 6.5t-44 20.5t-21 37.5t-5.5 57.5v38q-20 -28 -50.5 -56t-71.5 -50.5t-92.5 -36.5t-113.5 -14q-71 0 -134.5 24t-111 69t-75.5 110.5t-28 149.5zM453 374q0 -41 8.5 -74.5t25 -58.5t40.5 -38.5t55 -13.5
q29 0 62 16t54 40v315q-70 0 -117 -16t-75.5 -42.5t-40.5 -59.5t-12 -68zM367 1403l381 452h1l217 -199q-20 -34 -52 -71.5t-71 -74.5t-82.5 -72t-86.5 -65t-83 -52.5t-72 -34.5h-2z" />
    <glyph glyph-name="acircumflex" unicode="&#xe2;" horiz-adv-x="1181" 
d="M40 0zM40 330q0 88 40 158.5t121.5 119.5t205.5 75.5t291 26.5v32q0 45 -6.5 77.5t-26 54.5t-56 32.5t-96.5 10.5q-61 0 -113.5 -8t-96 -20t-78 -25.5t-59.5 -23.5h-1l-79 168q21 16 69 43t117 53t156 44.5t187 18.5q130 0 216 -24t138 -76t73.5 -133.5t21.5 -195.5v-586
h100v-148q-19 -4 -55 -9t-79 -9.5t-88 -8t-81 -3.5q-45 0 -73.5 6.5t-44 20.5t-21 37.5t-5.5 57.5v38q-20 -28 -50.5 -56t-71.5 -50.5t-92.5 -36.5t-113.5 -14q-71 0 -134.5 24t-111 69t-75.5 110.5t-28 149.5zM453 374q0 -41 8.5 -74.5t25 -58.5t40.5 -38.5t55 -13.5
q29 0 62 16t54 40v315q-70 0 -117 -16t-75.5 -42.5t-40.5 -59.5t-12 -68zM162 1398l324 403h198l330 -402l-126 -109l-301 238l-303 -239z" />
    <glyph glyph-name="atilde" unicode="&#xe3;" horiz-adv-x="1181" 
d="M40 0zM40 330q0 88 40 158.5t121.5 119.5t205.5 75.5t291 26.5v32q0 45 -6.5 77.5t-26 54.5t-56 32.5t-96.5 10.5q-61 0 -113.5 -8t-96 -20t-78 -25.5t-59.5 -23.5h-1l-79 168q21 16 69 43t117 53t156 44.5t187 18.5q130 0 216 -24t138 -76t73.5 -133.5t21.5 -195.5v-586
h100v-148q-19 -4 -55 -9t-79 -9.5t-88 -8t-81 -3.5q-45 0 -73.5 6.5t-44 20.5t-21 37.5t-5.5 57.5v38q-20 -28 -50.5 -56t-71.5 -50.5t-92.5 -36.5t-113.5 -14q-71 0 -134.5 24t-111 69t-75.5 110.5t-28 149.5zM453 374q0 -41 8.5 -74.5t25 -58.5t40.5 -38.5t55 -13.5
q29 0 62 16t54 40v315q-70 0 -117 -16t-75.5 -42.5t-40.5 -59.5t-12 -68zM109 1485q18 32 45.5 72t67 75t92 59t120.5 24q45 0 81.5 -11.5t67.5 -29.5t58 -38t53 -38t53 -29.5t58 -11.5q30 0 53.5 8t42.5 20t34 26.5t27 27.5l107 -95q-20 -34 -47 -74t-65.5 -74.5t-89 -57.5
t-116.5 -23q-44 0 -80 11.5t-66.5 29.5t-58 38t-54.5 38t-55.5 29.5t-61.5 11.5q-29 0 -53 -8t-43.5 -20t-35 -26.5t-28.5 -27.5z" />
    <glyph glyph-name="adieresis" unicode="&#xe4;" horiz-adv-x="1181" 
d="M40 0zM40 330q0 88 40 158.5t121.5 119.5t205.5 75.5t291 26.5v32q0 45 -6.5 77.5t-26 54.5t-56 32.5t-96.5 10.5q-61 0 -113.5 -8t-96 -20t-78 -25.5t-59.5 -23.5h-1l-79 168q21 16 69 43t117 53t156 44.5t187 18.5q130 0 216 -24t138 -76t73.5 -133.5t21.5 -195.5v-586
h100v-148q-19 -4 -55 -9t-79 -9.5t-88 -8t-81 -3.5q-45 0 -73.5 6.5t-44 20.5t-21 37.5t-5.5 57.5v38q-20 -28 -50.5 -56t-71.5 -50.5t-92.5 -36.5t-113.5 -14q-71 0 -134.5 24t-111 69t-75.5 110.5t-28 149.5zM453 374q0 -41 8.5 -74.5t25 -58.5t40.5 -38.5t55 -13.5
q29 0 62 16t54 40v315q-70 0 -117 -16t-75.5 -42.5t-40.5 -59.5t-12 -68zM822 1324q-36 0 -65.5 16.5t-50.5 42t-33 57t-12 62.5q0 45 11.5 83t35.5 66.5t61 44.5t88 16h1q48 0 82.5 -14t56.5 -38.5t32.5 -56.5t10.5 -68q0 -45 -12.5 -83.5t-38.5 -67t-67.5 -44.5t-98.5 -16
h-1zM295 1324q-36 0 -66 14.5t-51.5 38.5t-33.5 56.5t-12 68.5q0 45 12 83t36 66.5t61 44.5t87 16h1q48 0 82.5 -14t57 -38.5t33 -56.5t10.5 -68q0 -45 -12.5 -83.5t-39 -67t-67 -44.5t-97.5 -16h-1z" />
    <glyph glyph-name="aring" unicode="&#xe5;" horiz-adv-x="1181" 
d="M40 0zM40 330q0 88 40 158.5t121.5 119.5t205.5 75.5t291 26.5v32q0 45 -6.5 77.5t-26 54.5t-56 32.5t-96.5 10.5q-61 0 -113.5 -8t-96 -20t-78 -25.5t-59.5 -23.5h-1l-79 168q21 16 69 43t117 53t156 44.5t187 18.5q130 0 216 -24t138 -76t73.5 -133.5t21.5 -195.5v-586
h100v-148q-19 -4 -55 -9t-79 -9.5t-88 -8t-81 -3.5q-45 0 -73.5 6.5t-44 20.5t-21 37.5t-5.5 57.5v38q-20 -28 -50.5 -56t-71.5 -50.5t-92.5 -36.5t-113.5 -14q-71 0 -134.5 24t-111 69t-75.5 110.5t-28 149.5zM453 374q0 -41 8.5 -74.5t25 -58.5t40.5 -38.5t55 -13.5
q29 0 62 16t54 40v315q-70 0 -117 -16t-75.5 -42.5t-40.5 -59.5t-12 -68zM576 1282q-103 0 -174 24.5t-115 66.5t-63 98.5t-18 120.5q1 75 33 131.5t85.5 94.5t123 57t145.5 19h1q95 0 163.5 -23t112.5 -64t65 -97.5t21 -123.5q-1 -73 -30 -129.5t-80 -95.5t-120 -59
t-149 -20h-1zM582 1438q89 0 125.5 34t36.5 106q0 34 -9 63t-28.5 50t-50 32.5t-73.5 11.5h-1q-89 0 -126 -36t-37 -107q0 -32 9.5 -60t29 -49t50.5 -33t73 -12h1z" />
    <glyph glyph-name="ae" unicode="&#xe6;" horiz-adv-x="1778" 
d="M41 318q0 184 165 287t499 105v28q0 40 -7.5 72t-29.5 54t-61.5 33.5t-102.5 11.5q-59 0 -109.5 -7t-93.5 -17.5t-80 -23t-68 -24.5l-80 170q22 19 71 46t119.5 52.5t159 43.5t188.5 18q123 0 198 -22t117 -69q136 91 336 91q116 0 202.5 -29t144.5 -83t87.5 -132
t30.5 -176q0 -73 -4.5 -125.5t-12.5 -94.5h-620q14 -162 80.5 -237t187.5 -75q40 0 82.5 7.5t82 18.5t73.5 24.5t58 25.5l62 -139q-21 -24 -66 -54t-106 -57t-134.5 -45.5t-150.5 -18.5q-169 0 -282 52t-178 145q-30 -45 -74.5 -81.5t-99 -62t-115.5 -39.5t-123 -14
q-71 0 -133.5 22t-110 64.5t-75 106.5t-27.5 148zM1344 676q0 7 0.5 18.5t1 23.5t0.5 23.5v18.5q0 57 -5 103.5t-18 79.5t-35.5 50.5t-56.5 17.5q-32 0 -58.5 -12t-45.5 -47.5t-30 -101.5t-12 -174h259zM468 372q0 -96 32 -139.5t85 -43.5q46 0 88.5 27t68.5 65
q-24 63 -35 134t-11 151q-68 -2 -112 -19.5t-70 -45.5t-36 -62t-10 -67z" />
    <glyph glyph-name="ccedilla" unicode="&#xe7;" horiz-adv-x="1077" 
d="M352 -296q21 -7 46 -10t36 -3h1q33 0 58.5 4t43 18t26 42t8.5 75q0 40 -15.5 81t-31.5 70q-125 12 -213.5 60t-144.5 124.5t-82.5 177.5t-26.5 220q0 144 45 256.5t124.5 190t188.5 118t237 40.5q80 0 138 -9.5t101 -20.5t74.5 -21t58.5 -11l-17 -399h-243l-57 249
q-6 26 -28.5 36t-46.5 10q-32 0 -59.5 -16t-48 -58t-32.5 -115.5t-12 -189.5q-1 -204 54.5 -309t157.5 -105q48 0 87 6t72 16t61 23t52 27l63 -139q-14 -16 -42 -39t-70 -46t-96 -42.5t-118 -29.5q19 -20 41.5 -49.5t41 -66t30 -79t9.5 -87.5q-4 -71 -27 -117.5t-64.5 -74.5
t-100.5 -39.5t-135 -11.5h-1q-17 0 -37 2.5t-39.5 6.5t-37 9.5t-30.5 11.5l1 214v0z" />
    <glyph glyph-name="egrave" unicode="&#xe8;" horiz-adv-x="1144" 
d="M53 0zM53 567q0 146 40 258t114.5 188t180.5 115t238 39q115 0 201.5 -29t144.5 -83t87.5 -132t31.5 -176q0 -73 -5.5 -125.5t-13.5 -94.5h-612q15 -162 81.5 -237t187.5 -75q39 0 79.5 7.5t78.5 19.5t70.5 25.5t55.5 25.5l66 -141q-21 -24 -66 -54t-106 -57t-134 -45.5
t-151 -18.5q-156 0 -264.5 43.5t-176 122t-98 187t-30.5 237.5zM715 676v18.5t0.5 23.5t0.5 23.5v18.5q0 59 -5 105.5t-18 79t-35.5 49.5t-56.5 17q-32 0 -58 -12t-45 -48t-30 -101.5t-12 -173.5h259zM631 1286q-48 18 -112.5 59t-129 93t-119.5 109.5t-85 108.5l217 199h1
l380 -452l-149 -117h-3v0z" />
    <glyph glyph-name="eacute" unicode="&#xe9;" horiz-adv-x="1144" 
d="M53 0zM377 1403l381 452h1l217 -199q-20 -34 -52 -71.5t-71 -74.5t-82.5 -72t-86.5 -65t-83 -52.5t-72 -34.5h-2zM53 567q0 146 40 258t114.5 188t180.5 115t238 39q115 0 201.5 -29t144.5 -83t87.5 -132t31.5 -176q0 -73 -5.5 -125.5t-13.5 -94.5h-612
q15 -162 81.5 -237t187.5 -75q39 0 79.5 7.5t78.5 19.5t70.5 25.5t55.5 25.5l66 -141q-21 -24 -66 -54t-106 -57t-134 -45.5t-151 -18.5q-156 0 -264.5 43.5t-176 122t-98 187t-30.5 237.5zM715 676v18.5t0.5 23.5t0.5 23.5v18.5q0 59 -5 105.5t-18 79t-35.5 49.5t-56.5 17
q-32 0 -58 -12t-45 -48t-30 -101.5t-12 -173.5h259z" />
    <glyph glyph-name="ecircumflex" unicode="&#xea;" horiz-adv-x="1144" 
d="M53 0zM171 1398l324 403h198l330 -402l-126 -109l-301 238l-303 -239zM53 567q0 146 40 258t114.5 188t180.5 115t238 39q115 0 201.5 -29t144.5 -83t87.5 -132t31.5 -176q0 -73 -5.5 -125.5t-13.5 -94.5h-612q15 -162 81.5 -237t187.5 -75q39 0 79.5 7.5t78.5 19.5
t70.5 25.5t55.5 25.5l66 -141q-21 -24 -66 -54t-106 -57t-134 -45.5t-151 -18.5q-156 0 -264.5 43.5t-176 122t-98 187t-30.5 237.5zM715 676v18.5t0.5 23.5t0.5 23.5v18.5q0 59 -5 105.5t-18 79t-35.5 49.5t-56.5 17q-32 0 -58 -12t-45 -48t-30 -101.5t-12 -173.5h259z" />
    <glyph glyph-name="edieresis" unicode="&#xeb;" horiz-adv-x="1144" 
d="M53 0zM836 1324q-36 0 -65.5 16.5t-50.5 42t-33 57t-12 62.5q0 45 11.5 83t35.5 66.5t61 44.5t88 16h1q48 0 82.5 -14t56.5 -38.5t32.5 -56.5t10.5 -68q0 -45 -12.5 -83.5t-38.5 -67t-67.5 -44.5t-98.5 -16h-1zM309 1324q-36 0 -66 14.5t-51.5 38.5t-33.5 56.5t-12 68.5
q0 45 12 83t36 66.5t61 44.5t87 16h1q48 0 82.5 -14t57 -38.5t33 -56.5t10.5 -68q0 -45 -12.5 -83.5t-39 -67t-67 -44.5t-97.5 -16h-1zM53 567q0 146 40 258t114.5 188t180.5 115t238 39q115 0 201.5 -29t144.5 -83t87.5 -132t31.5 -176q0 -73 -5.5 -125.5t-13.5 -94.5h-612
q15 -162 81.5 -237t187.5 -75q39 0 79.5 7.5t78.5 19.5t70.5 25.5t55.5 25.5l66 -141q-21 -24 -66 -54t-106 -57t-134 -45.5t-151 -18.5q-156 0 -264.5 43.5t-176 122t-98 187t-30.5 237.5zM715 676v18.5t0.5 23.5t0.5 23.5v18.5q0 59 -5 105.5t-18 79t-35.5 49.5t-56.5 17
q-32 0 -58 -12t-45 -48t-30 -101.5t-12 -173.5h259z" />
    <glyph glyph-name="igrave" unicode="&#xec;" horiz-adv-x="751" 
d="M0 0zM81 152l112 20v723l-131 40v177l456 55h5l68 -47v-948l106 -20v-152h-616v152zM403 1286q-48 18 -112.5 59t-129 93t-119.5 109.5t-85 108.5l217 199h1l380 -452l-149 -117h-3v0z" />
    <glyph glyph-name="iacute" unicode="&#xed;" horiz-adv-x="751" 
d="M62 0zM149 1403l381 452h1l217 -199q-20 -34 -52 -71.5t-71 -74.5t-82.5 -72t-86.5 -65t-83 -52.5t-72 -34.5h-2zM81 152l112 20v723l-131 40v177l456 55h5l68 -47v-948l106 -20v-152h-616v152z" />
    <glyph glyph-name="icircumflex" unicode="&#xee;" horiz-adv-x="751" 
d="M0 0zM-56 1398l324 403h198l330 -402l-126 -109l-301 238l-303 -239zM81 152l112 20v723l-131 40v177l456 55h5l68 -47v-948l106 -20v-152h-616v152z" />
    <glyph glyph-name="idieresis" unicode="&#xef;" horiz-adv-x="751" 
d="M0 0zM609 1324q-36 0 -65.5 16.5t-50.5 42t-33 57t-12 62.5q0 45 11.5 83t35.5 66.5t61 44.5t88 16h1q48 0 82.5 -14t56.5 -38.5t32.5 -56.5t10.5 -68q0 -45 -12.5 -83.5t-38.5 -67t-67.5 -44.5t-98.5 -16h-1zM82 1324q-36 0 -66 14.5t-51.5 38.5t-33.5 56.5t-12 68.5
q0 45 12 83t36 66.5t61 44.5t87 16h1q48 0 82.5 -14t57 -38.5t33 -56.5t10.5 -68q0 -45 -12.5 -83.5t-39 -67t-67 -44.5t-97.5 -16h-1zM81 152l112 20v723l-131 40v177l456 55h5l68 -47v-948l106 -20v-152h-616v152z" />
    <glyph glyph-name="eth" unicode="&#xf0;" horiz-adv-x="1260" 
d="M60 554q0 159 46 275t120.5 191t168.5 111.5t191 36.5q59 0 102 -8.5t73 -20.5q-24 106 -84 184t-146 139l-125 -173l-154 104l135 172q-62 38 -116.5 64t-88.5 34l66 158q51 -11 118.5 -29t154.5 -58q23 31 45.5 61.5t40.5 54.5q21 28 40 54l147 -112q-17 -22 -36 -47
q-17 -21 -37.5 -47.5t-42.5 -53.5q102 -69 198 -163.5t169.5 -214.5t118 -265t44.5 -316q0 -83 -12 -167.5t-39.5 -163t-72 -147.5t-110 -120t-153.5 -80.5t-202 -29.5q-134 0 -238 41t-175.5 117t-108.5 182t-37 237zM639 140q36 0 65.5 23t50.5 78.5t32 148.5t11 234
q0 57 -3.5 110.5t-9 99.5t-11.5 80.5t-12 53.5q-6 5 -16.5 13t-26.5 15t-36.5 12t-45.5 5q-36 0 -64 -21t-47 -70t-29 -128t-10 -196q0 -87 8 -169.5t26 -146.5t47 -103t71 -39z" />
    <glyph glyph-name="ntilde" unicode="&#xf1;" horiz-adv-x="1443" 
d="M85 0zM91 152l103 20v723l-109 39v184l413 49h5l60 -47v-69l-2 -48q32 31 74.5 60t93.5 51t111 35t126 13q88 0 150.5 -22.5t102.5 -74t59 -135.5t19 -206v-551l100 -19v-154h-592v152l85 21v550q0 64 -6 106.5t-20.5 68t-38.5 36t-60 10.5q-29 0 -54 -7.5t-46 -18
t-37.5 -22.5t-28.5 -22v-702l100 -20v-152h-608v152zM270 1485q18 32 45.5 72t67 75t92 59t120.5 24q45 0 81.5 -11.5t67.5 -29.5t58 -38t53 -38t53 -29.5t58 -11.5q30 0 53.5 8t42.5 20t34 26.5t27 27.5l107 -95q-20 -34 -47 -74t-65.5 -74.5t-89 -57.5t-116.5 -23
q-44 0 -80 11.5t-66.5 29.5t-58 38t-54.5 38t-55.5 29.5t-61.5 11.5q-29 0 -53 -8t-43.5 -20t-35 -26.5t-28.5 -27.5z" />
    <glyph glyph-name="ograve" unicode="&#xf2;" horiz-adv-x="1270" 
d="M54 0zM54 559q0 158 47.5 273t129.5 189.5t190 110.5t230 36q124 0 228 -36t179 -109t117 -182t42 -255q0 -165 -47.5 -280.5t-129 -188.5t-190 -106.5t-230.5 -33.5q-123 0 -227 36.5t-179 109t-117.5 181.5t-42.5 255zM643 134q38 0 65.5 24t45.5 75t27 131.5t9 193.5
q0 121 -8 207t-27 140.5t-49 80t-73 25.5q-38 0 -66.5 -24t-48 -75t-29.5 -131.5t-10 -193.5q0 -121 9.5 -207t29.5 -140.5t51 -80t74 -25.5zM666 1286q-48 18 -112.5 59t-129 93t-119.5 109.5t-85 108.5l217 199h1l380 -452l-149 -117h-3v0z" />
    <glyph glyph-name="oacute" unicode="&#xf3;" horiz-adv-x="1270" 
d="M54 0zM412 1403l381 452h1l217 -199q-20 -34 -52 -71.5t-71 -74.5t-82.5 -72t-86.5 -65t-83 -52.5t-72 -34.5h-2zM54 559q0 158 47.5 273t129.5 189.5t190 110.5t230 36q124 0 228 -36t179 -109t117 -182t42 -255q0 -165 -47.5 -280.5t-129 -188.5t-190 -106.5
t-230.5 -33.5q-123 0 -227 36.5t-179 109t-117.5 181.5t-42.5 255zM643 134q38 0 65.5 24t45.5 75t27 131.5t9 193.5q0 121 -8 207t-27 140.5t-49 80t-73 25.5q-38 0 -66.5 -24t-48 -75t-29.5 -131.5t-10 -193.5q0 -121 9.5 -207t29.5 -140.5t51 -80t74 -25.5z" />
    <glyph glyph-name="ocircumflex" unicode="&#xf4;" horiz-adv-x="1270" 
d="M54 0zM206 1398l324 403h198l330 -402l-126 -109l-301 238l-303 -239zM54 559q0 158 47.5 273t129.5 189.5t190 110.5t230 36q124 0 228 -36t179 -109t117 -182t42 -255q0 -165 -47.5 -280.5t-129 -188.5t-190 -106.5t-230.5 -33.5q-123 0 -227 36.5t-179 109
t-117.5 181.5t-42.5 255zM643 134q38 0 65.5 24t45.5 75t27 131.5t9 193.5q0 121 -8 207t-27 140.5t-49 80t-73 25.5q-38 0 -66.5 -24t-48 -75t-29.5 -131.5t-10 -193.5q0 -121 9.5 -207t29.5 -140.5t51 -80t74 -25.5z" />
    <glyph glyph-name="otilde" unicode="&#xf5;" horiz-adv-x="1270" 
d="M54 0zM54 559q0 158 47.5 273t129.5 189.5t190 110.5t230 36q124 0 228 -36t179 -109t117 -182t42 -255q0 -165 -47.5 -280.5t-129 -188.5t-190 -106.5t-230.5 -33.5q-123 0 -227 36.5t-179 109t-117.5 181.5t-42.5 255zM643 134q38 0 65.5 24t45.5 75t27 131.5t9 193.5
q0 121 -8 207t-27 140.5t-49 80t-73 25.5q-38 0 -66.5 -24t-48 -75t-29.5 -131.5t-10 -193.5q0 -121 9.5 -207t29.5 -140.5t51 -80t74 -25.5zM154 1485q18 32 45.5 72t67 75t92 59t120.5 24q45 0 81.5 -11.5t67.5 -29.5t58 -38t53 -38t53 -29.5t58 -11.5q30 0 53.5 8
t42.5 20t34 26.5t27 27.5l107 -95q-20 -34 -47 -74t-65.5 -74.5t-89 -57.5t-116.5 -23q-44 0 -80 11.5t-66.5 29.5t-58 38t-54.5 38t-55.5 29.5t-61.5 11.5q-29 0 -53 -8t-43.5 -20t-35 -26.5t-28.5 -27.5z" />
    <glyph glyph-name="odieresis" unicode="&#xf6;" horiz-adv-x="1270" 
d="M54 0zM871 1324q-36 0 -65.5 16.5t-50.5 42t-33 57t-12 62.5q0 45 11.5 83t35.5 66.5t61 44.5t88 16h1q48 0 82.5 -14t56.5 -38.5t32.5 -56.5t10.5 -68q0 -45 -12.5 -83.5t-38.5 -67t-67.5 -44.5t-98.5 -16h-1zM344 1324q-36 0 -66 14.5t-51.5 38.5t-33.5 56.5t-12 68.5
q0 45 12 83t36 66.5t61 44.5t87 16h1q48 0 82.5 -14t57 -38.5t33 -56.5t10.5 -68q0 -45 -12.5 -83.5t-39 -67t-67 -44.5t-97.5 -16h-1zM54 559q0 158 47.5 273t129.5 189.5t190 110.5t230 36q124 0 228 -36t179 -109t117 -182t42 -255q0 -165 -47.5 -280.5t-129 -188.5
t-190 -106.5t-230.5 -33.5q-123 0 -227 36.5t-179 109t-117.5 181.5t-42.5 255zM643 134q38 0 65.5 24t45.5 75t27 131.5t9 193.5q0 121 -8 207t-27 140.5t-49 80t-73 25.5q-38 0 -66.5 -24t-48 -75t-29.5 -131.5t-10 -193.5q0 -121 9.5 -207t29.5 -140.5t51 -80t74 -25.5z
" />
    <glyph glyph-name="divide" unicode="&#xf7;" horiz-adv-x="1353" 
d="M663 899q-33 0 -64.5 12t-56 34t-39.5 52.5t-15 68.5q0 40 16 73.5t43.5 57.5t65 37t80.5 13q42 0 76 -14t58 -37.5t36.5 -54t12.5 -63.5q0 -44 -15.5 -77t-43.5 -56t-67 -34.5t-87 -11.5zM200 727h953v-229h-953v229zM482 173q0 40 16 73t44 57t65.5 37t80.5 13
q42 0 76 -14t58 -37.5t37 -54t13 -63.5q0 -44 -15.5 -77t-44 -56t-68 -34.5t-87.5 -11.5q-33 0 -64.5 12t-56 34.5t-39.5 53t-15 68.5z" />
    <glyph glyph-name="oslash" unicode="&#xf8;" horiz-adv-x="1269" 
d="M358 27q-70 30 -126.5 78t-96 114.5t-61 151.5t-21.5 188q0 158 47.5 273t129.5 189.5t190 110.5t230 36q26 0 51 -1.5t50 -5.5l81 243l164 -47l-76 -242q68 -31 122.5 -79.5t93 -114.5t59.5 -149.5t21 -185.5q0 -165 -47.5 -280.5t-129 -188.5t-190 -106.5t-230.5 -33.5
q-23 0 -45 1.5t-44 3.5l-98 -272l-169 48zM721 969q-35 42 -89 42q-38 0 -66.5 -24t-48 -75t-29.5 -131.5t-10 -193.5q0 -187 22 -290zM552 175q34 -41 90 -41q38 0 65.5 24t45.5 75t27 131.5t9 193.5q0 88 -4 156.5t-14 121.5z" />
    <glyph glyph-name="ugrave" unicode="&#xf9;" horiz-adv-x="1330" 
d="M49 0zM137 963l-88 25v148l434 27h3l46 -28v-751q0 -58 7.5 -96.5t22.5 -61.5t38 -32.5t55 -9.5t56.5 6.5t42.5 16t30 19.5t20 17v720l-118 29v145l455 26h6l52 -28v-975h101v-149l-50 -10t-68 -11t-83 -9t-95 -4q-42 0 -71.5 10t-48 28.5t-26.5 44t-8 56.5v33
q-20 -33 -55 -64t-79.5 -55t-95.5 -38.5t-102 -14.5q-103 0 -175.5 23t-118 74t-66.5 132.5t-21 198.5v558zM713 1286q-48 18 -112.5 59t-129 93t-119.5 109.5t-85 108.5l217 199h1l380 -452l-149 -117h-3v0z" />
    <glyph glyph-name="uacute" unicode="&#xfa;" horiz-adv-x="1330" 
d="M49 0zM459 1403l381 452h1l217 -199q-20 -34 -52 -71.5t-71 -74.5t-82.5 -72t-86.5 -65t-83 -52.5t-72 -34.5h-2zM137 963l-88 25v148l434 27h3l46 -28v-751q0 -58 7.5 -96.5t22.5 -61.5t38 -32.5t55 -9.5t56.5 6.5t42.5 16t30 19.5t20 17v720l-118 29v145l455 26h6
l52 -28v-975h101v-149l-50 -10t-68 -11t-83 -9t-95 -4q-42 0 -71.5 10t-48 28.5t-26.5 44t-8 56.5v33q-20 -33 -55 -64t-79.5 -55t-95.5 -38.5t-102 -14.5q-103 0 -175.5 23t-118 74t-66.5 132.5t-21 198.5v558z" />
    <glyph glyph-name="ucircumflex" unicode="&#xfb;" horiz-adv-x="1330" 
d="M49 0zM254 1398l324 403h198l330 -402l-126 -109l-301 238l-303 -239zM137 963l-88 25v148l434 27h3l46 -28v-751q0 -58 7.5 -96.5t22.5 -61.5t38 -32.5t55 -9.5t56.5 6.5t42.5 16t30 19.5t20 17v720l-118 29v145l455 26h6l52 -28v-975h101v-149l-50 -10t-68 -11t-83 -9
t-95 -4q-42 0 -71.5 10t-48 28.5t-26.5 44t-8 56.5v33q-20 -33 -55 -64t-79.5 -55t-95.5 -38.5t-102 -14.5q-103 0 -175.5 23t-118 74t-66.5 132.5t-21 198.5v558z" />
    <glyph glyph-name="udieresis" unicode="&#xfc;" horiz-adv-x="1330" 
d="M49 0zM890 1324q-36 0 -65.5 16.5t-50.5 42t-33 57t-12 62.5q0 45 11.5 83t35.5 66.5t61 44.5t88 16h1q48 0 82.5 -14t56.5 -38.5t32.5 -56.5t10.5 -68q0 -45 -12.5 -83.5t-38.5 -67t-67.5 -44.5t-98.5 -16h-1zM363 1324q-36 0 -66 14.5t-51.5 38.5t-33.5 56.5t-12 68.5
q0 45 12 83t36 66.5t61 44.5t87 16h1q48 0 82.5 -14t57 -38.5t33 -56.5t10.5 -68q0 -45 -12.5 -83.5t-39 -67t-67 -44.5t-97.5 -16h-1zM137 963l-88 25v148l434 27h3l46 -28v-751q0 -58 7.5 -96.5t22.5 -61.5t38 -32.5t55 -9.5t56.5 6.5t42.5 16t30 19.5t20 17v720l-118 29
v145l455 26h6l52 -28v-975h101v-149l-50 -10t-68 -11t-83 -9t-95 -4q-42 0 -71.5 10t-48 28.5t-26.5 44t-8 56.5v33q-20 -33 -55 -64t-79.5 -55t-95.5 -38.5t-102 -14.5q-103 0 -175.5 23t-118 74t-66.5 132.5t-21 198.5v558z" />
    <glyph glyph-name="yacute" unicode="&#xfd;" horiz-adv-x="1173" 
d="M0 0zM124 -205q8 -7 27.5 -13t43 -10.5t48.5 -7.5t45 -3q60 0 101.5 20t71 53t50 76t38.5 90h-129l-382 967l-87 24v147h658v-147l-134 -24l154 -516l44 -162l32 162l145 517l-117 23v147h488v-147l-94 -23q-16 -49 -39 -116.5t-50 -145t-56 -160.5t-57 -162.5
t-53.5 -151t-45 -127t-31.5 -89.5t-14 -38q-42 -119 -88.5 -210t-103 -153t-127 -93.5t-161.5 -31.5q-22 0 -47.5 1.5t-50 4.5t-45.5 7.5t-34 10.5v281v0zM385 1403l381 452h1l217 -199q-20 -34 -52 -71.5t-71 -74.5t-82.5 -72t-86.5 -65t-83 -52.5t-72 -34.5h-2z" />
    <glyph glyph-name="thorn" unicode="&#xfe;" horiz-adv-x="1311" 
d="M153 -328v1790l-134 30v135l439 53h5l76 -46v-588q22 24 51.5 46t65.5 39t76.5 27t84.5 10q93 0 173.5 -31t139 -98.5t92 -175t33.5 -259.5q0 -134 -43 -248.5t-123.5 -198.5t-197 -132t-263.5 -48q-25 0 -48 0.5t-46 1.5l6 -118v-188l174 -28v-141h-678v141zM539 147
q8 -13 34 -23.5t64 -10.5q45 0 81.5 27.5t62.5 84t41 142t15 201.5q1 102 -10.5 173t-33.5 115.5t-53.5 64.5t-70.5 20q-41 0 -76 -17.5t-54 -41.5v-735z" />
    <glyph glyph-name="ydieresis" unicode="&#xff;" horiz-adv-x="1173" 
d="M0 0zM124 -205q8 -7 27.5 -13t43 -10.5t48.5 -7.5t45 -3q60 0 101.5 20t71 53t50 76t38.5 90h-129l-382 967l-87 24v147h658v-147l-134 -24l154 -516l44 -162l32 162l145 517l-117 23v147h488v-147l-94 -23q-16 -49 -39 -116.5t-50 -145t-56 -160.5t-57 -162.5
t-53.5 -151t-45 -127t-31.5 -89.5t-14 -38q-42 -119 -88.5 -210t-103 -153t-127 -93.5t-161.5 -31.5q-22 0 -47.5 1.5t-50 4.5t-45.5 7.5t-34 10.5v281v0zM840 1324q-36 0 -65.5 16.5t-50.5 42t-33 57t-12 62.5q0 45 11.5 83t35.5 66.5t61 44.5t88 16h1q48 0 82.5 -14
t56.5 -38.5t32.5 -56.5t10.5 -68q0 -45 -12.5 -83.5t-38.5 -67t-67.5 -44.5t-98.5 -16h-1zM313 1324q-36 0 -66 14.5t-51.5 38.5t-33.5 56.5t-12 68.5q0 45 12 83t36 66.5t61 44.5t87 16h1q48 0 82.5 -14t57 -38.5t33 -56.5t10.5 -68q0 -45 -12.5 -83.5t-39 -67t-67 -44.5
t-97.5 -16h-1z" />
    <glyph glyph-name="Amacron" unicode="&#x100;" horiz-adv-x="1465" 
d="M0 0zM-43 152l115 24l437 1349h442l438 -1350l107 -23v-152h-697v152l133 23l-58 217h-436l-56 -222l152 -18v-152h-574zM829 565l-155 588l-22 126l-24 -126l-147 -588h348zM378 1918h696v-220h-696v220z" />
    <glyph glyph-name="amacron" unicode="&#x101;" horiz-adv-x="1181" 
d="M40 0zM40 330q0 88 40 158.5t121.5 119.5t205.5 75.5t291 26.5v32q0 45 -6.5 77.5t-26 54.5t-56 32.5t-96.5 10.5q-61 0 -113.5 -8t-96 -20t-78 -25.5t-59.5 -23.5h-1l-79 168q21 16 69 43t117 53t156 44.5t187 18.5q130 0 216 -24t138 -76t73.5 -133.5t21.5 -195.5v-586
h100v-148q-19 -4 -55 -9t-79 -9.5t-88 -8t-81 -3.5q-45 0 -73.5 6.5t-44 20.5t-21 37.5t-5.5 57.5v38q-20 -28 -50.5 -56t-71.5 -50.5t-92.5 -36.5t-113.5 -14q-71 0 -134.5 24t-111 69t-75.5 110.5t-28 149.5zM453 374q0 -41 8.5 -74.5t25 -58.5t40.5 -38.5t55 -13.5
q29 0 62 16t54 40v315q-70 0 -117 -16t-75.5 -42.5t-40.5 -59.5t-12 -68zM250 1634h671v-220h-671v220z" />
    <glyph glyph-name="Abreve" unicode="&#x102;" horiz-adv-x="1465" 
d="M0 0zM-43 152l115 24l437 1349h442l438 -1350l107 -23v-152h-697v152l133 23l-58 217h-436l-56 -222l152 -18v-152h-574zM829 565l-155 588l-22 126l-24 -126l-147 -588h348zM731 1615q-104 0 -180 29t-126 77t-74.5 110.5t-24.5 130.5v24t2 23h185q0 -4 0.5 -9t1.5 -12
q3 -21 14.5 -45.5t36.5 -45.5t65 -35.5t102 -14.5q61 0 100 14t62 35.5t32.5 46t12.5 45.5q1 7 1 12v9h191q2 -11 2 -22v-23q0 -68 -25 -130.5t-75.5 -111.5t-126 -78t-176.5 -29z" />
    <glyph glyph-name="abreve" unicode="&#x103;" horiz-adv-x="1181" 
d="M40 0zM40 330q0 88 40 158.5t121.5 119.5t205.5 75.5t291 26.5v32q0 45 -6.5 77.5t-26 54.5t-56 32.5t-96.5 10.5q-61 0 -113.5 -8t-96 -20t-78 -25.5t-59.5 -23.5h-1l-79 168q21 16 69 43t117 53t156 44.5t187 18.5q130 0 216 -24t138 -76t73.5 -133.5t21.5 -195.5v-586
h100v-148q-19 -4 -55 -9t-79 -9.5t-88 -8t-81 -3.5q-45 0 -73.5 6.5t-44 20.5t-21 37.5t-5.5 57.5v38q-20 -28 -50.5 -56t-71.5 -50.5t-92.5 -36.5t-113.5 -14q-71 0 -134.5 24t-111 69t-75.5 110.5t-28 149.5zM453 374q0 -41 8.5 -74.5t25 -58.5t40.5 -38.5t55 -13.5
q29 0 62 16t54 40v315q-70 0 -117 -16t-75.5 -42.5t-40.5 -59.5t-12 -68zM586 1315q-89 0 -161.5 26.5t-124 72.5t-79.5 109t-28 136v30.5t0.5 32.5t1 29.5t2.5 21.5h174q0 -11 1 -23t3 -24q5 -31 18 -59.5t38 -50.5t63.5 -35t93.5 -13q54 0 91 13t61 34.5t37 50t18 59.5
q2 13 3 25t1 23h170q0 -8 1 -21.5t1.5 -29.5t1 -32.5t0.5 -29.5q0 -74 -28.5 -137t-80 -109.5t-122.5 -72.5t-156 -26z" />
    <glyph glyph-name="Aogonek" unicode="&#x104;" horiz-adv-x="1465" 
d="M-45 152l115 24l437 1349h442l438 -1350l107 -23v-152h-103q-50 -17 -89.5 -41.5t-67 -53t-42 -59t-14.5 -59.5q0 -43 38.5 -68.5t105.5 -25.5q18 0 32 1t27 3.5t26.5 6.5t30.5 11v-163q-21 -16 -53.5 -28.5t-69 -21t-74 -13t-68.5 -4.5q-68 0 -123 15.5t-93.5 43
t-59.5 66t-21 85.5q0 46 22 92t62 87t96.5 73.5t124.5 52.5h-384v152l133 23l-58 217h-436l-56 -222l152 -18v-152h-574zM827 565l-155 588l-22 126l-24 -126l-147 -588h348z" />
    <glyph glyph-name="aogonek" unicode="&#x105;" horiz-adv-x="1181" 
d="M40 330q0 88 40 158.5t121.5 119.5t205.5 75.5t291 26.5v32q0 45 -6.5 77.5t-26 54.5t-56 32.5t-96.5 10.5q-61 0 -113.5 -8t-96 -20t-78 -25.5t-59.5 -23.5h-1l-79 168q21 16 69 43t117 53t156 44.5t187 18.5q130 0 216 -24t138 -76t73.5 -133.5t21.5 -195.5v-586h100
v-148l-13 -3q-53 -16 -95 -41.5t-71 -54t-45 -57.5t-16 -53q0 -45 31 -73.5t93 -28.5q18 0 30.5 1t24.5 3.5t24.5 6.5t29.5 11v-163q-21 -16 -52.5 -28.5t-67 -21t-72 -13t-67.5 -4.5q-68 0 -120.5 15.5t-88 43t-54 66t-18.5 85.5q0 40 18.5 79t53 75t83.5 67.5t110 57.5
h-21q-45 0 -73.5 6.5t-44 20.5t-21 37.5t-5.5 57.5v38q-20 -28 -50.5 -56t-71.5 -50.5t-92.5 -36.5t-113.5 -14q-71 0 -134.5 24t-111 69t-75.5 110.5t-28 149.5zM453 374q0 -41 8.5 -74.5t25 -58.5t40.5 -38.5t55 -13.5q29 0 62 16t54 40v315q-70 0 -117 -16t-75.5 -42.5
t-40.5 -59.5t-12 -68z" />
    <glyph glyph-name="Cacute" unicode="&#x106;" horiz-adv-x="1364" 
d="M46 0zM46 740q0 191 57.5 339.5t160.5 250.5t244 155t308 53q78 0 152.5 -7t140 -15.5t117.5 -15.5t84 -7l-27 -502h-259l-78 343q-7 7 -18 14.5t-28 13.5t-42 10t-59 4q-66 0 -119 -36t-90 -110.5t-57 -188.5t-20 -269q0 -143 18.5 -259.5t55 -199t91 -127.5t127.5 -45
q39 0 66.5 5t47 13t32 18.5t23.5 22.5l98 230l234 -20l-33 -354q-37 -4 -70 -11.5t-66 -16t-69 -18t-78.5 -17t-94.5 -12t-117 -4.5q-187 0 -324.5 54.5t-228 154t-135 240.5t-44.5 314zM633 1695l295 319h1l242 -160q-48 -50 -105.5 -94.5t-113 -79.5t-102 -57.5
t-72.5 -29.5h-1z" />
    <glyph glyph-name="cacute" unicode="&#x107;" horiz-adv-x="1077" 
d="M57 0zM401 1401l381 452h1l217 -199q-20 -34 -52 -71.5t-71 -74.5t-82.5 -72t-86.5 -65t-83 -52.5t-72 -34.5h-2zM57 563q0 144 45 256.5t124.5 190t188.5 118t237 40.5q80 0 138 -9.5t101 -20.5t74.5 -21t58.5 -11l-17 -399h-243l-57 249q-6 26 -28.5 36t-46.5 10
q-32 0 -59.5 -16t-48 -58t-32.5 -115.5t-12 -189.5q-1 -204 54.5 -309t157.5 -105q48 0 87 6t72 16t61 23t52 27l63 -139q-16 -19 -52.5 -47t-91 -54.5t-125.5 -45t-156 -18.5q-146 0 -249.5 44t-169 122t-96 185.5t-30.5 234.5z" />
    <glyph glyph-name="Ccircumflex" unicode="&#x108;" horiz-adv-x="1364" 
d="M46 0zM46 740q0 191 57.5 339.5t160.5 250.5t244 155t308 53q78 0 152.5 -7t140 -15.5t117.5 -15.5t84 -7l-27 -502h-259l-78 343q-7 7 -18 14.5t-28 13.5t-42 10t-59 4q-66 0 -119 -36t-90 -110.5t-57 -188.5t-20 -269q0 -143 18.5 -259.5t55 -199t91 -127.5t127.5 -45
q39 0 66.5 5t47 13t32 18.5t23.5 22.5l98 230l234 -20l-33 -354q-37 -4 -70 -11.5t-66 -16t-69 -18t-78.5 -17t-94.5 -12t-117 -4.5q-187 0 -324.5 54.5t-228 154t-135 240.5t-44.5 314zM363 1704l325 300h209l323 -299l-126 -109l-302 185l-303 -185z" />
    <glyph glyph-name="ccircumflex" unicode="&#x109;" horiz-adv-x="1077" 
d="M57 0zM198 1396l324 403h198l330 -402l-126 -109l-301 238l-303 -239zM57 563q0 144 45 256.5t124.5 190t188.5 118t237 40.5q80 0 138 -9.5t101 -20.5t74.5 -21t58.5 -11l-17 -399h-243l-57 249q-6 26 -28.5 36t-46.5 10q-32 0 -59.5 -16t-48 -58t-32.5 -115.5
t-12 -189.5q-1 -204 54.5 -309t157.5 -105q48 0 87 6t72 16t61 23t52 27l63 -139q-16 -19 -52.5 -47t-91 -54.5t-125.5 -45t-156 -18.5q-146 0 -249.5 44t-169 122t-96 185.5t-30.5 234.5z" />
    <glyph glyph-name="Cdotaccent" unicode="&#x10a;" horiz-adv-x="1364" 
d="M46 0zM777 1638q-42 0 -77 13t-60.5 35.5t-39.5 53.5t-14 67q0 91 54 142.5t157 51.5h1q99 0 152 -47t53 -120q0 -90 -55 -143t-170 -53h-1v0zM46 740q0 191 57.5 339.5t160.5 250.5t244 155t308 53q78 0 152.5 -7t140 -15.5t117.5 -15.5t84 -7l-27 -502h-259l-78 343
q-7 7 -18 14.5t-28 13.5t-42 10t-59 4q-66 0 -119 -36t-90 -110.5t-57 -188.5t-20 -269q0 -143 18.5 -259.5t55 -199t91 -127.5t127.5 -45q39 0 66.5 5t47 13t32 18.5t23.5 22.5l98 230l234 -20l-33 -354q-37 -4 -70 -11.5t-66 -16t-69 -18t-78.5 -17t-94.5 -12t-117 -4.5
q-187 0 -324.5 54.5t-228 154t-135 240.5t-44.5 314z" />
    <glyph glyph-name="cdotaccent" unicode="&#x10b;" horiz-adv-x="1077" 
d="M57 0zM57 563q0 144 45 256.5t124.5 190t188.5 118t237 40.5q80 0 138 -9.5t101 -20.5t74.5 -21t58.5 -11l-17 -399h-243l-57 249q-6 26 -28.5 36t-46.5 10q-32 0 -59.5 -16t-48 -58t-32.5 -115.5t-12 -189.5q-1 -204 54.5 -309t157.5 -105q48 0 87 6t72 16t61 23t52 27
l63 -139q-16 -19 -52.5 -47t-91 -54.5t-125.5 -45t-156 -18.5q-146 0 -249.5 44t-169 122t-96 185.5t-30.5 234.5zM591 1299q-44 0 -81 14t-63.5 39t-41.5 59t-15 73q0 46 15.5 86.5t44 70.5t70 47t94.5 17h1q52 0 91.5 -14.5t66 -40t40 -59.5t13.5 -73q0 -46 -14.5 -86
t-44 -69.5t-73.5 -46.5t-102 -17h-1v0z" />
    <glyph glyph-name="Ccaron" unicode="&#x10c;" horiz-adv-x="1364" 
d="M46 0zM46 740q0 191 57.5 339.5t160.5 250.5t244 155t308 53q78 0 152.5 -7t140 -15.5t117.5 -15.5t84 -7l-27 -502h-259l-78 343q-7 7 -18 14.5t-28 13.5t-42 10t-59 4q-66 0 -119 -36t-90 -110.5t-57 -188.5t-20 -269q0 -143 18.5 -259.5t55 -199t91 -127.5t127.5 -45
q39 0 66.5 5t47 13t32 18.5t23.5 22.5l98 230l234 -20l-33 -354q-37 -4 -70 -11.5t-66 -16t-69 -18t-78.5 -17t-94.5 -12t-117 -4.5q-187 0 -324.5 54.5t-228 154t-135 240.5t-44.5 314zM384 1906l126 108l283 -174l302 174l126 -109l-323 -289h-209z" />
    <glyph glyph-name="ccaron" unicode="&#x10d;" horiz-adv-x="1077" 
d="M57 0zM198 1693l121 108l302 -246l303 247l125 -109l-330 -403h-198zM57 563q0 144 45 256.5t124.5 190t188.5 118t237 40.5q80 0 138 -9.5t101 -20.5t74.5 -21t58.5 -11l-17 -399h-243l-57 249q-6 26 -28.5 36t-46.5 10q-32 0 -59.5 -16t-48 -58t-32.5 -115.5
t-12 -189.5q-1 -204 54.5 -309t157.5 -105q48 0 87 6t72 16t61 23t52 27l63 -139q-16 -19 -52.5 -47t-91 -54.5t-125.5 -45t-156 -18.5q-146 0 -249.5 44t-169 122t-96 185.5t-30.5 234.5z" />
    <glyph glyph-name="Dcaron" unicode="&#x10e;" horiz-adv-x="1568" 
d="M60 0zM378 1906l126 108l283 -174l302 174l126 -109l-323 -289h-209zM60 152l149 24v1154l-145 30v162h346q50 0 94 1.5t86 4t85 4t92 1.5q187 0 328 -47t235.5 -137.5t141.5 -224t47 -307.5q0 -179 -52.5 -333t-152.5 -266.5t-245.5 -175t-332.5 -58.5q-42 1 -88.5 3.5
t-90 5.5t-81.5 5t-62 2h-354v152zM618 171q22 -11 55 -16t70 -5q76 0 135.5 34t101 107.5t63 189.5t21.5 281q0 130 -16.5 242t-56 194.5t-104 130t-160.5 47.5q-47 0 -73 -7.5t-36 -9.5v-1188z" />
    <glyph glyph-name="dcaron" unicode="&#x10f;" horiz-adv-x="1603" 
d="M59 0zM501 -23q-94 0 -175 32t-140 100.5t-93 175.5t-34 258q0 81 17 159t51 147t85.5 128t121.5 101t157.5 66t194.5 24q22 0 44.5 -3t42.5 -7v296l-191 32v151l496 43h10l72 -56v-1470h99v-150q-25 -5 -60 -10t-74 -9.5t-78.5 -7.5t-72.5 -3q-39 0 -67.5 5t-47 18.5
t-28 37t-9.5 61.5v46q-24 -39 -60.5 -69.5t-79.5 -52t-89.5 -32.5t-91.5 -11zM643 182q50 0 81 18t49 42v737q-12 14 -38 23t-59 9q-40 0 -76 -20.5t-63.5 -70t-44 -132.5t-17.5 -209q-1 -105 11 -180.5t34 -123.5t53 -70.5t70 -22.5zM1337 992l-9 26q4 16 8.5 37t8 56
t6 88.5t2.5 134.5q0 62 -6.5 108.5t-15.5 79.5t-18.5 52.5t-15.5 27.5l9 42l259 56q20 -24 39 -93.5t19 -181.5q0 -96 -15.5 -177t-36 -142.5t-41.5 -101t-32 -51.5z" />
    <glyph glyph-name="Dcroat" unicode="&#x110;" horiz-adv-x="1568" 
d="M60 152l149 24v523h-158v163h158v468l-145 30v162h346q50 0 94 1.5t86 4t85 4t92 1.5q187 0 328 -47t235.5 -137.5t141.5 -224t47 -307.5q0 -179 -52.5 -333t-152.5 -266.5t-245.5 -175t-332.5 -58.5q-42 1 -88.5 3.5t-90 5.5t-81.5 5t-62 2h-354v152zM618 171
q22 -11 55 -16t70 -5q76 0 135.5 34t101 107.5t63 189.5t21.5 281q0 130 -16.5 242t-56 194.5t-104 130t-160.5 47.5q-47 0 -73 -7.5t-36 -9.5v-497h228v-163h-228v-528z" />
    <glyph glyph-name="dcroat" unicode="&#x111;" horiz-adv-x="1299" 
d="M501 -23q-94 0 -175 32t-140 100.5t-93 175.5t-34 258q0 81 17 159t51 147t85.5 128t121.5 101t157.5 66t194.5 24q22 0 44.5 -3t42.5 -7v90h-271v142h271v64l-191 32v151l496 43h10l72 -56v-234h142v-142h-142v-1094h99v-150q-25 -5 -60 -10t-74 -9.5t-78.5 -7.5
t-72.5 -3q-39 0 -67.5 5t-47 18.5t-28 37t-9.5 61.5v46q-24 -39 -60.5 -69.5t-79.5 -52t-89.5 -32.5t-91.5 -11zM643 182q50 0 81 18t49 42v737q-12 14 -38 23t-59 9q-40 0 -76 -20.5t-63.5 -70t-44 -132.5t-17.5 -209q-1 -105 11 -180.5t34 -123.5t53 -70.5t70 -22.5z" />
    <glyph glyph-name="Emacron" unicode="&#x112;" horiz-adv-x="1351" 
d="M54 0zM352 1918h696v-220h-696v220zM60 152l149 23v1154l-155 31v162h1156l28 -384h-185l-77 210l-351 25v-510l205 5l39 166h154v-534h-154l-37 179l-207 5v-528l384 31l132 267l201 -55l-44 -399h-1238v152z" />
    <glyph glyph-name="emacron" unicode="&#x113;" horiz-adv-x="1144" 
d="M53 0zM53 567q0 146 40 258t114.5 188t180.5 115t238 39q115 0 201.5 -29t144.5 -83t87.5 -132t31.5 -176q0 -73 -5.5 -125.5t-13.5 -94.5h-612q15 -162 81.5 -237t187.5 -75q39 0 79.5 7.5t78.5 19.5t70.5 25.5t55.5 25.5l66 -141q-21 -24 -66 -54t-106 -57t-134 -45.5
t-151 -18.5q-156 0 -264.5 43.5t-176 122t-98 187t-30.5 237.5zM715 676v18.5t0.5 23.5t0.5 23.5v18.5q0 59 -5 105.5t-18 79t-35.5 49.5t-56.5 17q-32 0 -58 -12t-45 -48t-30 -101.5t-12 -173.5h259zM260 1634h671v-220h-671v220z" />
    <glyph glyph-name="Ebreve" unicode="&#x114;" horiz-adv-x="1351" 
d="M54 0zM704 1615q-104 0 -180 29t-126 77t-74.5 110.5t-24.5 130.5v24t2 23h185q0 -4 0.5 -9t1.5 -12q3 -21 14.5 -45.5t36.5 -45.5t65 -35.5t102 -14.5q61 0 100 14t62 35.5t32.5 46t12.5 45.5q1 7 1 12v9h191q2 -11 2 -22v-23q0 -68 -25 -130.5t-75.5 -111.5t-126 -78
t-176.5 -29zM60 152l149 23v1154l-155 31v162h1156l28 -384h-185l-77 210l-351 25v-510l205 5l39 166h154v-534h-154l-37 179l-207 5v-528l384 31l132 267l201 -55l-44 -399h-1238v152z" />
    <glyph glyph-name="ebreve" unicode="&#x115;" horiz-adv-x="1144" 
d="M53 0zM53 567q0 146 40 258t114.5 188t180.5 115t238 39q115 0 201.5 -29t144.5 -83t87.5 -132t31.5 -176q0 -73 -5.5 -125.5t-13.5 -94.5h-612q15 -162 81.5 -237t187.5 -75q39 0 79.5 7.5t78.5 19.5t70.5 25.5t55.5 25.5l66 -141q-21 -24 -66 -54t-106 -57t-134 -45.5
t-151 -18.5q-156 0 -264.5 43.5t-176 122t-98 187t-30.5 237.5zM715 676v18.5t0.5 23.5t0.5 23.5v18.5q0 59 -5 105.5t-18 79t-35.5 49.5t-56.5 17q-32 0 -58 -12t-45 -48t-30 -101.5t-12 -173.5h259zM596 1315q-89 0 -161.5 26.5t-124 72.5t-79.5 109t-28 136v30.5
t0.5 32.5t1 29.5t2.5 21.5h174q0 -11 1 -23t3 -24q5 -31 18 -59.5t38 -50.5t63.5 -35t93.5 -13q54 0 91 13t61 34.5t37 50t18 59.5q2 13 3 25t1 23h170q0 -8 1 -21.5t1.5 -29.5t1 -32.5t0.5 -29.5q0 -74 -28.5 -137t-80 -109.5t-122.5 -72.5t-156 -26z" />
    <glyph glyph-name="Edotaccent" unicode="&#x116;" horiz-adv-x="1351" 
d="M54 0zM683 1638q-42 0 -77 13t-60.5 35.5t-39.5 53.5t-14 67q0 91 54 142.5t157 51.5h1q99 0 152 -47t53 -120q0 -90 -55 -143t-170 -53h-1v0zM60 152l149 23v1154l-155 31v162h1156l28 -384h-185l-77 210l-351 25v-510l205 5l39 166h154v-534h-154l-37 179l-207 5v-528
l384 31l132 267l201 -55l-44 -399h-1238v152z" />
    <glyph glyph-name="edotaccent" unicode="&#x117;" horiz-adv-x="1144" 
d="M53 0zM53 567q0 146 40 258t114.5 188t180.5 115t238 39q115 0 201.5 -29t144.5 -83t87.5 -132t31.5 -176q0 -73 -5.5 -125.5t-13.5 -94.5h-612q15 -162 81.5 -237t187.5 -75q39 0 79.5 7.5t78.5 19.5t70.5 25.5t55.5 25.5l66 -141q-21 -24 -66 -54t-106 -57t-134 -45.5
t-151 -18.5q-156 0 -264.5 43.5t-176 122t-98 187t-30.5 237.5zM715 676v18.5t0.5 23.5t0.5 23.5v18.5q0 59 -5 105.5t-18 79t-35.5 49.5t-56.5 17q-32 0 -58 -12t-45 -48t-30 -101.5t-12 -173.5h259zM566 1301q-44 0 -81 14t-63.5 39t-41.5 59t-15 73q0 46 15.5 86.5
t44 70.5t70 47t94.5 17h1q52 0 91.5 -14.5t66 -40t40 -59.5t13.5 -73q0 -46 -14.5 -86t-44 -69.5t-73.5 -46.5t-102 -17h-1v0z" />
    <glyph glyph-name="Eogonek" unicode="&#x118;" horiz-adv-x="1351" 
d="M60 152l149 23v1154l-155 31v162h1156l28 -384h-185l-77 210l-351 25v-510l205 5l39 166h154v-534h-154l-37 179l-207 5v-528l384 31l132 267l201 -55l-44 -399h-14q-51 -13 -94.5 -37.5t-75 -53.5t-49.5 -59.5t-18 -54.5q0 -45 30.5 -73.5t92.5 -28.5q18 0 30.5 1
t24.5 3.5t24.5 6.5t29.5 11v-163q-21 -16 -52.5 -28.5t-66.5 -21t-71.5 -13t-67.5 -4.5q-68 0 -120.5 15.5t-88.5 43t-54.5 66t-18.5 85.5q0 93 74.5 173.5t226.5 131.5h-980v152z" />
    <glyph glyph-name="eogonek" unicode="&#x119;" horiz-adv-x="1145" 
d="M480 -302q0 44 21 86t55.5 79t77 68t86.5 54q-23 -4 -46.5 -6t-47.5 -2q-156 0 -264.5 43.5t-176 122t-98 187t-30.5 237.5q0 146 40 258t114.5 188t180.5 115t238 39q115 0 201.5 -29t144.5 -83t87.5 -132t31.5 -176q0 -73 -5.5 -125.5t-13.5 -94.5h-612
q15 -162 81.5 -237t187.5 -75q39 0 79.5 7.5t78.5 19.5t70.5 25.5t55.5 25.5l66 -141q-12 -14 -33 -30t-48 -33q-51 -42 -91 -75t-67.5 -65.5t-41.5 -68t-14 -81.5q0 -45 32.5 -75.5t93.5 -30.5q18 0 31 1t24.5 3t24 6.5t29.5 11.5v-164q-22 -16 -53.5 -28t-66.5 -20.5
t-71.5 -13t-67.5 -4.5q-56 0 -107.5 12.5t-90.5 38.5t-62.5 66t-23.5 96zM719 676v18.5t0.5 23.5t0.5 23.5v18.5q0 59 -5 105.5t-18 79t-35.5 49.5t-56.5 17q-32 0 -58 -12t-45 -48t-30 -101.5t-12 -173.5h259z" />
    <glyph glyph-name="Ecaron" unicode="&#x11a;" horiz-adv-x="1351" 
d="M54 0zM290 1906l126 108l283 -174l302 174l126 -109l-323 -289h-209zM60 152l149 23v1154l-155 31v162h1156l28 -384h-185l-77 210l-351 25v-510l205 5l39 166h154v-534h-154l-37 179l-207 5v-528l384 31l132 267l201 -55l-44 -399h-1238v152z" />
    <glyph glyph-name="ecaron" unicode="&#x11b;" horiz-adv-x="1144" 
d="M53 0zM173 1695l121 108l302 -246l303 247l125 -109l-330 -403h-198zM53 567q0 146 40 258t114.5 188t180.5 115t238 39q115 0 201.5 -29t144.5 -83t87.5 -132t31.5 -176q0 -73 -5.5 -125.5t-13.5 -94.5h-612q15 -162 81.5 -237t187.5 -75q39 0 79.5 7.5t78.5 19.5
t70.5 25.5t55.5 25.5l66 -141q-21 -24 -66 -54t-106 -57t-134 -45.5t-151 -18.5q-156 0 -264.5 43.5t-176 122t-98 187t-30.5 237.5zM715 676v18.5t0.5 23.5t0.5 23.5v18.5q0 59 -5 105.5t-18 79t-35.5 49.5t-56.5 17q-32 0 -58 -12t-45 -48t-30 -101.5t-12 -173.5h259z" />
    <glyph glyph-name="Gcircumflex" unicode="&#x11c;" horiz-adv-x="1539" 
d="M46 0zM46 752q0 192 53.5 340t156 248t252.5 151.5t343 51.5q82 0 166 -7.5t157.5 -18t130 -21.5t83.5 -17l-27 -417h-295l-63 284q-5 6 -16 14t-30 15t-46 11.5t-64 4.5q-161 0 -239.5 -158.5t-78.5 -460.5q0 -146 15 -264t48.5 -201t88.5 -127.5t136 -44.5q62 0 109 17
t69 42v414l-158 22v163h658v-163l-94 -16v-532q-41 -2 -104.5 -18.5t-144 -36t-175.5 -35t-199 -15.5q-180 0 -316.5 60t-229 164t-139.5 245.5t-47 305.5zM393 1704l325 300h209l323 -299l-126 -109l-302 185l-303 -185z" />
    <glyph glyph-name="gcircumflex" unicode="&#x11d;" horiz-adv-x="1316" 
d="M45 0zM180 1398l324 403h198l330 -402l-126 -109l-301 238l-303 -239zM45 -224q0 39 14.5 78t40 73.5t61 62.5t78.5 45q-51 32 -72.5 78t-21.5 99q0 31 11.5 63t33.5 61t53.5 53t71.5 41q-68 23 -113.5 59t-73 82t-39 101t-11.5 115q0 89 42 160t115.5 120t172.5 75
t213 26h1q147 0 243.5 -25.5t153.5 -72.5q13 18 35.5 36t50.5 33t60.5 24.5t66.5 9.5h77v-284h-193q4 -21 5.5 -43.5t1.5 -45.5q0 -92 -31.5 -167t-97.5 -128.5t-166.5 -83t-237.5 -29.5h-1q-95 0 -168 12q-5 -24 -7 -47.5t-2 -31.5q0 -29 10.5 -47.5t35.5 -29.5t66.5 -15.5
t104.5 -4.5h200q110 0 195 -18.5t142.5 -58t87.5 -100.5t30 -146q0 -75 -28 -138t-76.5 -114t-114 -89.5t-141.5 -64t-159 -38.5t-166 -13h-1q-156 0 -262 26t-170.5 71t-92.5 104.5t-28 126.5zM611 542q37 0 62 17.5t40 49t21 75.5t6 96q0 128 -29 186t-99 58h-1
q-39 0 -65.5 -17t-42.5 -48t-23 -74t-7 -95q0 -125 32 -186.5t105 -61.5h1zM449 -18q-8 -23 -12.5 -56t-4.5 -78q0 -51 12 -93t37.5 -72t66.5 -46.5t98 -16.5h2q40 0 78 12t68 38t48 66.5t18 96.5q0 83 -41.5 115t-128.5 32h-195q-12 0 -23.5 0.5t-22.5 1.5z" />
    <glyph glyph-name="Gbreve" unicode="&#x11e;" horiz-adv-x="1539" 
d="M46 0zM825 1615q-104 0 -180 29t-126 77t-74.5 110.5t-24.5 130.5v24t2 23h185q0 -4 0.5 -9t1.5 -12q3 -21 14.5 -45.5t36.5 -45.5t65 -35.5t102 -14.5q61 0 100 14t62 35.5t32.5 46t12.5 45.5q1 7 1 12v9h191q2 -11 2 -22v-23q0 -68 -25 -130.5t-75.5 -111.5t-126 -78
t-176.5 -29zM46 752q0 192 53.5 340t156 248t252.5 151.5t343 51.5q82 0 166 -7.5t157.5 -18t130 -21.5t83.5 -17l-27 -417h-295l-63 284q-5 6 -16 14t-30 15t-46 11.5t-64 4.5q-161 0 -239.5 -158.5t-78.5 -460.5q0 -146 15 -264t48.5 -201t88.5 -127.5t136 -44.5
q62 0 109 17t69 42v414l-158 22v163h658v-163l-94 -16v-532q-41 -2 -104.5 -18.5t-144 -36t-175.5 -35t-199 -15.5q-180 0 -316.5 60t-229 164t-139.5 245.5t-47 305.5z" />
    <glyph glyph-name="gbreve" unicode="&#x11f;" horiz-adv-x="1316" 
d="M45 0zM45 -224q0 39 14.5 78t40 73.5t61 62.5t78.5 45q-51 32 -72.5 78t-21.5 99q0 31 11.5 63t33.5 61t53.5 53t71.5 41q-68 23 -113.5 59t-73 82t-39 101t-11.5 115q0 89 42 160t115.5 120t172.5 75t213 26h1q147 0 243.5 -25.5t153.5 -72.5q13 18 35.5 36t50.5 33
t60.5 24.5t66.5 9.5h77v-284h-193q4 -21 5.5 -43.5t1.5 -45.5q0 -92 -31.5 -167t-97.5 -128.5t-166.5 -83t-237.5 -29.5h-1q-95 0 -168 12q-5 -24 -7 -47.5t-2 -31.5q0 -29 10.5 -47.5t35.5 -29.5t66.5 -15.5t104.5 -4.5h200q110 0 195 -18.5t142.5 -58t87.5 -100.5t30 -146
q0 -75 -28 -138t-76.5 -114t-114 -89.5t-141.5 -64t-159 -38.5t-166 -13h-1q-156 0 -262 26t-170.5 71t-92.5 104.5t-28 126.5zM611 542q37 0 62 17.5t40 49t21 75.5t6 96q0 128 -29 186t-99 58h-1q-39 0 -65.5 -17t-42.5 -48t-23 -74t-7 -95q0 -125 32 -186.5t105 -61.5h1z
M449 -18q-8 -23 -12.5 -56t-4.5 -78q0 -51 12 -93t37.5 -72t66.5 -46.5t98 -16.5h2q40 0 78 12t68 38t48 66.5t18 96.5q0 83 -41.5 115t-128.5 32h-195q-12 0 -23.5 0.5t-22.5 1.5zM604 1315q-89 0 -161.5 26.5t-124 72.5t-79.5 109t-28 136v30.5t0.5 32.5t1 29.5t2.5 21.5
h174q0 -11 1 -23t3 -24q5 -31 18 -59.5t38 -50.5t63.5 -35t93.5 -13q54 0 91 13t61 34.5t37 50t18 59.5q2 13 3 25t1 23h170q0 -8 1 -21.5t1.5 -29.5t1 -32.5t0.5 -29.5q0 -74 -28.5 -137t-80 -109.5t-122.5 -72.5t-156 -26z" />
    <glyph glyph-name="Gdotaccent" unicode="&#x120;" horiz-adv-x="1539" 
d="M46 0zM809 1638q-42 0 -77 13t-60.5 35.5t-39.5 53.5t-14 67q0 91 54 142.5t157 51.5h1q99 0 152 -47t53 -120q0 -90 -55 -143t-170 -53h-1v0zM46 752q0 192 53.5 340t156 248t252.5 151.5t343 51.5q82 0 166 -7.5t157.5 -18t130 -21.5t83.5 -17l-27 -417h-295l-63 284
q-5 6 -16 14t-30 15t-46 11.5t-64 4.5q-161 0 -239.5 -158.5t-78.5 -460.5q0 -146 15 -264t48.5 -201t88.5 -127.5t136 -44.5q62 0 109 17t69 42v414l-158 22v163h658v-163l-94 -16v-532q-41 -2 -104.5 -18.5t-144 -36t-175.5 -35t-199 -15.5q-180 0 -316.5 60t-229 164
t-139.5 245.5t-47 305.5z" />
    <glyph glyph-name="gdotaccent" unicode="&#x121;" horiz-adv-x="1316" 
d="M45 0zM45 -224q0 39 14.5 78t40 73.5t61 62.5t78.5 45q-51 32 -72.5 78t-21.5 99q0 31 11.5 63t33.5 61t53.5 53t71.5 41q-68 23 -113.5 59t-73 82t-39 101t-11.5 115q0 89 42 160t115.5 120t172.5 75t213 26h1q147 0 243.5 -25.5t153.5 -72.5q13 18 35.5 36t50.5 33
t60.5 24.5t66.5 9.5h77v-284h-193q4 -21 5.5 -43.5t1.5 -45.5q0 -92 -31.5 -167t-97.5 -128.5t-166.5 -83t-237.5 -29.5h-1q-95 0 -168 12q-5 -24 -7 -47.5t-2 -31.5q0 -29 10.5 -47.5t35.5 -29.5t66.5 -15.5t104.5 -4.5h200q110 0 195 -18.5t142.5 -58t87.5 -100.5t30 -146
q0 -75 -28 -138t-76.5 -114t-114 -89.5t-141.5 -64t-159 -38.5t-166 -13h-1q-156 0 -262 26t-170.5 71t-92.5 104.5t-28 126.5zM611 542q37 0 62 17.5t40 49t21 75.5t6 96q0 128 -29 186t-99 58h-1q-39 0 -65.5 -17t-42.5 -48t-23 -74t-7 -95q0 -125 32 -186.5t105 -61.5h1z
M449 -18q-8 -23 -12.5 -56t-4.5 -78q0 -51 12 -93t37.5 -72t66.5 -46.5t98 -16.5h2q40 0 78 12t68 38t48 66.5t18 96.5q0 83 -41.5 115t-128.5 32h-195q-12 0 -23.5 0.5t-22.5 1.5zM575 1301q-44 0 -81 14t-63.5 39t-41.5 59t-15 73q0 46 15.5 86.5t44 70.5t70 47t94.5 17h1
q52 0 91.5 -14.5t66 -40t40 -59.5t13.5 -73q0 -46 -14.5 -86t-44 -69.5t-73.5 -46.5t-102 -17h-1v0z" />
    <glyph glyph-name="Gcommaaccent" unicode="&#x122;" horiz-adv-x="1539" 
d="M46 0zM624 -220q0 39 17.5 64.5t44.5 41.5t58.5 22.5t58.5 6.5h7q37 0 68.5 -11t54.5 -32t36 -52t13 -72q-1 -55 -21 -107t-48.5 -94t-59.5 -70.5t-52 -36.5h-4l-123 28l-6 16q10 4 18 17t13.5 30t8.5 37t3 37q0 32 -12 48t-26 24q-16 12 -32.5 37t-16.5 66zM46 752
q0 192 53.5 340t156 248t252.5 151.5t343 51.5q82 0 166 -7.5t157.5 -18t130 -21.5t83.5 -17l-27 -417h-295l-63 284q-5 6 -16 14t-30 15t-46 11.5t-64 4.5q-161 0 -239.5 -158.5t-78.5 -460.5q0 -146 15 -264t48.5 -201t88.5 -127.5t136 -44.5q62 0 109 17t69 42v414
l-158 22v163h658v-163l-94 -16v-532q-41 -2 -104.5 -18.5t-144 -36t-175.5 -35t-199 -15.5q-180 0 -316.5 60t-229 164t-139.5 245.5t-47 305.5z" />
    <glyph glyph-name="gcommaaccent" unicode="&#x123;" horiz-adv-x="1315" 
d="M45 0zM797.01 1432.99q0 -38.9971 -17.499 -64.4961q-17.499 -25.498 -44.4971 -41.4971t-58.4961 -22.499q-31.498 -6.49902 -58.4971 -6.49902h-6.99902q-36.998 0 -68.4961 10.999t-54.4971 31.998q-22.998 20.999 -35.9971 51.9971q-13 30.998 -13 71.9951
q1 54.9971 20.999 106.994q19.999 51.9961 48.4971 93.9941q28.498 41.9971 59.4961 70.4951q30.998 28.499 51.9971 36.498h4l122.992 -27.998l6 -15.999q-10 -4 -17.999 -16.999q-8 -12.999 -13.499 -29.998q-5.5 -16.999 -8.5 -36.998q-2.99902 -19.999 -2.99902 -36.998
q0 -31.998 11.999 -47.9971t25.998 -23.998q15.999 -11.999 32.498 -36.998q16.499 -24.998 16.499 -65.9961zM45 -224q0 39 14.5 78t40 73.5t61 62.5t78.5 45q-51 32 -72.5 78t-21.5 99q0 31 11.5 63t33.5 61t53.5 53t71.5 41q-68 23 -113.5 59t-73 82t-39 101t-11.5 115
q0 89 42 160t115.5 120t172.5 75t213 26h1q147 0 243.5 -25.5t153.5 -72.5q13 18 35.5 36t50.5 33t60.5 24.5t66.5 9.5h77v-284h-193q4 -21 5.5 -43.5t1.5 -45.5q0 -92 -31.5 -167t-97.5 -128.5t-166.5 -83t-237.5 -29.5h-1q-95 0 -168 12q-5 -24 -7 -47.5t-2 -31.5
q0 -29 10.5 -47.5t35.5 -29.5t66.5 -15.5t104.5 -4.5h200q110 0 195 -18.5t142.5 -58t87.5 -100.5t30 -146q0 -75 -28 -138t-76.5 -114t-114 -89.5t-141.5 -64t-159 -38.5t-166 -13h-1q-156 0 -262 26t-170.5 71t-92.5 104.5t-28 126.5zM611 542q37 0 62 17.5t40 49t21 75.5
t6 96q0 128 -29 186t-99 58h-1q-39 0 -65.5 -17t-42.5 -48t-23 -74t-7 -95q0 -125 32 -186.5t105 -61.5h1zM449 -18q-8 -23 -12.5 -56t-4.5 -78q0 -51 12 -93t37.5 -72t66.5 -46.5t98 -16.5h2q40 0 78 12t68 38t48 66.5t18 96.5q0 83 -41.5 115t-128.5 32h-195
q-12 0 -23.5 0.5t-22.5 1.5z" />
    <glyph glyph-name="Hcircumflex" unicode="&#x124;" horiz-adv-x="1729" 
d="M68 0zM68 152l141 23v1156l-139 29v162h716v-162l-163 -29v-461h483v460l-150 30v162h710v-162l-146 -29v-1156l146 -23v-152h-709v152l149 24v498h-483v-499l163 -23v-152h-718v152zM436 1704l325 300h209l323 -299l-126 -109l-302 185l-303 -185z" />
    <glyph glyph-name="hcircumflex" unicode="&#x125;" horiz-adv-x="1404" 
d="M33 0zM67 152l99 20v1283l-133 30v142l452 53h6l68 -50l1 -427l-21 -187q26 23 63.5 48.5t86 47.5t108.5 36t131 14q98 0 162 -27t101.5 -81.5t52.5 -136.5t15 -192v-552l116 -21v-152h-607v151l95 21v551q0 61 -5.5 103t-19.5 68t-38.5 38t-62.5 12q-54 0 -97.5 -22
t-69.5 -48v-701l101 -21v-152h-604v152zM314 1704l325 300h209l323 -299l-126 -109l-302 185l-303 -185z" />
    <glyph glyph-name="Hbar" unicode="&#x126;" horiz-adv-x="1729" 
d="M57 152l152 23v814h-153v146h153v195l-154 30v162h732v-162l-163 -30v-195h480v195l-150 30v162h721v-162l-155 -29v-196h184v-146h-184v-814l153 -23v-152h-718v152l149 24v396h-480v-396l163 -24v-152h-730v152zM1104 767v222h-480v-222h480z" />
    <glyph glyph-name="hbar" unicode="&#x127;" horiz-adv-x="1410" 
d="M73 152l99 20v1059h-152v150h152v74l-133 30v142l452 53h6l68 -50v-249h249v-150h-248v-28l-21 -187q26 23 63.5 48.5t86 47.5t108.5 36t131 14q98 0 162 -27t101.5 -81.5t52.5 -136.5t15 -192v-552l116 -21v-152h-607v151l95 21v551q0 61 -5.5 103t-19.5 68t-38.5 38
t-62.5 12q-54 0 -97.5 -22t-69.5 -48v-701l101 -21v-152h-604v152z" />
    <glyph glyph-name="Itilde" unicode="&#x128;" 
d="M0 0zM74 152l153 24v1154l-156 30v162h734v-162l-162 -30v-1155l162 -25v-150h-731v152zM-59 1793q18 32 46 69.5t68 70t93 54t121 21.5q45 0 82.5 -11t69.5 -28t60.5 -36.5t56 -36.5t55 -28t58.5 -11q34 0 58.5 9t43 23.5t32.5 31.5t28 33l107 -108q-23 -41 -52 -80
t-66.5 -70t-85.5 -49.5t-108 -18.5q-66 0 -118 23.5t-98 52t-89.5 52t-92.5 23.5q-30 0 -54.5 -10t-44.5 -24.5t-35.5 -31.5t-28.5 -30z" />
    <glyph glyph-name="itilde" unicode="&#x129;" horiz-adv-x="751" 
d="M0 0zM81 152l112 20v723l-131 40v177l456 55h5l68 -47v-948l106 -20v-152h-616v152zM-108 1485q18 32 45.5 72t67 75t92 59t120.5 24q45 0 81.5 -11.5t67.5 -29.5t58 -38t53 -38t53 -29.5t58 -11.5q30 0 53.5 8t42.5 20t34 26.5t27 27.5l107 -95q-20 -34 -47 -74
t-65.5 -74.5t-89 -57.5t-116.5 -23q-44 0 -80 11.5t-66.5 29.5t-58 38t-54.5 38t-55.5 29.5t-61.5 11.5q-29 0 -53 -8t-43.5 -20t-35 -26.5t-28.5 -27.5z" />
    <glyph glyph-name="Imacron" unicode="&#x12a;" 
d="M71 0zM74 152l153 24v1154l-156 30v162h734v-162l-162 -30v-1155l162 -25v-150h-731v152zM82 1918h696v-220h-696v220z" />
    <glyph glyph-name="imacron" unicode="&#x12b;" horiz-adv-x="751" 
d="M32 0zM81 152l112 20v723l-131 40v177l456 55h5l68 -47v-948l106 -20v-152h-616v152zM32 1634h671v-220h-671v220z" />
    <glyph glyph-name="Ibreve" unicode="&#x12c;" 
d="M30 0zM74 152l153 24v1154l-156 30v162h734v-162l-162 -30v-1155l162 -25v-150h-731v152zM435 1615q-104 0 -180 29t-126 77t-74.5 110.5t-24.5 130.5v24t2 23h185q0 -4 0.5 -9t1.5 -12q3 -21 14.5 -45.5t36.5 -45.5t65 -35.5t102 -14.5q61 0 100 14t62 35.5t32.5 46
t12.5 45.5q1 7 1 12v9h191q2 -11 2 -22v-23q0 -68 -25 -130.5t-75.5 -111.5t-126 -78t-176.5 -29z" />
    <glyph glyph-name="ibreve" unicode="&#x12d;" horiz-adv-x="751" 
d="M0 0zM81 152l112 20v723l-131 40v177l456 55h5l68 -47v-948l106 -20v-152h-616v152zM369 1315q-89 0 -161.5 26.5t-124 72.5t-79.5 109t-28 136v30.5t0.5 32.5t1 29.5t2.5 21.5h174q0 -11 1 -23t3 -24q5 -31 18 -59.5t38 -50.5t63.5 -35t93.5 -13q54 0 91 13t61 34.5
t37 50t18 59.5q2 13 3 25t1 23h170q0 -8 1 -21.5t1.5 -29.5t1 -32.5t0.5 -29.5q0 -74 -28.5 -137t-80 -109.5t-122.5 -72.5t-156 -26z" />
    <glyph glyph-name="Iogonek" unicode="&#x12e;" 
d="M74 152l153 24v1154l-156 30v162h734v-162l-162 -30v-1155l162 -25v-150h-161q-48 -17 -86.5 -42.5t-65.5 -53.5t-41 -56.5t-14 -52.5q0 -45 35 -73.5t110 -28.5q18 0 30.5 1t24.5 3.5t24.5 6.5t29.5 11v-163q-22 -16 -54.5 -28.5t-69 -21t-74 -13t-68.5 -4.5
q-68 0 -122.5 15.5t-93 43t-59.5 66t-21 85.5q0 46 21.5 90t60 83.5t92.5 73t119 58.5h-348v152z" />
    <glyph glyph-name="iogonek" unicode="&#x12f;" horiz-adv-x="751" 
d="M406 1301q-44 0 -81 14t-63.5 39t-41.5 59t-15 73q0 46 15.5 86.5t44 70.5t70 47t94.5 17h1q52 0 91.5 -14.5t66 -40t40 -59.5t13.5 -73q0 -46 -14.5 -86t-44 -69.5t-73.5 -46.5t-102 -17h-1zM81 152l112 20v723l-131 40v177l456 55h5l68 -47v-948l106 -20v-152h-91
q-53 -17 -95.5 -42t-72 -53.5t-45 -57.5t-15.5 -54q0 -43 35 -71.5t110 -28.5q18 0 31 1t25 3.5t24.5 6.5t29.5 11v-163q-21 -16 -53.5 -28.5t-69.5 -21t-74.5 -13t-68.5 -4.5q-68 0 -123 15.5t-93.5 43t-59 66t-20.5 85.5q0 45 21 89t59 83.5t91.5 73.5t118.5 59h-280v152z
" />
    <glyph glyph-name="Idotaccent" unicode="&#x130;" 
d="M71 0zM74 152l153 24v1154l-156 30v162h734v-162l-162 -30v-1155l162 -25v-150h-731v152zM415 1638q-42 0 -77 13t-60.5 35.5t-39.5 53.5t-14 67q0 91 54 142.5t157 51.5h1q99 0 152 -47t53 -120q0 -90 -55 -143t-170 -53h-1v0z" />
    <glyph glyph-name="dotlessi" unicode="&#x131;" horiz-adv-x="751" 
d="M81 152l112 20v723l-131 40v177l456 55h5l68 -47v-948l106 -20v-152h-616v152z" />
    <glyph glyph-name="IJ" unicode="&#x132;" horiz-adv-x="1702" 
d="M71 0zM74 152l153 24v1154l-156 30v162h734v-162l-162 -30v-1155l162 -25v-150h-731v152zM1065 -10q9 26 16.5 59t13.5 76t9 97.5t3 124.5v983l-164 30v162h727v-162l-151 -29v-768q0 -202 -7.5 -338.5t-25.5 -199.5q-25 -80 -71.5 -150.5t-117.5 -127.5t-167 -98
t-220 -60l-89 134q32 12 67 34.5t68 55.5t61 77t48 100z" />
    <glyph glyph-name="ij" unicode="&#x133;" horiz-adv-x="1469" 
d="M63 0zM952 892l-132 41l1 179l446 55h5l69 -47v-1098q0 -85 -23.5 -156.5t-62.5 -129.5t-88.5 -101.5t-101.5 -73t-102.5 -44.5t-90.5 -15q-14 0 -33.5 0.5t-38.5 1.5t-35.5 2.5t-23.5 3.5l-19 145q13 0 40 4t56 21q70 39 101.5 140t31.5 278zM82 152l112 20v723l-131 40
v177l456 55h5l68 -47v-948l106 -20v-152h-616v152zM372 1301q-44 0 -81 14t-63.5 39t-41.5 59t-15 73q0 46 15.5 86.5t44 70.5t70 47t94.5 17h1q52 0 91.5 -14.5t66 -40t40 -59.5t13.5 -73q0 -46 -14.5 -86t-44 -69.5t-73.5 -46.5t-102 -17h-1v0zM1118 1301q-44 0 -81 14
t-63.5 39t-41.5 59t-15 73q0 46 15.5 86.5t44 70.5t70 47t94.5 17h1q52 0 91.5 -14.5t66 -40t40 -59.5t13.5 -73q0 -46 -14.5 -86t-44 -69.5t-73.5 -46.5t-102 -17h-1v0z" />
    <glyph glyph-name="Jcircumflex" unicode="&#x134;" horiz-adv-x="831" 
d="M0 0zM195 -10q9 26 16.5 59t13.5 76t9 97.5t3 124.5v983l-164 30v162h727v-162l-151 -29v-768q0 -202 -7.5 -338.5t-25.5 -199.5q-25 -80 -71.5 -150.5t-117.5 -127.5t-167 -98t-220 -60l-89 134q32 12 67 34.5t68 55.5t61 77t48 100zM10 1704l325 300h209l323 -299
l-126 -109l-302 185l-303 -185z" />
    <glyph glyph-name="jcircumflex" unicode="&#x135;" horiz-adv-x="715" 
d="M0 0zM199 892l-132 41l1 179l446 55h5l69 -47v-1098q0 -85 -23.5 -156.5t-62.5 -129.5t-88.5 -101.5t-101.5 -73t-102.5 -44.5t-90.5 -15q-14 0 -33.5 0.5t-38.5 1.5t-35.5 2.5t-23.5 3.5l-19 145q13 0 40 4t56 21q70 39 101.5 140t31.5 278zM-41 1398l324 403h198
l330 -402l-126 -109l-301 238l-303 -239z" />
    <glyph glyph-name="Kcommaaccent" unicode="&#x136;" horiz-adv-x="1586" 
d="M57 0zM624 -220q0 39 17.5 64.5t44.5 41.5t58.5 22.5t58.5 6.5h7q37 0 68.5 -11t54.5 -32t36 -52t13 -72q-1 -55 -21 -107t-48.5 -94t-59.5 -70.5t-52 -36.5h-4l-123 28l-6 16q10 4 18 17t13.5 30t8.5 37t3 37q0 32 -12 48t-26 24q-16 12 -32.5 37t-16.5 66zM57 152
l152 24v1154l-152 30v162h706v-162l-140 -31v-599l449 600l-164 30l-1 162h622v-161l-190 -30l-331 -378q46 -43 95.5 -113.5t98 -152.5t94 -166.5t85 -156.5t71 -123.5t50.5 -65.5l97 -23v-152h-473q-18 0 -42 35.5t-53 93.5t-61.5 130.5t-66.5 146.5t-69 142.5t-69 118.5
l-142 -170v-322l162 -24v-151h-728v152z" />
    <glyph glyph-name="kcommaaccent" unicode="&#x137;" horiz-adv-x="1373" 
d="M36 0zM562 -220q0 39 17.5 64.5t44.5 41.5t58.5 22.5t58.5 6.5h7q37 0 68.5 -11t54.5 -32t36 -52t13 -72q-1 -55 -21 -107t-48.5 -94t-59.5 -70.5t-52 -36.5h-4l-123 28l-6 16q10 4 18 17t13.5 30t8.5 37t3 37q0 32 -12 48t-26 24q-16 12 -32.5 37t-16.5 66zM64 152
l103 20v1283l-131 30v142l452 53h5l68 -50v-933l-7 -91l340 364l-149 22v145h589v-145l-175 -28l-183 -169l317 -622l96 -21v-152h-607v151l76 22l-159 369l-147 -153l7 -105v-111l103 -22v-151h-598v152z" />
    <glyph glyph-name="kgreenlandic" unicode="&#x138;" horiz-adv-x="1416" 
d="M93 152l111 20l2 723l-111 39v184l415 49h5l90 -47v-406l-8 -141l351 395l-168 21v148h606v-148l-170 -20l-201 -183l322 -612l99 -22v-152h-604v151l72 20l-158 355l-146 -159l9 -89v-105l100 -22v-151h-616v152z" />
    <glyph glyph-name="Lacute" unicode="&#x139;" horiz-adv-x="1318" 
d="M60 0zM265 1695l295 319h1l242 -160q-48 -50 -105.5 -94.5t-113 -79.5t-102 -57.5t-72.5 -29.5h-1zM60 152l149 23v1155l-148 30v162h754v-162l-190 -30v-1151l314 22l140 435l225 -28l-53 -608h-1191v152z" />
    <glyph glyph-name="lacute" unicode="&#x13a;" horiz-adv-x="719" 
d="M150 1695l295 319h1l242 -160q-48 -50 -105.5 -94.5t-113 -79.5t-102 -57.5t-72.5 -29.5h-1zM56 152l111 21v1124l-133 31v141l456 54h5l68 -50v-1300l112 -21v-152h-619v152z" />
    <glyph glyph-name="Lcommaaccent" unicode="&#x13b;" horiz-adv-x="1311" 
d="M60 0zM527 -220q0 39 17.5 64.5t44.5 41.5t58.5 22.5t58.5 6.5h7q37 0 68.5 -11t54.5 -32t36 -52t13 -72q-1 -55 -21 -107t-48.5 -94t-59.5 -70.5t-52 -36.5h-4l-123 28l-6 16q10 4 18 17t13.5 30t8.5 37t3 37q0 32 -12 48t-26 24q-16 12 -32.5 37t-16.5 66zM60 152
l149 23v1155l-148 30v162h754v-162l-190 -30v-1151l314 22l140 435l225 -28l-53 -608h-1191v152z" />
    <glyph glyph-name="lcommaaccent" unicode="&#x13c;" horiz-adv-x="715" 
d="M34 0zM176 -220q0 39 17.5 64.5t44.5 41.5t58.5 22.5t58.5 6.5h7q37 0 68.5 -11t54.5 -32t36 -52t13 -72q-1 -55 -21 -107t-48.5 -94t-59.5 -70.5t-52 -36.5h-4l-123 28l-6 16q10 4 18 17t13.5 30t8.5 37t3 37q0 32 -12 48t-26 24q-16 12 -32.5 37t-16.5 66zM56 152
l111 21v1282l-133 30v142l452 53h6l68 -50v-1457l111 -21v-152h-615v152z" />
    <glyph glyph-name="Lcaron" unicode="&#x13d;" horiz-adv-x="1318" 
d="M60 0zM60 152l149 23v1155l-148 30v162h754v-162l-190 -30v-1151l314 22l140 435l225 -28l-53 -608h-1191v152zM936 992l-9 26q4 16 8.5 37t8 56t6 88.5t2.5 134.5q0 62 -6.5 108.5t-15.5 79.5t-18.5 52.5t-15.5 27.5l9 42l259 56q20 -24 39 -93.5t19 -181.5
q0 -96 -15.5 -177t-36 -142.5t-41.5 -101t-32 -51.5z" />
    <glyph glyph-name="lcaron" unicode="&#x13e;" horiz-adv-x="1018" 
d="M34 0zM56 152l111 21v1282l-133 30v142l452 53h6l68 -50v-1457l111 -21v-152h-615v152zM725 992l-9 26q4 16 8.5 37t8 56t6 88.5t2.5 134.5q0 62 -6.5 108.5t-15.5 79.5t-18.5 52.5t-15.5 27.5l9 42l259 56q20 -24 39 -93.5t19 -181.5q0 -96 -15.5 -177t-36 -142.5
t-41.5 -101t-32 -51.5z" />
    <glyph glyph-name="Ldot" unicode="&#x13f;" horiz-adv-x="1402" 
d="M60 0zM60 152l149 23v1155l-148 30v162h754v-162l-190 -30v-1151l314 22l140 435l225 -28l-53 -608h-1191v152zM907 922q0 46 18 83.5t49 64.5t73.5 41.5t90.5 14.5t86 -16t64.5 -42.5t41 -61t14.5 -71.5q0 -49 -17.5 -87t-49 -63.5t-75.5 -39t-98 -13.5q-38 0 -73 14
t-63 39.5t-44.5 60t-16.5 76.5z" />
    <glyph glyph-name="ldot" unicode="&#x140;" horiz-adv-x="1085" 
d="M36 0zM58 152l111 21v1282l-133 30v142l452 53h6l68 -50v-1457l111 -21v-152h-615v152zM690 759q0 46 18 83.5t49 64.5t73.5 41.5t90.5 14.5t86 -16t64.5 -42.5t41 -61t14.5 -71.5q0 -49 -17.5 -87t-49 -63.5t-75.5 -39t-98 -13.5q-38 0 -73 14t-63 39.5t-44.5 60
t-16.5 76.5z" />
    <glyph glyph-name="Lslash" unicode="&#x141;" horiz-adv-x="1311" 
d="M60 152l149 23v400l-165 -62v162l165 65v590l-148 30v162h754v-162l-190 -30v-430l320 128v-171l-320 -125v-553l314 22l140 435l225 -28l-53 -608h-1191v152z" />
    <glyph glyph-name="lslash" unicode="&#x142;" horiz-adv-x="763" 
d="M94 152l111 21v475l-179 -78v172l179 80v633l-133 30v142l452 53h6l68 -50v-653l184 83v-181l-184 -80v-626l111 -21v-152h-615v152z" />
    <glyph glyph-name="Nacute" unicode="&#x143;" horiz-adv-x="1661" 
d="M55 0zM685 1695l295 319h1l242 -160q-48 -50 -105.5 -94.5t-113 -79.5t-102 -57.5t-72.5 -29.5h-1zM55 152l160 23v1156l-160 29v162h579l510 -810l116 -260v879l-173 29v162h544v-162l-151 -29v-1331h-369l-553 893l-123 270v-987l227 -24v-152h-607v152z" />
    <glyph glyph-name="nacute" unicode="&#x144;" horiz-adv-x="1443" 
d="M85 0zM91 152l103 20v723l-109 39v184l413 49h5l60 -47v-69l-2 -48q32 31 74.5 60t93.5 51t111 35t126 13q88 0 150.5 -22.5t102.5 -74t59 -135.5t19 -206v-551l100 -19v-154h-592v152l85 21v550q0 64 -6 106.5t-20.5 68t-38.5 36t-60 10.5q-29 0 -54 -7.5t-46 -18
t-37.5 -22.5t-28.5 -22v-702l100 -20v-152h-608v152zM528 1403l381 452h1l217 -199q-20 -34 -52 -71.5t-71 -74.5t-82.5 -72t-86.5 -65t-83 -52.5t-72 -34.5h-2z" />
    <glyph glyph-name="Ncommaaccent" unicode="&#x145;" horiz-adv-x="1661" 
d="M55 0zM689 -220q0 39 17.5 64.5t44.5 41.5t58.5 22.5t58.5 6.5h7q37 0 68.5 -11t54.5 -32t36 -52t13 -72q-1 -55 -21 -107t-48.5 -94t-59.5 -70.5t-52 -36.5h-4l-123 28l-6 16q10 4 18 17t13.5 30t8.5 37t3 37q0 32 -12 48t-26 24q-16 12 -32.5 37t-16.5 66zM55 152
l160 23v1156l-160 29v162h579l510 -810l116 -260v879l-173 29v162h544v-162l-151 -29v-1331h-369l-553 893l-123 270v-987l227 -24v-152h-607v152z" />
    <glyph glyph-name="ncommaaccent" unicode="&#x146;" horiz-adv-x="1443" 
d="M85 0zM91 152l103 20v723l-109 39v184l413 49h5l60 -47v-69l-2 -48q32 31 74.5 60t93.5 51t111 35t126 13q88 0 150.5 -22.5t102.5 -74t59 -135.5t19 -206v-551l100 -19v-154h-592v152l85 21v550q0 64 -6 106.5t-20.5 68t-38.5 36t-60 10.5q-29 0 -54 -7.5t-46 -18
t-37.5 -22.5t-28.5 -22v-702l100 -20v-152h-608v152zM542 -220q0 39 17.5 64.5t44.5 41.5t58.5 22.5t58.5 6.5h7q37 0 68.5 -11t54.5 -32t36 -52t13 -72q-1 -55 -21 -107t-48.5 -94t-59.5 -70.5t-52 -36.5h-4l-123 28l-6 16q10 4 18 17t13.5 30t8.5 37t3 37q0 32 -12 48
t-26 24q-16 12 -32.5 37t-16.5 66z" />
    <glyph glyph-name="Ncaron" unicode="&#x147;" horiz-adv-x="1661" 
d="M55 0zM443 1906l126 108l283 -174l302 174l126 -109l-323 -289h-209zM55 152l160 23v1156l-160 29v162h579l510 -810l116 -260v879l-173 29v162h544v-162l-151 -29v-1331h-369l-553 893l-123 270v-987l227 -24v-152h-607v152z" />
    <glyph glyph-name="ncaron" unicode="&#x148;" horiz-adv-x="1443" 
d="M85 0zM91 152l103 20v723l-109 39v184l413 49h5l60 -47v-69l-2 -48q32 31 74.5 60t93.5 51t111 35t126 13q88 0 150.5 -22.5t102.5 -74t59 -135.5t19 -206v-551l100 -19v-154h-592v152l85 21v550q0 64 -6 106.5t-20.5 68t-38.5 36t-60 10.5q-29 0 -54 -7.5t-46 -18
t-37.5 -22.5t-28.5 -22v-702l100 -20v-152h-608v152zM323 1695l121 108l302 -246l303 247l125 -109l-330 -403h-198z" />
    <glyph glyph-name="napostrophe" unicode="&#x149;" horiz-adv-x="1838" 
d="M43 0zM236.026 1883.05q56.9961 0 103.993 -27.998t80.4951 -75.4961q33.498 -47.4971 51.9971 -108.493t18.499 -126.992q0 -121.992 -34.498 -229.485q-34.498 -107.494 -87.4951 -193.488q-52.9961 -85.9951 -114.992 -146.991t-117.993 -89.9951h-2l-90.9941 77.9961
v38.9971q16.999 16.999 40.9971 47.4971q23.999 30.498 45.9971 74.4961q21.999 43.9971 36.998 101.993q14.999 57.9971 14.999 130.992q0 46.9971 -9.49902 79.4951q-9.5 32.498 -23.999 57.9961q-14.499 25.499 -30.998 46.4971q-16.499 20.999 -30.998 44.498
q-14.499 23.498 -23.998 52.9961q-9.5 29.499 -9.5 70.4961q0 36.998 13.999 68.9961t38.498 55.4961q24.498 23.499 57.4961 36.998t71.9961 13.499h1v0zM487 152l103 20v723l-109 39v184l413 49h5l60 -47v-69l-2 -48q32 31 74.5 60t93.5 51t111 35t126 13
q88 0 150.5 -22.5t102.5 -74t59 -135.5t19 -206v-551l100 -19v-154h-592v152l85 21v550q0 64 -6 106.5t-20.5 68t-38.5 36t-60 10.5q-29 0 -54 -7.5t-46 -18t-37.5 -22.5t-28.5 -22v-702l100 -20v-152h-608v152z" />
    <glyph glyph-name="Eng" unicode="&#x14a;" horiz-adv-x="1644" 
d="M46 150l182 25v1175l-182 36v136h581l508 -811l128 -267v887l-184 31v160h575v-160l-172 -31v-901q0 -108 -11 -191.5t-29 -147.5t-41 -111.5t-47 -83.5t-48 -63t-43 -50q-43 -48 -90.5 -83.5t-96 -61t-97 -40.5t-93.5 -22l-74 120q93 30 157.5 85t109.5 128
q11 17 21 37.5t20 43.5l-581 942l-91 197v-954l199 -25v-150h-601v150z" />
    <glyph glyph-name="eng" unicode="&#x14b;" horiz-adv-x="1431" 
d="M94 152l102 20v725l-109 39v184l414 49h5l59 -48v-63l-1 -53q33 31 75.5 59.5t93.5 50.5t110 35t125 13q88 0 151 -23.5t103 -75t58.5 -134.5t18.5 -201v-707q0 -128 -31.5 -231.5t-94.5 -178t-158.5 -115.5t-222.5 -42h-22.5t-34.5 0.5t-33.5 2.5t-19.5 5l-10 156
q8 -1 22 0.5t29.5 4.5t31 7.5t25.5 9.5q42 20 65 59t33.5 91.5t12 117.5t1.5 137v683q0 60 -6.5 101.5t-22 66.5t-40 36t-60.5 11q-29 0 -53.5 -7.5t-45 -18.5t-36.5 -22.5t-26 -20.5v-703l99 -21v-151h-607v152z" />
    <glyph glyph-name="Omacron" unicode="&#x14c;" horiz-adv-x="1516" 
d="M53 0zM412 1918h696v-220h-696v220zM750 -23q-190 -1 -322.5 55.5t-216 160t-121 248t-37.5 320.5q0 178 49 323t141 247t224 157t299 55q190 -1 322.5 -54t216 -150.5t121 -236.5t37.5 -312q0 -179 -49 -328t-141.5 -256.5t-224.5 -167.5t-298 -61zM756 128
q121 0 186 169t65 492q0 175 -17 291.5t-49.5 185.5t-78.5 97.5t-103 28.5q-122 0 -186.5 -153.5t-64.5 -475.5q0 -176 17 -297t49.5 -196t78.5 -108.5t103 -33.5z" />
    <glyph glyph-name="omacron" unicode="&#x14d;" horiz-adv-x="1270" 
d="M54 0zM295 1634h671v-220h-671v220zM54 559q0 158 47.5 273t129.5 189.5t190 110.5t230 36q124 0 228 -36t179 -109t117 -182t42 -255q0 -165 -47.5 -280.5t-129 -188.5t-190 -106.5t-230.5 -33.5q-123 0 -227 36.5t-179 109t-117.5 181.5t-42.5 255zM643 134
q38 0 65.5 24t45.5 75t27 131.5t9 193.5q0 121 -8 207t-27 140.5t-49 80t-73 25.5q-38 0 -66.5 -24t-48 -75t-29.5 -131.5t-10 -193.5q0 -121 9.5 -207t29.5 -140.5t51 -80t74 -25.5z" />
    <glyph glyph-name="Obreve" unicode="&#x14e;" horiz-adv-x="1516" 
d="M53 0zM764 1615q-104 0 -180 29t-126 77t-74.5 110.5t-24.5 130.5v24t2 23h185q0 -4 0.5 -9t1.5 -12q3 -21 14.5 -45.5t36.5 -45.5t65 -35.5t102 -14.5q61 0 100 14t62 35.5t32.5 46t12.5 45.5q1 7 1 12v9h191q2 -11 2 -22v-23q0 -68 -25 -130.5t-75.5 -111.5t-126 -78
t-176.5 -29zM750 -23q-190 -1 -322.5 55.5t-216 160t-121 248t-37.5 320.5q0 178 49 323t141 247t224 157t299 55q190 -1 322.5 -54t216 -150.5t121 -236.5t37.5 -312q0 -179 -49 -328t-141.5 -256.5t-224.5 -167.5t-298 -61zM756 128q121 0 186 169t65 492q0 175 -17 291.5
t-49.5 185.5t-78.5 97.5t-103 28.5q-122 0 -186.5 -153.5t-64.5 -475.5q0 -176 17 -297t49.5 -196t78.5 -108.5t103 -33.5z" />
    <glyph glyph-name="obreve" unicode="&#x14f;" horiz-adv-x="1270" 
d="M54 0zM54 559q0 158 47.5 273t129.5 189.5t190 110.5t230 36q124 0 228 -36t179 -109t117 -182t42 -255q0 -165 -47.5 -280.5t-129 -188.5t-190 -106.5t-230.5 -33.5q-123 0 -227 36.5t-179 109t-117.5 181.5t-42.5 255zM643 134q38 0 65.5 24t45.5 75t27 131.5t9 193.5
q0 121 -8 207t-27 140.5t-49 80t-73 25.5q-38 0 -66.5 -24t-48 -75t-29.5 -131.5t-10 -193.5q0 -121 9.5 -207t29.5 -140.5t51 -80t74 -25.5zM631 1315q-89 0 -161.5 26.5t-124 72.5t-79.5 109t-28 136v30.5t0.5 32.5t1 29.5t2.5 21.5h174q0 -11 1 -23t3 -24q5 -31 18 -59.5
t38 -50.5t63.5 -35t93.5 -13q54 0 91 13t61 34.5t37 50t18 59.5q2 13 3 25t1 23h170q0 -8 1 -21.5t1.5 -29.5t1 -32.5t0.5 -29.5q0 -74 -28.5 -137t-80 -109.5t-122.5 -72.5t-156 -26z" />
    <glyph glyph-name="Ohungarumlaut" unicode="&#x150;" horiz-adv-x="1516" 
d="M53 0zM750 -23q-190 -1 -322.5 55.5t-216 160t-121 248t-37.5 320.5q0 178 49 323t141 247t224 157t299 55q190 -1 322.5 -54t216 -150.5t121 -236.5t37.5 -312q0 -179 -49 -328t-141.5 -256.5t-224.5 -167.5t-298 -61zM756 128q121 0 186 169t65 492q0 175 -17 291.5
t-49.5 185.5t-78.5 97.5t-103 28.5q-122 0 -186.5 -153.5t-64.5 -475.5q0 -176 17 -297t49.5 -196t78.5 -108.5t103 -33.5zM903 1710l302 304l198 -147q-26 -37 -69 -79t-92.5 -81t-99 -71t-87.5 -50zM323 1710l295 304l205 -151q-32 -41 -76.5 -82.5t-92.5 -78.5
t-95.5 -67.5t-84.5 -48.5z" />
    <glyph glyph-name="ohungarumlaut" unicode="&#x151;" horiz-adv-x="1270" 
d="M54 0zM758 1431l328 402l200 -164q-14 -25 -41.5 -56t-63.5 -65t-76.5 -67.5t-79.5 -63.5t-74 -53.5t-58 -35.5zM221 1431l321 402l208 -168q-17 -27 -46.5 -59t-66 -65.5t-76.5 -66t-78.5 -61t-71.5 -51t-55 -34.5zM54 559q0 158 47.5 273t129.5 189.5t190 110.5t230 36
q124 0 228 -36t179 -109t117 -182t42 -255q0 -165 -47.5 -280.5t-129 -188.5t-190 -106.5t-230.5 -33.5q-123 0 -227 36.5t-179 109t-117.5 181.5t-42.5 255zM643 134q38 0 65.5 24t45.5 75t27 131.5t9 193.5q0 121 -8 207t-27 140.5t-49 80t-73 25.5q-38 0 -66.5 -24
t-48 -75t-29.5 -131.5t-10 -193.5q0 -121 9.5 -207t29.5 -140.5t51 -80t74 -25.5z" />
    <glyph glyph-name="OE" unicode="&#x152;" horiz-adv-x="2139" 
d="M748 -16q-185 0 -317.5 57t-217.5 159.5t-125 245.5t-40 315q0 178 47 323t138.5 247t225.5 157.5t307 55.5q53 0 102 -8t94 -25v11h1017l28 -384h-186l-74 210l-359 26v-511l207 7l37 164h167v-534h-167l-36 177l-208 7v-528l402 31l151 260l190 -55l-65 -392h-1104v37
q-49 -28 -102.5 -40.5t-111.5 -12.5zM755 129q77 0 128 74t79 201v772q-15 65 -35.5 107.5t-47 67t-59 34.5t-71.5 10q-122 0 -184.5 -156.5t-62.5 -475.5q0 -172 18 -292.5t51 -196t79.5 -110.5t104.5 -35z" />
    <glyph glyph-name="oe" unicode="&#x153;" horiz-adv-x="1897" 
d="M53 558q0 158 47.5 273t129 190t190.5 111t231 36q114 0 204.5 -25.5t156.5 -83.5q138 108 358 108q116 0 202.5 -29t144.5 -83t87.5 -132t31.5 -176q1 -73 -4.5 -125.5t-13.5 -94.5h-613q15 -162 81.5 -237t187.5 -75q39 0 80.5 7.5t80 18.5t72 24.5t56.5 25.5l61 -139
q-21 -24 -66 -54t-106 -57t-134 -45.5t-151 -18.5q-134 0 -230 31.5t-162 90.5q-69 -62 -158.5 -92t-198.5 -30q-122 0 -225.5 35.5t-179 107.5t-118 181.5t-42.5 256.5zM1460 676v18.5t0.5 23.5t0.5 23.5v18.5q0 57 -5 103.5t-18 79.5t-35.5 50.5t-56.5 17.5q-32 0 -58 -12
t-45.5 -47.5t-30.5 -101.5t-12 -174h260zM641 134q38 0 65 23t44.5 74t26 131.5t8.5 196.5q0 127 -8.5 213.5t-26.5 139.5t-47.5 76t-71.5 23q-38 0 -66.5 -23t-47.5 -74t-28 -132t-9 -196q0 -128 9.5 -214.5t29.5 -139t50 -75.5t72 -23z" />
    <glyph glyph-name="Racute" unicode="&#x154;" horiz-adv-x="1526" 
d="M60 0zM60 152l149 23v1155l-145 30v162h340q46 0 85.5 1.5t80.5 4t87 4t105 1.5q168 0 285 -22.5t189.5 -71.5t105.5 -126.5t33 -187.5q0 -59 -15.5 -123t-50 -122.5t-88.5 -105t-132 -71.5q66 -21 115 -66.5t86 -103t64 -119t50 -114t44 -89t45 -42.5l50 -17v-152h-443
q-19 0 -36.5 25.5t-35.5 67.5t-36 96l-37 111t-39 113.5t-43 103t-48 78.5t-54 41h-147v-462l173 -22v-152h-737v152zM624 789q6 -3 21 -4.5t33 -2t35 -0.5h27q94 0 146 79t52 251q0 73 -12.5 125t-38 85t-65.5 48t-95 15q-43 0 -67.5 -2.5t-35.5 -6.5v-587zM575 1695
l295 319h1l242 -160q-48 -50 -105.5 -94.5t-113 -79.5t-102 -57.5t-72.5 -29.5h-1z" />
    <glyph glyph-name="racute" unicode="&#x155;" horiz-adv-x="1004" 
d="M84 0zM256 1403l381 452h1l217 -199q-20 -34 -52 -71.5t-71 -74.5t-82.5 -72t-86.5 -65t-83 -52.5t-72 -34.5h-2zM84 152l111 20v723l-109 39v184l369 49h5l66 -47v-56l-7 -175h8q9 39 38.5 87.5t76 91t106.5 71.5t131 29q31 0 54.5 -5t34.5 -13v-416q-15 11 -32.5 22
t-40.5 20t-52.5 14.5t-68.5 5.5q-64 0 -113 -13t-71 -28v-582l209 -22v-151h-715v152z" />
    <glyph glyph-name="Rcommaaccent" unicode="&#x156;" horiz-adv-x="1526" 
d="M60 0zM625 -220q0 39 17.5 64.5t44.5 41.5t58.5 22.5t58.5 6.5h7q37 0 68.5 -11t54.5 -32t36 -52t13 -72q-1 -55 -21 -107t-48.5 -94t-59.5 -70.5t-52 -36.5h-4l-123 28l-6 16q10 4 18 17t13.5 30t8.5 37t3 37q0 32 -12 48t-26 24q-16 12 -32.5 37t-16.5 66zM60 152
l149 23v1155l-145 30v162h340q46 0 85.5 1.5t80.5 4t87 4t105 1.5q168 0 285 -22.5t189.5 -71.5t105.5 -126.5t33 -187.5q0 -59 -15.5 -123t-50 -122.5t-88.5 -105t-132 -71.5q66 -21 115 -66.5t86 -103t64 -119t50 -114t44 -89t45 -42.5l50 -17v-152h-443q-19 0 -36.5 25.5
t-35.5 67.5t-36 96l-37 111t-39 113.5t-43 103t-48 78.5t-54 41h-147v-462l173 -22v-152h-737v152zM624 789q6 -3 21 -4.5t33 -2t35 -0.5h27q94 0 146 79t52 251q0 73 -12.5 125t-38 85t-65.5 48t-95 15q-43 0 -67.5 -2.5t-35.5 -6.5v-587z" />
    <glyph glyph-name="rcommaaccent" unicode="&#x157;" horiz-adv-x="1004" 
d="M84 0zM248 -220q0 39 17.5 64.5t44.5 41.5t58.5 22.5t58.5 6.5h7q37 0 68.5 -11t54.5 -32t36 -52t13 -72q-1 -55 -21 -107t-48.5 -94t-59.5 -70.5t-52 -36.5h-4l-123 28l-6 16q10 4 18 17t13.5 30t8.5 37t3 37q0 32 -12 48t-26 24q-16 12 -32.5 37t-16.5 66zM84 152
l111 20v723l-109 39v184l369 49h5l66 -47v-56l-7 -175h8q9 39 38.5 87.5t76 91t106.5 71.5t131 29q31 0 54.5 -5t34.5 -13v-416q-15 11 -32.5 22t-40.5 20t-52.5 14.5t-68.5 5.5q-64 0 -113 -13t-71 -28v-582l209 -22v-151h-715v152z" />
    <glyph glyph-name="Rcaron" unicode="&#x158;" horiz-adv-x="1526" 
d="M60 0zM326 1906l126 108l283 -174l302 174l126 -109l-323 -289h-209zM60 152l149 23v1155l-145 30v162h340q46 0 85.5 1.5t80.5 4t87 4t105 1.5q168 0 285 -22.5t189.5 -71.5t105.5 -126.5t33 -187.5q0 -59 -15.5 -123t-50 -122.5t-88.5 -105t-132 -71.5
q66 -21 115 -66.5t86 -103t64 -119t50 -114t44 -89t45 -42.5l50 -17v-152h-443q-19 0 -36.5 25.5t-35.5 67.5t-36 96l-37 111t-39 113.5t-43 103t-48 78.5t-54 41h-147v-462l173 -22v-152h-737v152zM624 789q6 -3 21 -4.5t33 -2t35 -0.5h27q94 0 146 79t52 251
q0 73 -12.5 125t-38 85t-65.5 48t-95 15q-43 0 -67.5 -2.5t-35.5 -6.5v-587z" />
    <glyph glyph-name="rcaron" unicode="&#x159;" horiz-adv-x="1004" 
d="M51 0zM51 1695l121 108l302 -246l303 247l125 -109l-330 -403h-198zM84 152l111 20v723l-109 39v184l369 49h5l66 -47v-56l-7 -175h8q9 39 38.5 87.5t76 91t106.5 71.5t131 29q31 0 54.5 -5t34.5 -13v-416q-15 11 -32.5 22t-40.5 20t-52.5 14.5t-68.5 5.5q-64 0 -113 -13
t-71 -28v-582l209 -22v-151h-715v152z" />
    <glyph glyph-name="Sacute" unicode="&#x15a;" horiz-adv-x="1262" 
d="M103 0zM120 454h222l57 -257q16 -22 66 -41.5t136 -19.5q113 0 164.5 48.5t51.5 130.5q0 47 -22.5 85t-66 72t-106 67t-141.5 71q-57 27 -122.5 68t-121.5 101t-93.5 142t-37.5 191q0 81 30.5 158t97.5 138t174 98t260 37q96 0 171 -11t131 -24.5t94 -25t61 -12.5
l-13 -375h-217l-49 251q-10 15 -50.5 29.5t-103.5 14.5q-55 0 -92 -15t-59.5 -39t-32.5 -54.5t-10 -61.5q0 -56 31 -100t82.5 -81.5t117.5 -71.5t136 -69q37 -18 78.5 -41t82 -52t77.5 -64.5t65 -79.5t44.5 -96.5t16.5 -115.5q0 -49 -10 -103t-35 -106.5t-68.5 -100
t-110.5 -83.5t-160 -57.5t-218 -21.5q-97 0 -181.5 13t-152 29.5t-116 30.5t-74.5 16zM509 1695l295 319h1l242 -160q-48 -50 -105.5 -94.5t-113 -79.5t-102 -57.5t-72.5 -29.5h-1z" />
    <glyph glyph-name="sacute" unicode="&#x15b;" horiz-adv-x="1104" 
d="M82 0zM355 1403l381 452h1l217 -199q-20 -34 -52 -71.5t-71 -74.5t-82.5 -72t-86.5 -65t-83 -52.5t-72 -34.5h-2zM88 336h224l58 -162q6 -9 21 -18t36 -16t44.5 -11.5t45.5 -4.5q35 0 61.5 8.5t44.5 23.5t27.5 35t9.5 42q0 39 -27.5 67t-73.5 53t-105 50t-123 58
q-57 28 -103 63t-78.5 79t-50 98t-17.5 120q0 71 31 134t91.5 110t151 74t209.5 27q86 0 150.5 -9t114 -20t87 -20.5t67.5 -11.5v-290l-214 1l-58 159q-8 15 -39 29.5t-79 14.5q-70 0 -108 -29.5t-38 -79.5q0 -36 21 -63t56.5 -49.5t81.5 -42.5t96 -42q64 -28 127 -61
t113 -78t81 -104.5t31 -140.5q0 -68 -27 -131t-86 -112.5t-153.5 -79t-229.5 -29.5q-94 0 -168 11t-131.5 25t-99.5 27t-72 17v279z" />
    <glyph glyph-name="Scircumflex" unicode="&#x15c;" horiz-adv-x="1262" 
d="M103 0zM120 454h222l57 -257q16 -22 66 -41.5t136 -19.5q113 0 164.5 48.5t51.5 130.5q0 47 -22.5 85t-66 72t-106 67t-141.5 71q-57 27 -122.5 68t-121.5 101t-93.5 142t-37.5 191q0 81 30.5 158t97.5 138t174 98t260 37q96 0 171 -11t131 -24.5t94 -25t61 -12.5
l-13 -375h-217l-49 251q-10 15 -50.5 29.5t-103.5 14.5q-55 0 -92 -15t-59.5 -39t-32.5 -54.5t-10 -61.5q0 -56 31 -100t82.5 -81.5t117.5 -71.5t136 -69q37 -18 78.5 -41t82 -52t77.5 -64.5t65 -79.5t44.5 -96.5t16.5 -115.5q0 -49 -10 -103t-35 -106.5t-68.5 -100
t-110.5 -83.5t-160 -57.5t-218 -21.5q-97 0 -181.5 13t-152 29.5t-116 30.5t-74.5 16zM238 1704l325 300h209l323 -299l-126 -109l-302 185l-303 -185z" />
    <glyph glyph-name="scircumflex" unicode="&#x15d;" horiz-adv-x="1104" 
d="M82 0zM149 1398l324 403h198l330 -402l-126 -109l-301 238l-303 -239zM88 336h224l58 -162q6 -9 21 -18t36 -16t44.5 -11.5t45.5 -4.5q35 0 61.5 8.5t44.5 23.5t27.5 35t9.5 42q0 39 -27.5 67t-73.5 53t-105 50t-123 58q-57 28 -103 63t-78.5 79t-50 98t-17.5 120
q0 71 31 134t91.5 110t151 74t209.5 27q86 0 150.5 -9t114 -20t87 -20.5t67.5 -11.5v-290l-214 1l-58 159q-8 15 -39 29.5t-79 14.5q-70 0 -108 -29.5t-38 -79.5q0 -36 21 -63t56.5 -49.5t81.5 -42.5t96 -42q64 -28 127 -61t113 -78t81 -104.5t31 -140.5q0 -68 -27 -131
t-86 -112.5t-153.5 -79t-229.5 -29.5q-94 0 -168 11t-131.5 25t-99.5 27t-72 17v279z" />
    <glyph glyph-name="Scedilla" unicode="&#x15e;" horiz-adv-x="1262" 
d="M120 454h222l57 -257q16 -22 66 -41.5t136 -19.5q113 0 164.5 48.5t51.5 130.5q0 47 -22.5 85t-66 72t-106 67t-141.5 71q-57 27 -122.5 68t-121.5 101t-93.5 142t-37.5 191q0 81 30.5 158t97.5 138t174 98t260 37q96 0 171 -11t131 -24.5t94 -25t61 -12.5l-13 -375h-217
l-49 251q-10 15 -50.5 29.5t-103.5 14.5q-55 0 -92 -15t-59.5 -39t-32.5 -54.5t-10 -61.5q0 -56 31 -100t82.5 -81.5t117.5 -71.5t136 -69q37 -18 78.5 -41t82 -52t77.5 -64.5t65 -79.5t44.5 -96.5t16.5 -115.5q0 -44 -8 -93t-28 -96.5t-54 -92.5t-86 -81.5t-123.5 -63
t-167.5 -37.5q19 -20 41.5 -49.5t41.5 -66t30.5 -79t9.5 -87.5q-4 -71 -27 -117.5t-64.5 -74.5t-100.5 -39.5t-135 -11.5h-1q-17 0 -37 2.5t-39.5 6.5t-37 9.5t-30.5 11.5l1 214q21 -7 46 -10t36 -3h1q33 0 58.5 4t43 18t26 42t8.5 75q0 39 -15 79t-31 69q-90 3 -167.5 16.5
t-140 28.5t-107.5 28t-69 15z" />
    <glyph glyph-name="scedilla" unicode="&#x15f;" horiz-adv-x="1104" 
d="M88 336h224l58 -162q6 -9 21 -18t36 -16t44.5 -11.5t45.5 -4.5q35 0 61.5 8.5t44.5 23.5t27.5 35t9.5 42q0 39 -27.5 67t-73.5 53t-105 50t-123 58q-57 28 -103 63t-78.5 79t-50 98t-17.5 120q0 71 31 134t91.5 110t151 74t209.5 27q86 0 150.5 -9t114 -20t87 -20.5
t67.5 -11.5v-290l-214 1l-58 159q-8 15 -39 29.5t-79 14.5q-70 0 -108 -29.5t-38 -79.5q0 -36 21 -63t56.5 -49.5t81.5 -42.5t96 -42q64 -28 127 -61t113 -78t81 -104.5t31 -140.5q0 -61 -22 -119t-69.5 -105t-123.5 -80t-184 -43q19 -21 41 -50.5t40.5 -65.5t29.5 -77
t9 -86q-4 -71 -27 -117.5t-64.5 -74.5t-100.5 -39.5t-135 -11.5h-1q-17 0 -37 2.5t-39.5 6.5t-37 9.5t-30.5 11.5l1 214q21 -7 46 -10t36 -3h1q33 0 58.5 4t43 18t26 42t8.5 75q0 39 -15.5 80t-31.5 70q-75 4 -135.5 15.5t-108 24t-83.5 23.5t-62 14v279z" />
    <glyph glyph-name="Scaron" unicode="&#x160;" horiz-adv-x="1262" 
d="M103 0zM120 454h222l57 -257q16 -22 66 -41.5t136 -19.5q113 0 164.5 48.5t51.5 130.5q0 47 -22.5 85t-66 72t-106 67t-141.5 71q-57 27 -122.5 68t-121.5 101t-93.5 142t-37.5 191q0 81 30.5 158t97.5 138t174 98t260 37q96 0 171 -11t131 -24.5t94 -25t61 -12.5
l-13 -375h-217l-49 251q-10 15 -50.5 29.5t-103.5 14.5q-55 0 -92 -15t-59.5 -39t-32.5 -54.5t-10 -61.5q0 -56 31 -100t82.5 -81.5t117.5 -71.5t136 -69q37 -18 78.5 -41t82 -52t77.5 -64.5t65 -79.5t44.5 -96.5t16.5 -115.5q0 -49 -10 -103t-35 -106.5t-68.5 -100
t-110.5 -83.5t-160 -57.5t-218 -21.5q-97 0 -181.5 13t-152 29.5t-116 30.5t-74.5 16zM259 1906l126 108l283 -174l302 174l126 -109l-323 -289h-209z" />
    <glyph glyph-name="scaron" unicode="&#x161;" horiz-adv-x="1104" 
d="M82 0zM150 1695l121 108l302 -246l303 247l125 -109l-330 -403h-198zM88 336h224l58 -162q6 -9 21 -18t36 -16t44.5 -11.5t45.5 -4.5q35 0 61.5 8.5t44.5 23.5t27.5 35t9.5 42q0 39 -27.5 67t-73.5 53t-105 50t-123 58q-57 28 -103 63t-78.5 79t-50 98t-17.5 120
q0 71 31 134t91.5 110t151 74t209.5 27q86 0 150.5 -9t114 -20t87 -20.5t67.5 -11.5v-290l-214 1l-58 159q-8 15 -39 29.5t-79 14.5q-70 0 -108 -29.5t-38 -79.5q0 -36 21 -63t56.5 -49.5t81.5 -42.5t96 -42q64 -28 127 -61t113 -78t81 -104.5t31 -140.5q0 -68 -27 -131
t-86 -112.5t-153.5 -79t-229.5 -29.5q-94 0 -168 11t-131.5 25t-99.5 27t-72 17v279z" />
    <glyph glyph-name="uni0162" unicode="&#x162;" horiz-adv-x="1517" 
d="M297 152l257 24v1174l-207 -11l-95 -471h-221l32 654h1386l27 -654h-208l-101 471l-197 11v-1174l283 -24v-152h-408q18 -18 42.5 -47.5t46 -68.5t36 -85t12.5 -96q-4 -71 -27 -117.5t-64.5 -74.5t-100.5 -39.5t-135 -11.5h-1q-17 0 -37 2.5t-39.5 6.5t-37 9.5
t-30.5 11.5l1 214q21 -7 46 -10t36 -3h1q33 0 58.5 4t43 18t26 42t8.5 75q0 24 -6 48.5t-15 47.5t-19 42t-19 32h-374v152z" />
    <glyph glyph-name="uni0163" unicode="&#x163;" horiz-adv-x="838" 
d="M148 951h-115v131l9.5 4.5t24 11t32 14t32 13.5t24 10.5l9.5 4.5q18 20 36 47t35 68q20 42 36.5 90t34.5 107h225l15 -314h269v-187h-265v-501q0 -78 2.5 -123t11 -67.5t25.5 -28.5t46 -6h1q48 0 87 8t71 16h1l49 -144q-50 -40 -137 -73t-195 -44q19 -20 42 -49.5
t42.5 -66.5t31.5 -80t10 -89q-4 -71 -27 -117.5t-64.5 -74.5t-100.5 -39.5t-135 -11.5h-1q-17 0 -37 2.5t-39.5 6.5t-37 9.5t-30.5 11.5l1 214q21 -7 46 -10t36 -3h1q33 0 58.5 4t43 18t26 42t8.5 75q0 22 -5.5 45t-13.5 45t-17.5 40.5t-17.5 32.5q-96 20 -140 85t-44 169
v704z" />
    <glyph glyph-name="Tcaron" unicode="&#x164;" horiz-adv-x="1517" 
d="M31 0zM360 1906l126 108l283 -174l302 174l126 -109l-323 -289h-209zM297 152l257 24v1174l-207 -11l-95 -471h-221l32 654h1386l27 -654h-208l-101 471l-197 11v-1174l283 -24v-152h-956v152z" />
    <glyph glyph-name="tcaron" unicode="&#x165;" horiz-adv-x="848" 
d="M32 0zM147 951h-115v131l9.5 4.5t24 11t32 14t32 13.5t24 10.5l9.5 4.5q18 20 36 47t35 68q20 42 36.5 90t34.5 107h225l15 -314h269v-187h-265v-501q0 -78 2.5 -123t11 -67.5t25.5 -28.5t46 -6h1q48 0 87 8t71 16h1l49 -144q-29 -24 -73 -45.5t-98 -38.5t-116 -27
t-129 -10h-2q-146 0 -212 68t-66 195v704zM687 1253l-9 26q4 16 8.5 37t8 56t6 88.5t2.5 134.5q0 62 -6.5 108.5t-15.5 79.5t-18.5 52.5t-15.5 27.5l9 42l259 56q20 -24 39 -93.5t19 -181.5q0 -96 -15.5 -177t-36 -142.5t-41.5 -101t-32 -51.5z" />
    <glyph glyph-name="Tbar" unicode="&#x166;" horiz-adv-x="1529" 
d="M303 152l257 24v373h-208v171h208v630l-207 -11l-95 -471h-221l32 654h1386l27 -654h-208l-101 471l-197 11v-630h201v-171h-201v-373l283 -24v-152h-956v152z" />
    <glyph glyph-name="tbar" unicode="&#x167;" horiz-adv-x="845" 
d="M149 564h-121v172h121v215h-115v131l9.5 4.5t24 11t32 14t32 13.5t24 10.5l9.5 4.5q18 20 36 47t35 68q20 42 36.5 90t34.5 107h225l15 -314h269v-187h-265v-215h251v-172h-251v-114q0 -78 2.5 -123t11 -67.5t25.5 -28.5t46 -6h1q48 0 87 8t71 16h1l49 -144
q-29 -24 -73 -45.5t-98 -38.5t-116 -27t-129 -10h-2q-146 0 -212 68t-66 195v317z" />
    <glyph glyph-name="Utilde" unicode="&#x168;" horiz-adv-x="1530" 
d="M24 0zM316 1793q18 32 46 69.5t68 70t93 54t121 21.5q45 0 82.5 -11t69.5 -28t60.5 -36.5t56 -36.5t55 -28t58.5 -11q34 0 58.5 9t43 23.5t32.5 31.5t28 33l107 -108q-23 -41 -52 -80t-66.5 -70t-85.5 -49.5t-108 -18.5q-66 0 -118 23.5t-98 52t-89.5 52t-92.5 23.5
q-30 0 -54.5 -10t-44.5 -24.5t-35.5 -31.5t-28.5 -30zM143 1330l-119 30v162h719v-162l-170 -34v-751q0 -96 15 -175.5t49 -137t89 -89.5t136 -32q78 0 131.5 33.5t86 92t46.5 138t14 170.5v755l-179 30v162h560v-162l-127 -30v-732q0 -167 -44.5 -283.5t-124 -190
t-188.5 -107t-239 -33.5q-160 0 -282 35.5t-205 111t-125.5 194t-42.5 284.5v721z" />
    <glyph glyph-name="utilde" unicode="&#x169;" horiz-adv-x="1330" 
d="M49 0zM137 963l-88 25v148l434 27h3l46 -28v-751q0 -58 7.5 -96.5t22.5 -61.5t38 -32.5t55 -9.5t56.5 6.5t42.5 16t30 19.5t20 17v720l-118 29v145l455 26h6l52 -28v-975h101v-149l-50 -10t-68 -11t-83 -9t-95 -4q-42 0 -71.5 10t-48 28.5t-26.5 44t-8 56.5v33
q-20 -33 -55 -64t-79.5 -55t-95.5 -38.5t-102 -14.5q-103 0 -175.5 23t-118 74t-66.5 132.5t-21 198.5v558zM201 1485q18 32 45.5 72t67 75t92 59t120.5 24q45 0 81.5 -11.5t67.5 -29.5t58 -38t53 -38t53 -29.5t58 -11.5q30 0 53.5 8t42.5 20t34 26.5t27 27.5l107 -95
q-20 -34 -47 -74t-65.5 -74.5t-89 -57.5t-116.5 -23q-44 0 -80 11.5t-66.5 29.5t-58 38t-54.5 38t-55.5 29.5t-61.5 11.5q-29 0 -53 -8t-43.5 -20t-35 -26.5t-28.5 -27.5z" />
    <glyph glyph-name="Umacron" unicode="&#x16a;" horiz-adv-x="1530" 
d="M24 0zM458 1918h696v-220h-696v220zM143 1330l-119 30v162h719v-162l-170 -34v-751q0 -96 15 -175.5t49 -137t89 -89.5t136 -32q78 0 131.5 33.5t86 92t46.5 138t14 170.5v755l-179 30v162h560v-162l-127 -30v-732q0 -167 -44.5 -283.5t-124 -190t-188.5 -107t-239 -33.5
q-160 0 -282 35.5t-205 111t-125.5 194t-42.5 284.5v721z" />
    <glyph glyph-name="umacron" unicode="&#x16b;" horiz-adv-x="1330" 
d="M49 0zM137 963l-88 25v148l434 27h3l46 -28v-751q0 -58 7.5 -96.5t22.5 -61.5t38 -32.5t55 -9.5t56.5 6.5t42.5 16t30 19.5t20 17v720l-118 29v145l455 26h6l52 -28v-975h101v-149l-50 -10t-68 -11t-83 -9t-95 -4q-42 0 -71.5 10t-48 28.5t-26.5 44t-8 56.5v33
q-20 -33 -55 -64t-79.5 -55t-95.5 -38.5t-102 -14.5q-103 0 -175.5 23t-118 74t-66.5 132.5t-21 198.5v558zM312 1634h671v-220h-671v220z" />
    <glyph glyph-name="Ubreve" unicode="&#x16c;" horiz-adv-x="1530" 
d="M24 0zM810 1615q-104 0 -180 29t-126 77t-74.5 110.5t-24.5 130.5v24t2 23h185q0 -4 0.5 -9t1.5 -12q3 -21 14.5 -45.5t36.5 -45.5t65 -35.5t102 -14.5q61 0 100 14t62 35.5t32.5 46t12.5 45.5q1 7 1 12v9h191q2 -11 2 -22v-23q0 -68 -25 -130.5t-75.5 -111.5t-126 -78
t-176.5 -29zM143 1330l-119 30v162h719v-162l-170 -34v-751q0 -96 15 -175.5t49 -137t89 -89.5t136 -32q78 0 131.5 33.5t86 92t46.5 138t14 170.5v755l-179 30v162h560v-162l-127 -30v-732q0 -167 -44.5 -283.5t-124 -190t-188.5 -107t-239 -33.5q-160 0 -282 35.5
t-205 111t-125.5 194t-42.5 284.5v721z" />
    <glyph glyph-name="ubreve" unicode="&#x16d;" horiz-adv-x="1330" 
d="M49 0zM137 963l-88 25v148l434 27h3l46 -28v-751q0 -58 7.5 -96.5t22.5 -61.5t38 -32.5t55 -9.5t56.5 6.5t42.5 16t30 19.5t20 17v720l-118 29v145l455 26h6l52 -28v-975h101v-149l-50 -10t-68 -11t-83 -9t-95 -4q-42 0 -71.5 10t-48 28.5t-26.5 44t-8 56.5v33
q-20 -33 -55 -64t-79.5 -55t-95.5 -38.5t-102 -14.5q-103 0 -175.5 23t-118 74t-66.5 132.5t-21 198.5v558zM642 1315q-89 0 -161.5 26.5t-124 72.5t-79.5 109t-28 136v30.5t0.5 32.5t1 29.5t2.5 21.5h174q0 -11 1 -23t3 -24q5 -31 18 -59.5t38 -50.5t63.5 -35t93.5 -13
q54 0 91 13t61 34.5t37 50t18 59.5q2 13 3 25t1 23h170q0 -8 1 -21.5t1.5 -29.5t1 -32.5t0.5 -29.5q0 -74 -28.5 -137t-80 -109.5t-122.5 -72.5t-156 -26z" />
    <glyph glyph-name="Uring" unicode="&#x16e;" horiz-adv-x="1530" 
d="M24 0zM143 1330l-119 30v162h719v-162l-170 -34v-751q0 -96 15 -175.5t49 -137t89 -89.5t136 -32q78 0 131.5 33.5t86 92t46.5 138t14 170.5v755l-179 30v162h560v-162l-127 -30v-732q0 -167 -44.5 -283.5t-124 -190t-188.5 -107t-239 -33.5q-160 0 -282 35.5t-205 111
t-125.5 194t-42.5 284.5v721zM814 1468q-110 0 -182 23t-114 61t-58 88.5t-15 104.5q1 63 29 112.5t78.5 84.5t121 53.5t157.5 18.5h1q103 0 172.5 -22t112 -59.5t60 -87.5t17.5 -107q-1 -62 -27.5 -112t-75 -85t-118.5 -54t-158 -19h-1zM820 1598q45 0 74 9.5t46 27
t23.5 42t6.5 54.5t-7 57t-24.5 48t-46 33.5t-71.5 12.5h-1q-44 0 -73.5 -10.5t-46.5 -29t-24 -44t-7 -55.5q0 -26 7.5 -52t25 -46.5t46.5 -33.5t71 -13h1z" />
    <glyph glyph-name="uring" unicode="&#x16f;" horiz-adv-x="1330" 
d="M49 0zM638 1282q-103 0 -174 24.5t-115 66.5t-63 98.5t-18 120.5q1 75 33 131.5t85.5 94.5t123 57t145.5 19h1q95 0 163.5 -23t112.5 -64t65 -97.5t21 -123.5q-1 -73 -30 -129.5t-80 -95.5t-120 -59t-149 -20h-1zM644 1438q89 0 125.5 34t36.5 106q0 34 -9 63t-28.5 50
t-50 32.5t-73.5 11.5h-1q-89 0 -126 -36t-37 -107q0 -32 9.5 -60t29 -49t50.5 -33t73 -12h1zM137 963l-88 25v148l434 27h3l46 -28v-751q0 -58 7.5 -96.5t22.5 -61.5t38 -32.5t55 -9.5t56.5 6.5t42.5 16t30 19.5t20 17v720l-118 29v145l455 26h6l52 -28v-975h101v-149
l-50 -10t-68 -11t-83 -9t-95 -4q-42 0 -71.5 10t-48 28.5t-26.5 44t-8 56.5v33q-20 -33 -55 -64t-79.5 -55t-95.5 -38.5t-102 -14.5q-103 0 -175.5 23t-118 74t-66.5 132.5t-21 198.5v558z" />
    <glyph glyph-name="Uhungarumlaut" unicode="&#x170;" horiz-adv-x="1530" 
d="M24 0zM143 1330l-119 30v162h719v-162l-170 -34v-751q0 -96 15 -175.5t49 -137t89 -89.5t136 -32q78 0 131.5 33.5t86 92t46.5 138t14 170.5v755l-179 30v162h560v-162l-127 -30v-732q0 -167 -44.5 -283.5t-124 -190t-188.5 -107t-239 -33.5q-160 0 -282 35.5t-205 111
t-125.5 194t-42.5 284.5v721zM949 1710l302 304l198 -147q-26 -37 -69 -79t-92.5 -81t-99 -71t-87.5 -50zM369 1710l295 304l205 -151q-32 -41 -76.5 -82.5t-92.5 -78.5t-95.5 -67.5t-84.5 -48.5z" />
    <glyph glyph-name="uhungarumlaut" unicode="&#x171;" horiz-adv-x="1330" 
d="M49 0zM137 963l-88 25v148l434 27h3l46 -28v-751q0 -58 7.5 -96.5t22.5 -61.5t38 -32.5t55 -9.5t56.5 6.5t42.5 16t30 19.5t20 17v720l-118 29v145l455 26h6l52 -28v-975h101v-149l-50 -10t-68 -11t-83 -9t-95 -4q-42 0 -71.5 10t-48 28.5t-26.5 44t-8 56.5v33
q-20 -33 -55 -64t-79.5 -55t-95.5 -38.5t-102 -14.5q-103 0 -175.5 23t-118 74t-66.5 132.5t-21 198.5v558zM759 1431l328 402l200 -164q-14 -25 -41.5 -56t-63.5 -65t-76.5 -67.5t-79.5 -63.5t-74 -53.5t-58 -35.5zM222 1431l321 402l208 -168q-17 -27 -46.5 -59t-66 -65.5
t-76.5 -66t-78.5 -61t-71.5 -51t-55 -34.5z" />
    <glyph glyph-name="Uogonek" unicode="&#x172;" horiz-adv-x="1530" 
d="M143 1330l-119 30v162h719v-162l-170 -34v-751q0 -96 15 -175.5t49 -137t89 -89.5t136 -32q78 0 131.5 33.5t86 92t46.5 138t14 170.5v755l-179 30v162h560v-162l-127 -30v-732q0 -115 -21.5 -206t-61.5 -160t-96.5 -117.5t-126.5 -78.5q-73 -59 -117 -114.5t-44 -112.5
q0 -21 7.5 -42t22.5 -37.5t37.5 -26.5t51.5 -10q18 0 31.5 1t26 3.5t25.5 7t31 11.5v-163q-22 -16 -54 -28.5t-67.5 -21.5t-72.5 -13.5t-69 -4.5q-56 0 -106 12.5t-88 38t-60.5 65t-22.5 94.5q0 46 23.5 90t60 82t81.5 69t87 51q-36 -3 -74 -3q-160 0 -282 35.5t-205 111
t-125.5 194t-42.5 284.5v721z" />
    <glyph glyph-name="uogonek" unicode="&#x173;" horiz-adv-x="1330" 
d="M137 963l-88 25v148l434 27h3l46 -28v-751q0 -58 7.5 -96.5t22.5 -61.5t38 -32.5t55 -9.5t56.5 6.5t42.5 16t30 19.5t20 17v720l-118 29v145l455 26h6l52 -28v-975h101v-149q-10 -2 -23 -5t-27 -5q-50 -18 -88 -43.5t-63.5 -53.5t-38.5 -56t-13 -51q0 -44 31.5 -74
t93.5 -30q18 0 30.5 1t24 3.5t24 6.5t29.5 11v-163q-21 -16 -52.5 -28.5t-66.5 -21t-71.5 -13t-67.5 -4.5q-68 0 -120.5 16t-88.5 44t-54.5 67t-18.5 85q0 41 19 80.5t54 75.5t84.5 67.5t111.5 56.5h-5q-42 0 -71.5 10t-48 28.5t-26.5 44t-8 56.5v33q-20 -33 -55 -64
t-79.5 -55t-95.5 -38.5t-102 -14.5q-103 0 -175.5 23t-118 74t-66.5 132.5t-21 198.5v558z" />
    <glyph glyph-name="Wcircumflex" unicode="&#x174;" horiz-adv-x="2128" 
d="M0 0zM70 1329l-110 31v162h703v-162l-161 -31l227 -879l28 -142l19 142l193 704l-59 176l-120 30v162h737v-162l-193 -30l229 -880l33 -157l24 157l199 880l-159 30v162h502v-162l-126 -31l-362 -1339h-369l-240 855l-222 -855h-367zM670 1704l325 300h209l323 -299
l-126 -109l-302 185l-303 -185z" />
    <glyph glyph-name="wcircumflex" unicode="&#x175;" horiz-adv-x="1725" 
d="M0 0zM486 1398l324 403h198l330 -402l-126 -109l-301 238l-303 -239zM42 970l-90 21v146h603v-146l-127 -23l123 -464l34 -172l26 171l165 634h316l203 -633l33 -170l29 169l111 464l-143 24v146h470v-146l-95 -21l-308 -986h-293l-194 580l-38 229l-25 -229l-171 -580
h-302z" />
    <glyph glyph-name="Ycircumflex" unicode="&#x176;" horiz-adv-x="1322" 
d="M0 0zM254 152l203 24v443l-406 712l-110 29v162h704v-162l-122 -31l208 -431l42 -122l43 120l183 434l-151 30v162h551v-162l-121 -25l-377 -715v-445l213 -23v-152h-860v152zM262 1704l325 300h209l323 -299l-126 -109l-302 185l-303 -185z" />
    <glyph glyph-name="ycircumflex" unicode="&#x177;" horiz-adv-x="1173" 
d="M0 0zM124 -205q8 -7 27.5 -13t43 -10.5t48.5 -7.5t45 -3q60 0 101.5 20t71 53t50 76t38.5 90h-129l-382 967l-87 24v147h658v-147l-134 -24l154 -516l44 -162l32 162l145 517l-117 23v147h488v-147l-94 -23q-16 -49 -39 -116.5t-50 -145t-56 -160.5t-57 -162.5
t-53.5 -151t-45 -127t-31.5 -89.5t-14 -38q-42 -119 -88.5 -210t-103 -153t-127 -93.5t-161.5 -31.5q-22 0 -47.5 1.5t-50 4.5t-45.5 7.5t-34 10.5v281v0zM179 1398l324 403h198l330 -402l-126 -109l-301 238l-303 -239z" />
    <glyph glyph-name="Ydieresis" unicode="&#x178;" horiz-adv-x="1322" 
d="M0 0zM254 152l203 24v443l-406 712l-110 29v162h704v-162l-122 -31l208 -431l42 -122l43 120l183 434l-151 30v162h551v-162l-121 -25l-377 -715v-445l213 -23v-152h-860v152zM940 1626q-36 0 -65.5 16t-51 40.5t-33.5 55t-12 60.5q0 43 11.5 80t35.5 64.5t61 43t88 15.5
h1q48 0 83 -14t57 -37t32.5 -54t10.5 -65q0 -43 -12.5 -80.5t-38.5 -65t-67.5 -43.5t-98.5 -16h-1zM390 1626q-36 0 -65.5 14t-50.5 37.5t-33 54.5t-12 66q0 43 11.5 80t35.5 64.5t61 43t88 15.5h1q48 0 82.5 -14t56.5 -37t32.5 -54t10.5 -65q0 -43 -12.5 -80.5t-39 -65
t-67.5 -43.5t-98 -16h-1z" />
    <glyph glyph-name="Zacute" unicode="&#x179;" horiz-adv-x="1344" 
d="M10 0zM10 133l707 1114l125 135l-430 -32l-119 -288l-205 31l54 433h1101l54 -138l-688 -1111l-150 -126l522 45l124 314l205 -41l-45 -469h-1178zM558 1695l295 319h1l242 -160q-48 -50 -105.5 -94.5t-113 -79.5t-102 -57.5t-72.5 -29.5h-1z" />
    <glyph glyph-name="zacute" unicode="&#x17a;" horiz-adv-x="1158" 
d="M25 0zM398 1403l381 452h1l217 -199q-20 -34 -52 -71.5t-71 -74.5t-82.5 -72t-86.5 -65t-83 -52.5t-72 -34.5h-2zM25 141l484 659l164 185l-329 -17l-63 -206h-179v376h949l58 -133l-464 -681l-149 -172l334 25l113 245l170 -20l-30 -402h-993z" />
    <glyph glyph-name="Zdotaccent" unicode="&#x17b;" horiz-adv-x="1344" 
d="M10 0zM702 1638q-42 0 -77 13t-60.5 35.5t-39.5 53.5t-14 67q0 91 54 142.5t157 51.5h1q99 0 152 -47t53 -120q0 -90 -55 -143t-170 -53h-1v0zM10 133l707 1114l125 135l-430 -32l-119 -288l-205 31l54 433h1101l54 -138l-688 -1111l-150 -126l522 45l124 314l205 -41
l-45 -469h-1178z" />
    <glyph glyph-name="zdotaccent" unicode="&#x17c;" horiz-adv-x="1158" 
d="M25 0zM25 141l484 659l164 185l-329 -17l-63 -206h-179v376h949l58 -133l-464 -681l-149 -172l334 25l113 245l170 -20l-30 -402h-993zM587 1301q-44 0 -81 14t-63.5 39t-41.5 59t-15 73q0 46 15.5 86.5t44 70.5t70 47t94.5 17h1q52 0 91.5 -14.5t66 -40t40 -59.5
t13.5 -73q0 -46 -14.5 -86t-44 -69.5t-73.5 -46.5t-102 -17h-1v0z" />
    <glyph glyph-name="Zcaron" unicode="&#x17d;" horiz-adv-x="1344" 
d="M10 0zM309 1906l126 108l283 -174l302 174l126 -109l-323 -289h-209zM10 133l707 1114l125 135l-430 -32l-119 -288l-205 31l54 433h1101l54 -138l-688 -1111l-150 -126l522 45l124 314l205 -41l-45 -469h-1178z" />
    <glyph glyph-name="zcaron" unicode="&#x17e;" horiz-adv-x="1158" 
d="M25 0zM193 1695l121 108l302 -246l303 247l125 -109l-330 -403h-198zM25 141l484 659l164 185l-329 -17l-63 -206h-179v376h949l58 -133l-464 -681l-149 -172l334 25l113 245l170 -20l-30 -402h-993z" />
    <glyph glyph-name="uni018F" unicode="&#x18f;" horiz-adv-x="1437" 
d="M61 569q0 34 2 74.5t5 79t7 71.5t9 53l882 -2q-6 119 -26.5 218t-57 170.5t-90 111.5t-124.5 40q-59 0 -94.5 -13t-57 -34.5t-34 -49.5t-26.5 -58l-36 -132l-285 13l-2 348q43 2 97 14.5t122.5 27t154.5 26t193 11.5q150 0 277.5 -48t220.5 -143.5t145 -238.5t52 -332
q0 -195 -54.5 -344t-151 -250.5t-230 -153t-290.5 -51.5q-115 0 -222.5 32.5t-191.5 103.5t-136.5 183.5t-57.5 272.5zM476 556q0 -42 4 -87t14.5 -88.5t28 -83t44 -69t63.5 -47t86 -17.5q133 0 193.5 123t61.5 373l-494 1q-1 -28 -1 -50.5v-54.5z" />
    <glyph glyph-name="florin" unicode="&#x192;" horiz-adv-x="1068" 
d="M348 920h-190l18 156l196 61l11 81q9 112 55.5 199t114.5 146.5t149.5 90.5t160.5 31q88 0 137.5 -9t65.5 -14l-26 -287q-6 5 -17.5 13.5t-31 17t-48.5 15t-68 6.5q-22 0 -44 -7.5t-40.5 -25t-32 -46.5t-17.5 -72l-17 -139h270l-21 -217h-274l-114 -1276h-352z" />
    <glyph glyph-name="uni01C4" unicode="&#x1c4;" horiz-adv-x="2912" 
d="M60 0zM1879 1906l126 108l283 -174l302 174l126 -109l-323 -289h-209zM1578 133l707 1114l125 135l-430 -32l-119 -288l-205 31l54 433h1101l54 -138l-688 -1111l-150 -126l522 45l124 314l205 -41l-45 -469h-1178zM60 152l149 24v1154l-145 30v162h346q50 0 94 1.5t86 4
t85 4t92 1.5q187 0 328 -47t235.5 -137.5t141.5 -224t47 -307.5q0 -179 -52.5 -333t-152.5 -266.5t-245.5 -175t-332.5 -58.5q-42 1 -88.5 3.5t-90 5.5t-81.5 5t-62 2h-354v152zM618 171q22 -11 55 -16t70 -5q76 0 135.5 34t101 107.5t63 189.5t21.5 281q0 130 -16.5 242
t-56 194.5t-104 130t-160.5 47.5q-47 0 -73 -7.5t-36 -9.5v-1188z" />
    <glyph glyph-name="uni01C5" unicode="&#x1c5;" horiz-adv-x="2726" 
d="M60 0zM1809 1695l121 108l302 -246l303 247l125 -109l-330 -403h-198zM1593 141l484 659l164 185l-329 -17l-63 -206h-179v376h949l58 -133l-464 -681l-149 -172l334 25l113 245l170 -20l-30 -402h-993zM60 152l149 24v1154l-145 30v162h346q50 0 94 1.5t86 4t85 4
t92 1.5q187 0 328 -47t235.5 -137.5t141.5 -224t47 -307.5q0 -179 -52.5 -333t-152.5 -266.5t-245.5 -175t-332.5 -58.5q-42 1 -88.5 3.5t-90 5.5t-81.5 5t-62 2h-354v152zM618 171q22 -11 55 -16t70 -5q76 0 135.5 34t101 107.5t63 189.5t21.5 281q0 130 -16.5 242
t-56 194.5t-104 130t-160.5 47.5q-47 0 -73 -7.5t-36 -9.5v-1188z" />
    <glyph glyph-name="uni01C6" unicode="&#x1c6;" horiz-adv-x="2456" 
d="M58 0zM1521 1695l121 108l302 -246l303 247l125 -109l-330 -403h-198zM1323 141l484 659l164 185l-329 -17l-63 -206h-179v376h949l58 -133l-464 -681l-149 -172l334 25l113 245l170 -20l-30 -402h-993zM500 -23q-94 0 -175 32t-140 100.5t-93 175.5t-34 258q0 81 17 159
t51 147t85.5 128t121.5 101t157.5 66t194.5 24q22 0 44.5 -3t42.5 -7v296l-191 32v151l496 43h10l72 -56v-1470h99v-150q-25 -5 -60 -10t-74 -9.5t-78.5 -7.5t-72.5 -3q-39 0 -67.5 5t-47 18.5t-28 37t-9.5 61.5v46q-24 -39 -60.5 -69.5t-79.5 -52t-89.5 -32.5t-91.5 -11z
M642 182q50 0 81 18t49 42v737q-12 14 -38 23t-59 9q-40 0 -76 -20.5t-63.5 -70t-44 -132.5t-17.5 -209q-1 -105 11 -180.5t34 -123.5t53 -70.5t70 -22.5z" />
    <glyph glyph-name="uni01C7" unicode="&#x1c7;" horiz-adv-x="2171" 
d="M60 0zM1535 -10q9 26 16.5 59t13.5 76t9 97.5t3 124.5v983l-164 30v162h727v-162l-151 -29v-768q0 -202 -7.5 -338.5t-25.5 -199.5q-25 -80 -71.5 -150.5t-117.5 -127.5t-167 -98t-220 -60l-89 134q32 12 67 34.5t68 55.5t61 77t48 100zM60 152l149 23v1155l-148 30v162
h754v-162l-190 -30v-1151l314 22l140 435l225 -28l-53 -608h-1191v152z" />
    <glyph glyph-name="uni01C8" unicode="&#x1c8;" horiz-adv-x="2056" 
d="M60 0zM1539 892l-132 41l1 179l446 55h5l69 -47v-1098q0 -85 -23.5 -156.5t-62.5 -129.5t-88.5 -101.5t-101.5 -73t-102.5 -44.5t-90.5 -15q-14 0 -33.5 0.5t-38.5 1.5t-35.5 2.5t-23.5 3.5l-19 145q13 0 40 4t56 21q70 39 101.5 140t31.5 278zM60 152l149 23v1155
l-148 30v162h754v-162l-190 -30v-1151l314 22l140 435l225 -28l-53 -608h-1191v152zM1704 1301q-44 0 -81 14t-63.5 39t-41.5 59t-15 73q0 46 15.5 86.5t44 70.5t70 47t94.5 17h1q52 0 91.5 -14.5t66 -40t40 -59.5t13.5 -73q0 -46 -14.5 -86t-44 -69.5t-73.5 -46.5t-102 -17
h-1v0z" />
    <glyph glyph-name="uni01C9" unicode="&#x1c9;" horiz-adv-x="1431" 
d="M34 0zM914 892l-132 41l1 179l446 55h5l69 -47v-1098q0 -85 -23.5 -156.5t-62.5 -129.5t-88.5 -101.5t-101.5 -73t-102.5 -44.5t-90.5 -15q-14 0 -33.5 0.5t-38.5 1.5t-35.5 2.5t-23.5 3.5l-19 145q13 0 40 4t56 21q70 39 101.5 140t31.5 278zM56 152l111 21v1282
l-133 30v142l452 53h6l68 -50v-1457l111 -21v-152h-615v152zM1080 1301q-44 0 -81 14t-63.5 39t-41.5 59t-15 73q0 46 15.5 86.5t44 70.5t70 47t94.5 17h1q52 0 91.5 -14.5t66 -40t40 -59.5t13.5 -73q0 -46 -14.5 -86t-44 -69.5t-73.5 -46.5t-102 -17h-1v0z" />
    <glyph glyph-name="uni01CA" unicode="&#x1ca;" horiz-adv-x="2482" 
d="M55 0zM1847 -10q9 26 16.5 59t13.5 76t9 97.5t3 124.5v983l-164 30v162h727v-162l-151 -29v-768q0 -202 -7.5 -338.5t-25.5 -199.5q-25 -80 -71.5 -150.5t-117.5 -127.5t-167 -98t-220 -60l-89 134q32 12 67 34.5t68 55.5t61 77t48 100zM55 152l160 23v1156l-160 29v162
h579l510 -810l116 -260v879l-173 29v162h544v-162l-151 -29v-1331h-369l-553 893l-123 270v-987l227 -24v-152h-607v152z" />
    <glyph glyph-name="uni01CB" unicode="&#x1cb;" horiz-adv-x="2367" 
d="M55 0zM1851 892l-132 41l1 179l446 55h5l69 -47v-1098q0 -85 -23.5 -156.5t-62.5 -129.5t-88.5 -101.5t-101.5 -73t-102.5 -44.5t-90.5 -15q-14 0 -33.5 0.5t-38.5 1.5t-35.5 2.5t-23.5 3.5l-19 145q13 0 40 4t56 21q70 39 101.5 140t31.5 278zM2015 1301q-44 0 -81 14
t-63.5 39t-41.5 59t-15 73q0 46 15.5 86.5t44 70.5t70 47t94.5 17h1q52 0 91.5 -14.5t66 -40t40 -59.5t13.5 -73q0 -46 -14.5 -86t-44 -69.5t-73.5 -46.5t-102 -17h-1v0zM55 152l160 23v1156l-160 29v162h579l510 -810l116 -260v879l-173 29v162h544v-162l-151 -29v-1331
h-369l-553 893l-123 270v-987l227 -24v-152h-607v152z" />
    <glyph glyph-name="uni01CC" unicode="&#x1cc;" horiz-adv-x="2164" 
d="M92 0zM1648 892l-132 41l1 179l446 55h5l69 -47v-1098q0 -85 -23.5 -156.5t-62.5 -129.5t-88.5 -101.5t-101.5 -73t-102.5 -44.5t-90.5 -15q-14 0 -33.5 0.5t-38.5 1.5t-35.5 2.5t-23.5 3.5l-19 145q13 0 40 4t56 21q70 39 101.5 140t31.5 278zM1813 1301q-44 0 -81 14
t-63.5 39t-41.5 59t-15 73q0 46 15.5 86.5t44 70.5t70 47t94.5 17h1q52 0 91.5 -14.5t66 -40t40 -59.5t13.5 -73q0 -46 -14.5 -86t-44 -69.5t-73.5 -46.5t-102 -17h-1v0zM98 152l103 20v723l-109 39v184l413 49h5l60 -47v-69l-2 -48q32 31 74.5 60t93.5 51t111 35t126 13
q88 0 150.5 -22.5t102.5 -74t59 -135.5t19 -206v-551l100 -19v-154h-592v152l85 21v550q0 64 -6 106.5t-20.5 68t-38.5 36t-60 10.5q-29 0 -54 -7.5t-46 -18t-37.5 -22.5t-28.5 -22v-702l100 -20v-152h-608v152z" />
    <glyph glyph-name="uni01F1" unicode="&#x1f1;" horiz-adv-x="2912" 
d="M60 0zM1578 133l707 1114l125 135l-430 -32l-119 -288l-205 31l54 433h1101l54 -138l-688 -1111l-150 -126l522 45l124 314l205 -41l-45 -469h-1178zM60 152l149 24v1154l-145 30v162h346q50 0 94 1.5t86 4t85 4t92 1.5q187 0 328 -47t235.5 -137.5t141.5 -224t47 -307.5
q0 -179 -52.5 -333t-152.5 -266.5t-245.5 -175t-332.5 -58.5q-42 1 -88.5 3.5t-90 5.5t-81.5 5t-62 2h-354v152zM618 171q22 -11 55 -16t70 -5q76 0 135.5 34t101 107.5t63 189.5t21.5 281q0 130 -16.5 242t-56 194.5t-104 130t-160.5 47.5q-47 0 -73 -7.5t-36 -9.5v-1188z
" />
    <glyph glyph-name="uni01F2" unicode="&#x1f2;" horiz-adv-x="2726" 
d="M60 0zM1593 141l484 659l164 185l-329 -17l-63 -206h-179v376h949l58 -133l-464 -681l-149 -172l334 25l113 245l170 -20l-30 -402h-993zM60 152l149 24v1154l-145 30v162h346q50 0 94 1.5t86 4t85 4t92 1.5q187 0 328 -47t235.5 -137.5t141.5 -224t47 -307.5
q0 -179 -52.5 -333t-152.5 -266.5t-245.5 -175t-332.5 -58.5q-42 1 -88.5 3.5t-90 5.5t-81.5 5t-62 2h-354v152zM618 171q22 -11 55 -16t70 -5q76 0 135.5 34t101 107.5t63 189.5t21.5 281q0 130 -16.5 242t-56 194.5t-104 130t-160.5 47.5q-47 0 -73 -7.5t-36 -9.5v-1188z
" />
    <glyph glyph-name="uni01F3" unicode="&#x1f3;" horiz-adv-x="2456" 
d="M58 0zM1323 141l484 659l164 185l-329 -17l-63 -206h-179v376h949l58 -133l-464 -681l-149 -172l334 25l113 245l170 -20l-30 -402h-993zM500 -23q-94 0 -175 32t-140 100.5t-93 175.5t-34 258q0 81 17 159t51 147t85.5 128t121.5 101t157.5 66t194.5 24q22 0 44.5 -3
t42.5 -7v296l-191 32v151l496 43h10l72 -56v-1470h99v-150q-25 -5 -60 -10t-74 -9.5t-78.5 -7.5t-72.5 -3q-39 0 -67.5 5t-47 18.5t-28 37t-9.5 61.5v46q-24 -39 -60.5 -69.5t-79.5 -52t-89.5 -32.5t-91.5 -11zM642 182q50 0 81 18t49 42v737q-12 14 -38 23t-59 9
q-40 0 -76 -20.5t-63.5 -70t-44 -132.5t-17.5 -209q-1 -105 11 -180.5t34 -123.5t53 -70.5t70 -22.5z" />
    <glyph glyph-name="AEacute" unicode="&#x1fc;" horiz-adv-x="1965" 
d="M0 0zM863 1695l295 319h1l242 -160q-48 -50 -105.5 -94.5t-113 -79.5t-102 -57.5t-72.5 -29.5h-1zM-159 150l143 25l466 1155l-255 30v162h1626l28 -384h-185l-74 210l-359 26v-511l206 7l38 164h155v-534h-154l-37 177l-208 7v-528l389 31l134 267l226 -62l-66 -392
h-1248v150l151 24v236h-436l-82 -236l150 -24v-150h-608v150zM817 590v765h-111l-98 -295l-164 -470h373z" />
    <glyph glyph-name="aeacute" unicode="&#x1fd;" horiz-adv-x="1788" 
d="M41 0zM662 1403l381 452h1l217 -199q-20 -34 -52 -71.5t-71 -74.5t-82.5 -72t-86.5 -65t-83 -52.5t-72 -34.5h-2zM41 318q0 184 165 287t499 105v28q0 40 -7.5 72t-29.5 54t-61.5 33.5t-102.5 11.5q-59 0 -109.5 -7t-93.5 -17.5t-80 -23t-68 -24.5l-80 170q22 19 71 46
t119.5 52.5t159 43.5t188.5 18q123 0 198 -22t117 -69q136 91 336 91q116 0 202.5 -29t144.5 -83t87.5 -132t30.5 -176q0 -73 -4.5 -125.5t-12.5 -94.5h-620q14 -162 80.5 -237t187.5 -75q40 0 82.5 7.5t82 18.5t73.5 24.5t58 25.5l62 -139q-21 -24 -66 -54t-106 -57
t-134.5 -45.5t-150.5 -18.5q-169 0 -282 52t-178 145q-30 -45 -74.5 -81.5t-99 -62t-115.5 -39.5t-123 -14q-71 0 -133.5 22t-110 64.5t-75 106.5t-27.5 148zM1344 676q0 7 0.5 18.5t1 23.5t0.5 23.5v18.5q0 57 -5 103.5t-18 79.5t-35.5 50.5t-56.5 17.5q-32 0 -58.5 -12
t-45.5 -47.5t-30 -101.5t-12 -174h259zM468 372q0 -96 32 -139.5t85 -43.5q46 0 88.5 27t68.5 65q-24 63 -35 134t-11 151q-68 -2 -112 -19.5t-70 -45.5t-36 -62t-10 -67z" />
    <glyph glyph-name="uni0218" unicode="&#x218;" horiz-adv-x="1262" 
d="M103 0zM472 -220q0 39 17.5 64.5t44.5 41.5t58.5 22.5t58.5 6.5h7q37 0 68.5 -11t54.5 -32t36 -52t13 -72q-1 -55 -21 -107t-48.5 -94t-59.5 -70.5t-52 -36.5h-4l-123 28l-6 16q10 4 18 17t13.5 30t8.5 37t3 37q0 32 -12 48t-26 24q-16 12 -32.5 37t-16.5 66zM120 454
h222l57 -257q16 -22 66 -41.5t136 -19.5q113 0 164.5 48.5t51.5 130.5q0 47 -22.5 85t-66 72t-106 67t-141.5 71q-57 27 -122.5 68t-121.5 101t-93.5 142t-37.5 191q0 81 30.5 158t97.5 138t174 98t260 37q96 0 171 -11t131 -24.5t94 -25t61 -12.5l-13 -375h-217l-49 251
q-10 15 -50.5 29.5t-103.5 14.5q-55 0 -92 -15t-59.5 -39t-32.5 -54.5t-10 -61.5q0 -56 31 -100t82.5 -81.5t117.5 -71.5t136 -69q37 -18 78.5 -41t82 -52t77.5 -64.5t65 -79.5t44.5 -96.5t16.5 -115.5q0 -49 -10 -103t-35 -106.5t-68.5 -100t-110.5 -83.5t-160 -57.5
t-218 -21.5q-97 0 -181.5 13t-152 29.5t-116 30.5t-74.5 16z" />
    <glyph glyph-name="uni0219" unicode="&#x219;" horiz-adv-x="1104" 
d="M82 0zM371 -220q0 39 17.5 64.5t44.5 41.5t58.5 22.5t58.5 6.5h7q37 0 68.5 -11t54.5 -32t36 -52t13 -72q-1 -55 -21 -107t-48.5 -94t-59.5 -70.5t-52 -36.5h-4l-123 28l-6 16q10 4 18 17t13.5 30t8.5 37t3 37q0 32 -12 48t-26 24q-16 12 -32.5 37t-16.5 66zM88 336h224
l58 -162q6 -9 21 -18t36 -16t44.5 -11.5t45.5 -4.5q35 0 61.5 8.5t44.5 23.5t27.5 35t9.5 42q0 39 -27.5 67t-73.5 53t-105 50t-123 58q-57 28 -103 63t-78.5 79t-50 98t-17.5 120q0 71 31 134t91.5 110t151 74t209.5 27q86 0 150.5 -9t114 -20t87 -20.5t67.5 -11.5v-290
l-214 1l-58 159q-8 15 -39 29.5t-79 14.5q-70 0 -108 -29.5t-38 -79.5q0 -36 21 -63t56.5 -49.5t81.5 -42.5t96 -42q64 -28 127 -61t113 -78t81 -104.5t31 -140.5q0 -68 -27 -131t-86 -112.5t-153.5 -79t-229.5 -29.5q-94 0 -168 11t-131.5 25t-99.5 27t-72 17v279z" />
    <glyph glyph-name="uni021A" unicode="&#x21a;" horiz-adv-x="1517" 
d="M31 0zM583 -220q0 39 17.5 64.5t44.5 41.5t58.5 22.5t58.5 6.5h7q37 0 68.5 -11t54.5 -32t36 -52t13 -72q-1 -55 -21 -107t-48.5 -94t-59.5 -70.5t-52 -36.5h-4l-123 28l-6 16q10 4 18 17t13.5 30t8.5 37t3 37q0 32 -12 48t-26 24q-16 12 -32.5 37t-16.5 66zM297 152
l257 24v1174l-207 -11l-95 -471h-221l32 654h1386l27 -654h-208l-101 471l-197 11v-1174l283 -24v-152h-956v152z" />
    <glyph glyph-name="uni021B" unicode="&#x21b;" horiz-adv-x="838" 
d="M33 0zM262 -220q0 39 17.5 64.5t44.5 41.5t58.5 22.5t58.5 6.5h7q37 0 68.5 -11t54.5 -32t36 -52t13 -72q-1 -55 -21 -107t-48.5 -94t-59.5 -70.5t-52 -36.5h-4l-123 28l-6 16q10 4 18 17t13.5 30t8.5 37t3 37q0 32 -12 48t-26 24q-16 12 -32.5 37t-16.5 66zM148 951
h-115v131l9.5 4.5t24 11t32 14t32 13.5t24 10.5l9.5 4.5q18 20 36 47t35 68q20 42 36.5 90t34.5 107h225l15 -314h269v-187h-265v-501q0 -78 2.5 -123t11 -67.5t25.5 -28.5t46 -6h1q48 0 87 8t71 16h1l49 -144q-29 -24 -73 -45.5t-98 -38.5t-116 -27t-129 -10h-2
q-146 0 -212 68t-66 195v704z" />
    <glyph glyph-name="dotlessj" unicode="&#x237;" horiz-adv-x="715" 
d="M199 892l-132 41l1 179l446 55h5l69 -47v-1098q0 -85 -23.5 -156.5t-62.5 -129.5t-88.5 -101.5t-101.5 -73t-102.5 -44.5t-90.5 -15q-14 0 -33.5 0.5t-38.5 1.5t-35.5 2.5t-23.5 3.5l-19 145q13 0 40 4t56 21q70 39 101.5 140t31.5 278z" />
    <glyph glyph-name="uni0259" unicode="&#x259;" horiz-adv-x="1141" 
d="M50 396q-1 73 4.5 125.5t13.5 94.5h610q-5 87 -22.5 146.5t-50 96.5t-79 53t-109.5 16q-40 0 -82.5 -7.5t-81.5 -18.5t-72.5 -24.5t-56.5 -25.5l-62 140q21 23 65.5 53.5t105 57.5t133.5 45.5t151 18.5q155 0 262.5 -43.5t175 -122t98 -187t30.5 -238.5q0 -146 -40 -258
t-114 -187.5t-179.5 -114.5t-236.5 -39q-115 0 -201 29t-144 83t-87.5 131.5t-30.5 175.5zM544 132q30 0 54 11t41 46t27.5 101t12.5 177h-244q0 -6 -0.5 -17.5t-1 -23.5t-0.5 -23.5v-17.5q0 -57 4.5 -104t17 -80t34 -51t55.5 -18z" />
    <glyph glyph-name="circumflex" unicode="&#x2c6;" horiz-adv-x="1019" 
d="M86 1398l324 403h198l330 -402l-126 -109l-301 238l-303 -239z" />
    <glyph glyph-name="caron" unicode="&#x2c7;" horiz-adv-x="1020" 
d="M87 1695l121 108l302 -246l303 247l125 -109l-330 -403h-198z" />
    <glyph glyph-name="uni02C9" unicode="&#x2c9;" horiz-adv-x="1345" 
d="M230 2010h885v-237h-885v237z" />
    <glyph glyph-name="breve" unicode="&#x2d8;" horiz-adv-x="1022" 
d="M511 1315q-89 0 -161.5 26.5t-124 72.5t-79.5 109t-28 136v30.5t0.5 32.5t1 29.5t2.5 21.5h174q0 -11 1 -23t3 -24q5 -31 18 -59.5t38 -50.5t63.5 -35t93.5 -13q54 0 91 13t61 34.5t37 50t18 59.5q2 13 3 25t1 23h170q0 -8 1 -21.5t1.5 -29.5t1 -32.5t0.5 -29.5
q0 -74 -28.5 -137t-80 -109.5t-122.5 -72.5t-156 -26z" />
    <glyph glyph-name="dotaccent" unicode="&#x2d9;" horiz-adv-x="564" 
d="M263 1301q-44 0 -81 14t-63.5 39t-41.5 59t-15 73q0 46 15.5 86.5t44 70.5t70 47t94.5 17h1q52 0 91.5 -14.5t66 -40t40 -59.5t13.5 -73q0 -46 -14.5 -86t-44 -69.5t-73.5 -46.5t-102 -17h-1v0z" />
    <glyph glyph-name="ring" unicode="&#x2da;" horiz-adv-x="1020" 
d="M504 1282q-103 0 -174 24.5t-115 66.5t-63 98.5t-18 120.5q1 75 33 131.5t85.5 94.5t123 57t145.5 19h1q95 0 163.5 -23t112.5 -64t65 -97.5t21 -123.5q-1 -73 -30 -129.5t-80 -95.5t-120 -59t-149 -20h-1zM510 1438q89 0 125.5 34t36.5 106q0 34 -9 63t-28.5 50
t-50 32.5t-73.5 11.5h-1q-89 0 -126 -36t-37 -107q0 -32 9.5 -60t29 -49t50.5 -33t73 -12h1z" />
    <glyph glyph-name="ogonek" unicode="&#x2db;" horiz-adv-x="709" 
d="M39 -306q0 41 16.5 84.5t51.5 84t89.5 76.5t130.5 62l79 7l132 -7q-55 -21 -91.5 -47t-58.5 -53.5t-31.5 -55t-9.5 -52.5q0 -44 31 -72t93 -28q18 0 30.5 1.5t24 4.5t24 7.5t29.5 10.5l-1 -161q-21 -16 -52.5 -29t-66.5 -22.5t-71 -14.5t-67 -5q-48 0 -98 12t-91 37.5
t-67 65t-26 94.5z" />
    <glyph glyph-name="tilde" unicode="&#x2dc;" horiz-adv-x="1022" 
d="M34 1485q18 32 45.5 72t67 75t92 59t120.5 24q45 0 81.5 -11.5t67.5 -29.5t58 -38t53 -38t53 -29.5t58 -11.5q30 0 53.5 8t42.5 20t34 26.5t27 27.5l107 -95q-20 -34 -47 -74t-65.5 -74.5t-89 -57.5t-116.5 -23q-44 0 -80 11.5t-66.5 29.5t-58 38t-54.5 38t-55.5 29.5
t-61.5 11.5q-29 0 -53 -8t-43.5 -20t-35 -26.5t-28.5 -27.5z" />
    <glyph glyph-name="hungarumlaut" unicode="&#x2dd;" horiz-adv-x="1022" 
d="M638 1431l328 402l200 -164q-14 -25 -41.5 -56t-63.5 -65t-76.5 -67.5t-79.5 -63.5t-74 -53.5t-58 -35.5zM101 1431l321 402l208 -168q-17 -27 -46.5 -59t-66 -65.5t-76.5 -66t-78.5 -61t-71.5 -51t-55 -34.5z" />
    <glyph glyph-name="Deltagreek" unicode="&#x394;" horiz-adv-x="1769" 
d="M142 1zM825 1516h49l753 -1475l-22 -40h-1443l-20 39zM1123 220l-358 733l-319 -733h677z" />
    <glyph glyph-name="Omegagreek" unicode="&#x3a9;" horiz-adv-x="1933" 
d="M102 0zM102 444h169l71 -204l303 -6q-42 27 -87 68t-88.5 92.5t-82 112t-68 127t-46 137t-14.5 142.5q2 117 31.5 209.5t79 162.5t116.5 119t145 80t163 45t171 14q151 0 279 -40t220.5 -119.5t143 -198t47.5 -274.5q-2 -92 -33 -189.5t-80 -187.5t-111 -167t-125 -128
l277 19l66 186h176l-42 -444h-696v218q64 46 106.5 113.5t68 150.5t36 177.5t10.5 195.5q0 80 -18 148t-59 118t-107.5 78t-163.5 28q-98 0 -166.5 -28t-112.5 -79.5t-64 -125.5t-20 -167q0 -102 20 -197t54.5 -175.5t81 -141.5t99.5 -95v-218h-713z" />
    <glyph glyph-name="uni03BC" unicode="&#x3bc;" horiz-adv-x="1398" 
d="M69 0zM165 457l-2 4v496l-94 36v143l444 26l45 -28v-780q0 -34 11.5 -63.5t32 -52t48.5 -35.5t61 -13q31 0 54.5 7.5t40 19.5t26.5 27t14 30v683l-109 39l-1 140l457 26l46 -27v-975h101v-150q-42 -11 -104 -23.5t-151 -12.5q-42 0 -69 11.5t-43.5 30.5t-23 44t-6.5 52
v40q-12 -39 -35.5 -70.5t-54.5 -54.5t-67.5 -35.5t-73.5 -12.5q-56 0 -100 15t-76 43v-410h-371v830z" />
    <glyph glyph-name="pi" unicode="&#x3c0;" horiz-adv-x="1692" 
d="M151 184q7 1 18.5 3.5t25.5 6.5t29 9.5t29 13.5q40 22 69.5 47.5t52.5 59.5t41.5 79t36.5 107l91 311h-136q-37 0 -62 -11.5t-42.5 -30t-28 -42t-19.5 -46.5l-114 13q-11 101 11 181t65.5 135.5t103 85t124.5 29.5h854q33 0 59.5 1.5t46 9t32 22.5t18.5 42h124
q1 -89 -6.5 -161.5t-37.5 -123.5t-89 -78t-160 -27h-42l-15 -476q-2 -43 2.5 -72.5t13.5 -48t21 -26.5t27 -8q42 0 80 21.5t80 78.5l89 -98q-27 -39 -66.5 -76.5t-90 -67t-112 -47.5t-133.5 -18q-262 0 -208 318l88 520h-268l-32 -313q-19 -173 -62.5 -284.5t-113.5 -174.5
q-32 -29 -72 -48t-78 -23l-244 207v0z" />
    <glyph glyph-name="uni0400" unicode="&#x400;" horiz-adv-x="1351" 
d="M54 0zM697 1593q-30 8 -81.5 33.5t-108.5 61.5t-111.5 79t-90.5 87l242 160h1l295 -319l-145 -102h-1v0zM60 152l149 23v1154l-155 31v162h1156l28 -384h-185l-77 210l-351 25v-510l205 5l39 166h154v-534h-154l-37 179l-207 5v-528l384 31l132 267l201 -55l-44 -399
h-1238v152z" />
    <glyph glyph-name="afii10023" unicode="&#x401;" horiz-adv-x="1351" 
d="M54 0zM948 1626q-36 0 -65.5 16t-51 40.5t-33.5 55t-12 60.5q0 43 11.5 80t35.5 64.5t61 43t88 15.5h1q48 0 83 -14t57 -37t32.5 -54t10.5 -65q0 -43 -12.5 -80.5t-38.5 -65t-67.5 -43.5t-98.5 -16h-1zM398 1626q-36 0 -65.5 14t-50.5 37.5t-33 54.5t-12 66q0 43 11.5 80
t35.5 64.5t61 43t88 15.5h1q48 0 82.5 -14t56.5 -37t32.5 -54t10.5 -65q0 -43 -12.5 -80.5t-39 -65t-67.5 -43.5t-98 -16h-1zM60 152l149 23v1154l-155 31v162h1156l28 -384h-185l-77 210l-351 25v-510l205 5l39 166h154v-534h-154l-37 179l-207 5v-528l384 31l132 267
l201 -55l-44 -399h-1238v152z" />
    <glyph glyph-name="afii10051" unicode="&#x402;" horiz-adv-x="1876" 
d="M260 158l295 29v1171l-233 -26l-65 -309h-216l28 499h1449l37 -499h-219l-72 309l-295 26v-556q18 11 55 25.5t83 27t95.5 21.5t91.5 9q122 0 223 -25.5t173.5 -87.5t112.5 -166t40 -261q0 -182 -44.5 -325t-124 -242t-188.5 -151t-239 -52q-86 0 -138 14t-76 24l-19 167
l21 -7t31 -7t47.5 -5.5t70.5 -2.5q116 0 176 132.5t60 394.5q0 110 -12 187.5t-38.5 126t-68.5 71t-102 22.5q-80 0 -140 -21t-90 -48v-436l278 -29v-158h-987v158z" />
    <glyph glyph-name="afii10052" unicode="&#x403;" horiz-adv-x="1269" 
d="M53 0zM457 1695l295 319h1l242 -160q-48 -50 -105.5 -94.5t-113 -79.5t-102 -57.5t-72.5 -29.5h-1zM53 152l221 24v1154l-218 32v160h1182l36 -632h-232l-82 439l-273 26v-1179l306 -25v-151h-940v152z" />
    <glyph glyph-name="afii10053" unicode="&#x404;" horiz-adv-x="1406" 
d="M46 745q0 189 57.5 336.5t164.5 249t260.5 154.5t345.5 53q78 0 143.5 -8.5t122 -19.5t104 -21.5t88.5 -14.5l-27 -435h-272l-61 290q-8 10 -15 20.5t-19 18.5t-31.5 13t-52.5 5q-75 0 -137 -30t-108 -94t-73.5 -162.5t-33.5 -234.5l531 15v-223l-528 14
q9 -113 33.5 -210.5t65 -170.5t96 -114.5t126.5 -41.5q44 0 75.5 5.5t53 14.5t34.5 19.5t20 19.5l88 242l228 -2l2 -377q-45 -3 -94.5 -16t-112.5 -27t-144 -25t-189 -11q-185 0 -323.5 56.5t-231.5 158t-139.5 242.5t-46.5 311z" />
    <glyph glyph-name="afii10054" unicode="&#x405;" horiz-adv-x="1262" 
d="M103 0zM120 454h222l57 -257q16 -22 66 -41.5t136 -19.5q113 0 164.5 48.5t51.5 130.5q0 47 -22.5 85t-66 72t-106 67t-141.5 71q-57 27 -122.5 68t-121.5 101t-93.5 142t-37.5 191q0 81 30.5 158t97.5 138t174 98t260 37q96 0 171 -11t131 -24.5t94 -25t61 -12.5
l-13 -375h-217l-49 251q-10 15 -50.5 29.5t-103.5 14.5q-55 0 -92 -15t-59.5 -39t-32.5 -54.5t-10 -61.5q0 -56 31 -100t82.5 -81.5t117.5 -71.5t136 -69q37 -18 78.5 -41t82 -52t77.5 -64.5t65 -79.5t44.5 -96.5t16.5 -115.5q0 -49 -10 -103t-35 -106.5t-68.5 -100
t-110.5 -83.5t-160 -57.5t-218 -21.5q-97 0 -181.5 13t-152 29.5t-116 30.5t-74.5 16z" />
    <glyph glyph-name="afii10055" unicode="&#x406;" 
d="M71 0zM74 152l153 24v1154l-156 30v162h734v-162l-162 -30v-1155l162 -25v-150h-731v152z" />
    <glyph glyph-name="uni0407" unicode="&#x407;" 
d="M0 0zM74 152l153 24v1154l-156 30v162h734v-162l-162 -30v-1155l162 -25v-150h-731v152zM680 1626q-36 0 -65.5 16t-51 40.5t-33.5 55t-12 60.5q0 43 11.5 80t35.5 64.5t61 43t88 15.5h1q48 0 83 -14t57 -37t32.5 -54t10.5 -65q0 -43 -12.5 -80.5t-38.5 -65t-67.5 -43.5
t-98.5 -16h-1zM130 1626q-36 0 -65.5 14t-50.5 37.5t-33 54.5t-12 66q0 43 11.5 80t35.5 64.5t61 43t88 15.5h1q48 0 82.5 -14t56.5 -37t32.5 -54t10.5 -65q0 -43 -12.5 -80.5t-39 -65t-67.5 -43.5t-98 -16h-1z" />
    <glyph glyph-name="afii10057" unicode="&#x408;" horiz-adv-x="831" 
d="M0 0zM195 -10q9 26 16.5 59t13.5 76t9 97.5t3 124.5v983l-164 30v162h727v-162l-151 -29v-768q0 -202 -7.5 -338.5t-25.5 -199.5q-25 -80 -71.5 -150.5t-117.5 -127.5t-167 -98t-220 -60l-89 134q32 12 67 34.5t68 55.5t61 77t48 100z" />
    <glyph glyph-name="afii10058" unicode="&#x409;" horiz-adv-x="2186" 
d="M51 206q22 -2 41 -3l38 -2t39 -1.5t45 -0.5q19 0 36.5 3.5t33 13t29 27.5t26.5 47q22 50 42.5 127.5t36.5 188.5t25 259t9 339v127l-250 29v162h1188v-3l1 3h187v-162l-188 -31v-476l1 2q12 2 43.5 5.5t70 6.5t78.5 5t68 2q135 0 233.5 -28t162.5 -81.5t95 -131.5
t31 -177q0 -111 -35.5 -199t-103.5 -148.5t-167.5 -92.5t-227.5 -32q-12 0 -43.5 1t-73.5 3t-89.5 4t-92.5 4t-82.5 3t-58.5 1h-434v152l217 24l-1 1153h-349v-128q0 -100 -3.5 -202t-11 -201t-19 -192.5t-27 -176t-36 -152t-45.5 -120.5q-42 -83 -98 -127.5t-140 -44.5
q-54 0 -97.5 3.5t-77.5 10.5zM1391 160q22 -8 50 -13t64 -5q75 0 122.5 24.5t74.5 64.5t36.5 91.5t9.5 106.5q0 75 -12.5 127.5t-38.5 86t-68 48.5t-100 15q-16 0 -36.5 -1t-40 -3t-36 -4t-25.5 -3h-1v-536z" />
    <glyph glyph-name="afii10059" unicode="&#x40a;" horiz-adv-x="2320" 
d="M60 152l149 23v1156l-147 29v162h731v-162l-171 -30v-467h478v469l-162 33v157h725v-157l-150 -32v-455h259q120 0 216.5 -28.5t164.5 -82.5t105 -133t37 -180q0 -114 -38.5 -202t-107.5 -147.5t-165 -90.5t-210 -31q-12 0 -44 1.5t-75 3t-92.5 4t-95.5 4t-84.5 3
t-59.5 1.5h-383v158l160 29v494h-478v-495l171 -28v-158h-733v152zM1513 159q23 -7 51 -12t63 -5q75 0 122.5 24.5t74 65.5t36 94t9.5 109q0 76 -12.5 130t-38.5 87.5t-67.5 49t-99.5 15.5h-138v-558z" />
    <glyph glyph-name="afii10060" unicode="&#x40b;" horiz-adv-x="1977" 
d="M313 152l251 24v1181l-253 -25l-65 -309h-216l29 499h1432l37 -499h-203l-90 306l-257 26v-572l1 2q78 44 168.5 72t193.5 28q127 0 218 -20.5t149 -72t85 -140t27 -223.5v-254l140 -23v-152h-673v152l120 23v173q0 102 -7.5 166.5t-28 100.5t-57.5 49t-96 13
q-44 0 -80 -6.5t-65 -17t-52.5 -22.5t-41.5 -23h-1v-432l169 -24v-152h-834v152z" />
    <glyph glyph-name="afii10061" unicode="&#x40c;" horiz-adv-x="1528" 
d="M62 0zM606 1695l295 319h1l242 -160q-48 -50 -105.5 -94.5t-113 -79.5t-102 -57.5t-72.5 -29.5h-1zM62 152l147 24v1154l-147 30v162h701v-162l-141 -30v-490h114l302 492l-129 28v162h592v-162l-180 -30l-354 -494q60 -10 109 -42.5t89 -78.5t72.5 -102t59 -113.5
t49 -112.5t42.5 -99.5t38.5 -74.5t37.5 -37l71 -24v-152h-424q-33 0 -59.5 30.5t-49.5 80t-44 112.5t-43 129.5t-45.5 129.5t-52.5 112.5t-64 80t-79 30.5h-52v-529l184 -26v-150h-744v152z" />
    <glyph glyph-name="uni040D" unicode="&#x40d;" horiz-adv-x="1761" 
d="M60 0zM1018 1593q-30 8 -81.5 33.5t-108.5 61.5t-111.5 79t-90.5 87l242 160h1l295 -319l-145 -102h-1v0zM60 152l149 23v1156l-147 29v162h729v-161l-171 -31v-847l92 192l429 615v40l-162 30v162h720v-162l-148 -30v-1154l151 -24v-152h-721v152l160 24v858l-85 -198
l-436 -611v-48l171 -25v-152h-731v152z" />
    <glyph glyph-name="afii10062" unicode="&#x40e;" horiz-adv-x="1362" 
d="M0 0zM741 1623q-96 0 -178.5 21.5t-143 62.5t-94.5 100t-34 134v14.5t0.5 22t1 22t0.5 14.5h266q12 0 19 -13.5t10.5 -32.5t5 -39.5t1.5 -35.5q0 -135 147 -135t147 135q0 15 1.5 35.5t5 39.5t10.5 32.5t19 13.5h266q0 -4 0.5 -14.5t1 -22t0.5 -22v-14.5
q0 -75 -32.5 -134.5t-91.5 -100t-142.5 -62t-185.5 -21.5zM216 216h153q51 0 84 4.5t53.5 15.5t30 29.5t13.5 47.5l-450 1018l-108 29v162h729v-162l-165 -30l213 -579l51 -150l48 152l186 578l-134 29v162h476v-162l-105 -30l-373 -999q-29 -65 -62.5 -128t-82 -113.5
t-118 -81.5t-168.5 -31q-34 0 -73.5 3t-77 8t-69.5 12t-51 15v201z" />
    <glyph glyph-name="afii10145" unicode="&#x40f;" horiz-adv-x="1713" 
d="M57 152l152 24v1154l-149 30v162h732v-162l-170 -30v-1173h469v1173l-171 30v162h732v-162l-148 -30v-1155l152 -23v-152h-621q-5 -7 -12 -32t-14 -61.5t-13.5 -81t-12 -91t-8.5 -91.5t-3 -81h-232q0 36 -3.5 81t-9.5 91.5t-14 91t-15.5 81t-14.5 61.5t-12 32h-614v152z
" />
    <glyph glyph-name="afii10017" unicode="&#x410;" horiz-adv-x="1465" 
d="M0 0zM-45 152l115 24l437 1349h442l438 -1350l107 -23v-152h-697v152l133 23l-58 217h-436l-56 -222l152 -18v-152h-574zM827 565l-155 588l-22 126l-24 -126l-147 -588h348z" />
    <glyph glyph-name="afii10018" unicode="&#x411;" horiz-adv-x="1456" 
d="M47 152l162 23v1155l-161 30v162h1206l21 -437h-228l-63 248l-362 22v-477q4 1 22 2t43.5 1.5t55.5 1.5t57 1.5t48 1t29 0.5q280 0 413.5 -103.5t133.5 -323.5q0 -114 -40 -202.5t-111.5 -149t-170.5 -92t-218 -31.5q-12 0 -44.5 1t-76 3t-92.5 4t-95.5 4t-85 3t-59.5 1
h-384v152zM622 160q15 -7 41 -12.5t73 -5.5q81 0 132.5 25t80.5 66t39.5 95t10.5 111q0 79 -14 134.5t-43.5 90.5t-75.5 51.5t-110 16.5q-9 0 -30 -0.5t-43 -1.5t-40 -2t-21 -1v-567z" />
    <glyph glyph-name="afii10019" unicode="&#x412;" horiz-adv-x="1501" 
d="M60 0zM60 152l149 24v1154l-148 30v162h348q49 0 93 1.5t85 4t80 4t78 1.5q185 0 302.5 -24.5t184 -69.5t91 -109.5t24.5 -144.5q0 -83 -28 -148.5t-76 -112.5t-111.5 -75t-133.5 -36q102 -1 185.5 -23t143 -65.5t92 -109t32.5 -152.5q0 -102 -31.5 -189t-109.5 -150.5
t-209.5 -99.5t-330.5 -36q-63 0 -108.5 2t-84.5 4t-76 4t-84 2h-357v152zM619 871q22 -3 60.5 -4t73.5 -1q52 0 87 20.5t56.5 58t31 90t9.5 117.5q0 122 -49 177.5t-152 55.5q-3 0 -18.5 -0.5t-35 -2t-38 -3t-25.5 -3.5v-505zM618 161q9 -5 24.5 -8t34.5 -5.5t39.5 -3.5
t39.5 -1q65 0 110 21t73.5 60.5t41 95.5t12.5 126t-14.5 118t-43 77.5t-71 42t-99.5 12.5q-41 0 -83 -1.5t-64 -3.5v-530z" />
    <glyph glyph-name="afii10020" unicode="&#x413;" horiz-adv-x="1269" 
d="M53 152l221 24v1154l-218 32v160h1182l36 -632h-232l-82 439l-273 26v-1179l306 -25v-151h-940v152z" />
    <glyph glyph-name="afii10021" unicode="&#x414;" horiz-adv-x="1625" 
d="M53 176h141q21 31 46 80.5t51 118t50.5 157.5t44 200t31 244.5t11.5 292.5v61l-215 30v162h1342v-162l-199 -30v-1154h202q0 -40 -1.5 -98t-4.5 -122.5t-6.5 -129.5t-7 -119.5t-7 -92t-5.5 -46.5h-213q0 18 -5.5 53.5t-13.5 80t-18 93t-20 90.5t-20 73t-18 42h-848
q-11 -12 -22.5 -42t-23.5 -70t-23 -86t-20.5 -91t-16.5 -84.5t-11 -65.5h-221q1 22 1.5 62.5t1.5 92t2 111t2.5 120t4 119t6.5 107.5l2 -2zM944 176v1177h-331v-96q0 -218 -16.5 -393t-42 -309t-55.5 -228t-56 -151h501z" />
    <glyph glyph-name="afii10022" unicode="&#x415;" horiz-adv-x="1351" 
d="M54 0zM60 152l149 23v1154l-155 31v162h1156l28 -384h-185l-77 210l-351 25v-510l205 5l39 166h154v-534h-154l-37 179l-207 5v-528l384 31l132 267l201 -55l-44 -399h-1238v152z" />
    <glyph glyph-name="afii10024" unicode="&#x416;" horiz-adv-x="2211" 
d="M-7 152l85 24q25 9 48.5 55.5t51 113t61.5 144t79.5 147t105 123t138.5 72.5l-353 499l-174 30v162h586v-162l-129 -28l295 -492h120v491l-162 29v162h724v-162l-163 -29v-491h119l295 492l-128 28v162h592v-162l-181 -30l-352 -499q59 -14 107.5 -48.5t87.5 -81
t70.5 -101.5t57 -111.5t47 -109.5t40.5 -96t37 -71.5t37 -35.5l85 -24v-152h-425q-33 0 -60 30.5t-51.5 80t-46.5 112.5t-45 129.5t-48 129.5t-54.5 112.5t-65.5 80t-80 30.5h-38v-529l183 -26v-150h-757v152l175 24v529h-38q-44 0 -80 -30.5t-65.5 -80t-54.5 -112.5
t-48 -129.5t-45.5 -129.5t-46.5 -112.5t-51 -80t-60 -30.5h-425v152z" />
    <glyph glyph-name="afii10025" unicode="&#x417;" horiz-adv-x="1310" 
d="M135 489h204l73 -301q20 -21 62 -39.5t113 -18.5q52 0 89 23t61 64t35 99t11 129q0 46 -10 93.5t-35.5 85.5t-70 62t-112.5 24h-124v172h106q50 0 94.5 15t77.5 49.5t52 90.5t19 138q0 58 -16.5 99t-45.5 67t-68 38t-85 12q-37 0 -64.5 -5.5t-46.5 -14t-30.5 -18.5
t-15.5 -20l-48 -212h-223l-36 357q21 1 56.5 6t79.5 11.5t93.5 14t99 14t96 10.5t85.5 4q144 0 256.5 -21.5t189.5 -65.5t117 -110t40 -154t-31 -154.5t-82 -113t-116.5 -75.5t-134.5 -42q97 -3 172 -28.5t126.5 -70t78 -105.5t26.5 -136q0 -107 -32 -194.5t-110.5 -149.5
t-210 -96t-330.5 -34q-96 0 -169 12.5t-130.5 28t-102.5 30t-84 17.5z" />
    <glyph glyph-name="afii10026" unicode="&#x418;" horiz-adv-x="1761" 
d="M60 152l149 23v1156l-147 29v162h729v-161l-171 -31v-847l92 192l429 615v40l-162 30v162h720v-162l-148 -30v-1154l151 -24v-152h-721v152l160 24v858l-85 -198l-436 -611v-48l171 -25v-152h-731v152z" />
    <glyph glyph-name="afii10027" unicode="&#x419;" horiz-adv-x="1761" 
d="M60 0zM875 1623q-96 0 -178.5 21.5t-143 62.5t-94.5 100t-34 134v14.5t0.5 22t1 22t0.5 14.5h266q12 0 19 -13.5t10.5 -32.5t5 -39.5t1.5 -35.5q0 -135 147 -135t147 135q0 15 1.5 35.5t5 39.5t10.5 32.5t19 13.5h266q0 -4 0.5 -14.5t1 -22t0.5 -22v-14.5
q0 -75 -32.5 -134.5t-91.5 -100t-142.5 -62t-185.5 -21.5zM60 152l149 23v1156l-147 29v162h729v-161l-171 -31v-847l92 192l429 615v40l-162 30v162h720v-162l-148 -30v-1154l151 -24v-152h-721v152l160 24v858l-85 -198l-436 -611v-48l171 -25v-152h-731v152z" />
    <glyph glyph-name="afii10028" unicode="&#x41a;" horiz-adv-x="1528" 
d="M62 152l147 24v1154l-147 30v162h701v-162l-141 -30v-490h114l302 492l-129 28v162h592v-162l-180 -30l-354 -494q60 -10 109 -42.5t89 -78.5t72.5 -102t59 -113.5t49 -112.5t42.5 -99.5t38.5 -74.5t37.5 -37l71 -24v-152h-424q-33 0 -59.5 30.5t-49.5 80t-44 112.5
t-43 129.5t-45.5 129.5t-52.5 112.5t-64 80t-79 30.5h-52v-529l184 -26v-150h-744v152z" />
    <glyph glyph-name="afii10029" unicode="&#x41b;" horiz-adv-x="1600" 
d="M51 209q22 -2 41 -3l38 -2t39 -1.5t45 -0.5q19 0 36.5 3.5t33 13t29 27.5t26.5 47q22 50 42.5 125t36.5 189t25 274.5t9 381.5v66l-263 31v162h1388v-162l-187 -31v-1154l195 -23v-152h-820v152l217 24l-1 1153h-349v-128q0 -100 -3 -202.5t-9 -202.5t-16.5 -194
t-25 -177.5t-34.5 -153.5t-45 -121q-83 -165 -247 -165q-54 0 -97.5 3.5t-77.5 10.5z" />
    <glyph glyph-name="afii10030" unicode="&#x41c;" horiz-adv-x="2168" 
d="M0 0zM-3 152l168 23l134 1155l-195 30v162h751l211 -822l35 -209l31 209l168 822h764v-162l-219 -30l175 -1154l161 -24v-152h-757v152l167 24l-88 864l-39 345l-57 -306l-224 -1026h-339l-289 990l-74 344l-20 -346l-56 -865l211 -24v-152h-619v152z" />
    <glyph glyph-name="afii10031" unicode="&#x41d;" horiz-adv-x="1729" 
d="M68 0zM68 152l141 23v1156l-139 29v162h716v-162l-163 -29v-461h483v460l-150 30v162h710v-162l-146 -29v-1156l146 -23v-152h-709v152l149 24v498h-483v-499l163 -23v-152h-718v152z" />
    <glyph glyph-name="afii10032" unicode="&#x41e;" horiz-adv-x="1506" 
d="M49 0zM746 -23q-190 -1 -322.5 55.5t-216 160t-121 248t-37.5 320.5q0 178 49 323t141 247t224 157t299 55q190 -1 322.5 -54t216 -150.5t121 -236.5t37.5 -312q0 -179 -49 -328t-141.5 -256.5t-224.5 -167.5t-298 -61zM752 128q121 0 186 169t65 492q0 175 -17 291.5
t-49.5 185.5t-78.5 97.5t-103 28.5q-122 0 -186.5 -153.5t-64.5 -475.5q0 -176 17 -297t49.5 -196t78.5 -108.5t103 -33.5z" />
    <glyph glyph-name="afii10033" unicode="&#x41f;" horiz-adv-x="1689" 
d="M60 152l149 23v1155l-151 30v162h1574v-161l-152 -30v-1155l158 -24v-152h-708v152l137 23v1179h-445v-1179l148 -23v-152h-710v152z" />
    <glyph glyph-name="afii10034" unicode="&#x420;" horiz-adv-x="1389" 
d="M60 0zM60 152l149 23v1155l-145 30v162h361q60 0 143 5.5t195 4.5q175 -1 291 -31.5t185 -89.5t97 -145t28 -198q0 -132 -38.5 -237t-116 -177.5t-195 -111t-274.5 -38.5q-38 0 -71 2t-45 4v-335l265 -23v-152h-829v152zM623 666q14 -5 38 -8t67 -3q48 0 87.5 19.5t68 66
t44.5 123.5t16 192q0 169 -57 248t-163 79q-25 0 -40.5 -1t-26.5 -3t-18.5 -4t-15.5 -4v-705z" />
    <glyph glyph-name="afii10035" unicode="&#x421;" horiz-adv-x="1364" 
d="M46 0zM46 740q0 191 57.5 339.5t160.5 250.5t244 155t308 53q78 0 152.5 -7t140 -15.5t117.5 -15.5t84 -7l-27 -502h-259l-78 343q-7 7 -18 14.5t-28 13.5t-42 10t-59 4q-66 0 -119 -36t-90 -110.5t-57 -188.5t-20 -269q0 -143 18.5 -259.5t55 -199t91 -127.5t127.5 -45
q39 0 66.5 5t47 13t32 18.5t23.5 22.5l98 230l234 -20l-33 -354q-37 -4 -70 -11.5t-66 -16t-69 -18t-78.5 -17t-94.5 -12t-117 -4.5q-187 0 -324.5 54.5t-228 154t-135 240.5t-44.5 314z" />
    <glyph glyph-name="afii10036" unicode="&#x422;" horiz-adv-x="1537" 
d="M41 0zM307 152l257 24v1174l-207 -11l-95 -471h-221l32 654h1386l27 -654h-208l-101 471l-197 11v-1174l283 -24v-152h-956v152z" />
    <glyph glyph-name="afii10037" unicode="&#x423;" horiz-adv-x="1362" 
d="M216 216h153q51 0 84 4.5t53.5 15.5t30 29.5t13.5 47.5l-450 1018l-108 29v162h729v-162l-165 -30l213 -579l51 -150l48 152l186 578l-134 29v162h476v-162l-105 -30l-373 -999q-29 -65 -62.5 -128t-82 -113.5t-118 -81.5t-168.5 -31q-34 0 -73.5 3t-77 8t-69.5 12
t-51 15v201z" />
    <glyph glyph-name="afii10038" unicode="&#x424;" horiz-adv-x="1817" 
d="M545 115l163 22v133q-151 -2 -262.5 15.5t-190.5 50.5t-129.5 79.5t-79 102.5t-39 120.5t-10.5 132.5q0 110 37 200t121 153.5t219.5 99.5t333.5 38v118l-166 33v154h725v-154l-159 -32v-117q154 1 266.5 -16.5t191.5 -50t128.5 -79t77.5 -103t38 -121.5t10 -135
q0 -110 -42.5 -200.5t-130 -155.5t-221.5 -100.5t-318 -33.5v-135l163 -19v-159h-726v159zM708 1139q-93 -6 -149 -33.5t-86 -74t-39.5 -110t-9.5 -141.5q0 -64 10 -127t40.5 -116t86.5 -91t147 -51v744zM1108 389q94 7 150.5 35.5t86.5 76.5t39.5 112.5t9.5 143.5
q0 65 -10 126.5t-40.5 112.5t-87 87t-148.5 49v-743z" />
    <glyph glyph-name="afii10039" unicode="&#x425;" horiz-adv-x="1491" 
d="M10 0zM10 152l167 22l369 545l-405 610l-127 31v162h751v-162l-142 -32l224 -387l244 389l-167 30v162h556v-162l-167 -30l-373 -505l433 -649l125 -24v-152h-750v152l145 25l-250 422l-239 -425l182 -22v-152h-576v152z" />
    <glyph glyph-name="afii10040" unicode="&#x426;" horiz-adv-x="1725" 
d="M53 152l156 24v1155l-149 29v162h732v-162l-170 -30v-1172h443v1173l-145 29v162h708v-162l-150 -29v-1155h226q0 -40 -3 -98t-8 -122.5t-11 -129.5t-12 -119.5t-11 -92t-7 -46.5h-213q0 18 -3.5 52t-9.5 77t-13.5 89.5t-15.5 89t-16.5 75.5t-16.5 49h-1311v152z" />
    <glyph glyph-name="afii10041" unicode="&#x427;" horiz-adv-x="1569" 
d="M726 152l221 24v442q-36 -23 -78.5 -39t-88 -26t-92 -15t-88.5 -5q-113 0 -199.5 20.5t-145.5 72t-89 140t-30 225.5v338l-111 31v162h651v-162l-125 -29v-259q0 -108 9.5 -173.5t32 -100.5t60.5 -46t95 -11q62 0 116 17t83 44v530l-150 28v162h714v-162l-152 -30v-1154
l152 -26v-150h-785v152z" />
    <glyph glyph-name="afii10042" unicode="&#x428;" horiz-adv-x="2446" 
d="M53 152l156 25v1154l-149 29v162h704v-162l-142 -29v-1156h397v1157l-143 28v162h700v-162l-145 -29v-1156h394v1155l-141 30v162h702v-162l-150 -29v-1156l157 -23v-152h-2340v152z" />
    <glyph glyph-name="afii10043" unicode="&#x429;" horiz-adv-x="2505" 
d="M53 152l156 25v1154l-149 29v162h704v-162l-142 -29v-1156h397v1157l-143 28v162h700v-162l-145 -29v-1156h394v1155l-141 30v162h702v-162l-150 -29v-1155h241q0 -40 -3 -98t-8 -122.5t-11 -129.5t-12 -119.5t-11 -92t-7 -46.5h-213q0 18 -3.5 52t-9.5 77t-13.5 89.5
t-15.5 89t-16.5 75.5t-16.5 49h-2084v152z" />
    <glyph glyph-name="afii10044" unicode="&#x42a;" horiz-adv-x="1794" 
d="M258 152l307 24v1182l-212 -26l-82 -455h-232l36 645h1143v-154l-240 -39v-436h248q143 0 245 -28.5t167.5 -83.5t96 -134t30.5 -181q0 -114 -35.5 -203.5t-104 -151.5t-168.5 -94.5t-229 -32.5q-12 0 -43.5 1t-73.5 3t-90 4t-93 4t-82.5 3t-58.5 1h-529v152zM978 158
q23 -8 52.5 -12t64.5 -4q75 0 122.5 25t74.5 66t37 95t10 111q0 77 -12.5 131.5t-39.5 89t-68.5 50t-99.5 15.5h-141v-567z" />
    <glyph glyph-name="afii10045" unicode="&#x42b;" horiz-adv-x="2196" 
d="M60 0zM1418 152l153 24v1154l-156 30v162h734v-162l-162 -30v-1155l162 -25v-150h-731v152zM60 152l149 23v1158l-147 32v157h783v-157l-223 -33v-425q4 1 22.5 1.5t45.5 1.5t58 1.5t59 1t49.5 1t29.5 0.5q135 0 233.5 -31t162.5 -88t95 -138.5t31 -183.5
q0 -114 -43.5 -204.5t-118.5 -154t-176 -97t-215 -33.5q-59 0 -113 2.5t-111 5.5t-119 5.5t-135 2.5h-317v152zM622 158q23 -8 52 -12t64 -4q75 0 122.5 27t74.5 71.5t36.5 100t9.5 112.5q0 155 -51 227.5t-168 72.5q-6 0 -27.5 -0.5t-45.5 -1.5t-44 -2t-23 -2v-589z" />
    <glyph glyph-name="afii10046" unicode="&#x42c;" horiz-adv-x="1418" 
d="M60 152l149 23v1158l-147 32v157h783v-157l-223 -33v-425q4 1 22.5 1.5t45.5 1.5t58 1.5t59 1t49.5 1t29.5 0.5q135 0 233.5 -31t162.5 -88t95 -138.5t31 -183.5q0 -114 -43.5 -204.5t-118.5 -154t-176 -97t-215 -33.5q-59 0 -113 2.5t-111 5.5t-119 5.5t-135 2.5h-317
v152zM622 158q23 -8 52 -12t64 -4q75 0 122.5 27t74.5 71.5t36.5 100t9.5 112.5q0 155 -51 227.5t-168 72.5q-6 0 -27.5 -0.5t-45.5 -1.5t-44 -2t-23 -2v-589z" />
    <glyph glyph-name="afii10047" unicode="&#x42d;" horiz-adv-x="1411" 
d="M95 461l270 8l71 -275q7 -11 15 -22.5t21.5 -21t35.5 -15.5t57 -6q77 0 139.5 33t107 101t70 172.5t28.5 247.5l-545 -15v223l539 -14q-11 107 -37 199.5t-66 160t-94.5 106t-122.5 38.5q-44 0 -75 -6.5t-51.5 -16.5t-32.5 -21.5t-19 -21.5l-79 -236l-235 -4l-16 385
q45 3 95 15.5t114 26.5t145.5 25t191.5 11q183 0 321.5 -56.5t232.5 -158.5t141.5 -243.5t47.5 -311.5q0 -189 -56 -336t-162 -248t-258.5 -154t-344.5 -53q-84 0 -149.5 10t-119.5 22t-99.5 23t-89.5 13z" />
    <glyph glyph-name="afii10048" unicode="&#x42e;" horiz-adv-x="2318" 
d="M59 152l150 24v1154l-147 30v162h722v-162l-160 -30v-459h255q15 158 70 283t145 211.5t212 132t271 45.5q187 -1 317.5 -52.5t212 -148.5t118 -236.5t35.5 -315.5q-1 -184 -49 -333.5t-137.5 -255.5t-218.5 -164t-292 -58q-177 0 -304 48.5t-209.5 139t-124.5 219
t-49 287.5h-252v-497l164 -24v-152h-729v152zM1330 761q0 -173 16 -293.5t47 -195.5t76 -109t103 -34q120 0 176 168.5t56 491.5q0 173 -15.5 289t-45.5 185.5t-74 99t-101 29.5q-119 0 -178.5 -153t-59.5 -478z" />
    <glyph glyph-name="afii10049" unicode="&#x42f;" horiz-adv-x="1526" 
d="M5 152l66 23q26 8 46 44.5t40 89t43.5 114t56.5 118.5t79 103t112 68q-78 19 -135 61t-94 98t-55 121t-18 128q0 101 29.5 178.5t98.5 130t181.5 79t279.5 26.5q65 0 113.5 -2t91.5 -4t84.5 -4t93.5 -2h349v-162l-150 -30v-1155l157 -23v-152h-742l-1 152l172 23v461
q-9 -1 -28.5 -1t-44.5 1t-52.5 1.5t-52.5 1.5q-36 -19 -64.5 -73.5t-52.5 -125.5t-44 -148.5t-38.5 -142.5t-37 -107t-38.5 -42h-445v152zM801 782q9 0 24 0.5l30 1t28 2t20 4.5v586q-13 3 -35.5 6t-71.5 3q-48 0 -87.5 -13t-67.5 -44t-43.5 -83t-15.5 -131q0 -172 55 -252
t164 -80z" />
    <glyph glyph-name="afii10065" unicode="&#x430;" horiz-adv-x="1181" 
d="M40 0zM40 330q0 88 40 158.5t121.5 119.5t205.5 75.5t291 26.5v32q0 45 -6.5 77.5t-26 54.5t-56 32.5t-96.5 10.5q-61 0 -113.5 -8t-96 -20t-78 -25.5t-59.5 -23.5h-1l-79 168q21 16 69 43t117 53t156 44.5t187 18.5q130 0 216 -24t138 -76t73.5 -133.5t21.5 -195.5v-586
h100v-148q-19 -4 -55 -9t-79 -9.5t-88 -8t-81 -3.5q-45 0 -73.5 6.5t-44 20.5t-21 37.5t-5.5 57.5v38q-20 -28 -50.5 -56t-71.5 -50.5t-92.5 -36.5t-113.5 -14q-71 0 -134.5 24t-111 69t-75.5 110.5t-28 149.5zM453 374q0 -41 8.5 -74.5t25 -58.5t40.5 -38.5t55 -13.5
q29 0 62 16t54 40v315q-70 0 -117 -16t-75.5 -42.5t-40.5 -59.5t-12 -68z" />
    <glyph glyph-name="afii10066" unicode="&#x431;" horiz-adv-x="1227" 
d="M624 -16q-148 0 -257.5 51.5t-181.5 150.5t-107 243t-35 329q0 146 22.5 261t64.5 204.5t101.5 156t134.5 116.5q48 32 107.5 59t121.5 48t120 34.5t103 17.5q40 3 63.5 16t34.5 48l26 77h206l-22 -286q-5 -55 -37 -86t-98 -31q-78 0 -155.5 -2.5t-146.5 -11
t-125.5 -24.5t-93.5 -43q-16 -12 -31 -33.5t-28 -58t-23 -90t-16 -130.5q16 21 46.5 49t75 53.5t102 43t128.5 17.5q129 0 216 -34t140 -104t75.5 -177.5t22.5 -255.5q0 -132 -35 -243.5t-105 -192.5t-173.5 -126.5t-240.5 -45.5zM617 126q52 0 83.5 35t48.5 98.5t22 152
t5 195.5q0 120 -9.5 192.5t-29 111.5t-49.5 51.5t-72 12.5q-39 0 -66.5 -10t-46.5 -24.5t-31 -32t-20 -32.5q0 -210 4.5 -353.5t21.5 -231.5t50 -126.5t89 -38.5z" />
    <glyph glyph-name="afii10067" unicode="&#x432;" horiz-adv-x="1427" 
d="M81 152l127 23v793l-131 23v147h288q26 0 75 2.5t107 6t119 6t111 2.5q162 0 262.5 -21t156 -56.5t74.5 -81.5t19 -96q0 -47 -11 -89t-35.5 -77t-65 -62.5t-99.5 -44.5q82 -7 141 -34.5t97 -66.5t56 -84t18 -86q0 -81 -26.5 -148.5t-97.5 -117t-195.5 -77t-319.5 -27.5
q-51 0 -103 2t-102.5 5t-98 5t-88.5 2h-278v152zM706 677q58 0 94.5 17t57.5 44t28.5 59.5t7.5 64.5q0 34 -7.5 61t-27 45.5t-52 28t-83.5 9.5q-32 0 -64 -1t-58 -3v-325h104zM602 151q7 -3 20.5 -5.5t30.5 -3.5t35 -1.5t33 -0.5q63 0 104 15.5t65 42.5t33.5 62.5t9.5 76.5
q0 46 -11.5 81.5t-37.5 59.5t-68.5 36t-104.5 12h-109v-375z" />
    <glyph glyph-name="afii10068" unicode="&#x433;" horiz-adv-x="1103" 
d="M59 152l146 21v794l-142 24v146h1010l10 -484h-220l-66 315l-186 23v-819l253 -20v-152h-805v152z" />
    <glyph glyph-name="afii10069" unicode="&#x434;" horiz-adv-x="1422" 
d="M159 163q18 9 39 27t41.5 53.5t39.5 92.5t34 143.5t23.5 206.5t8.5 282l-200 23v147h1253v-147l-174 -23v-813h180q0 -15 -2 -61.5t-4.5 -107.5t-6.5 -130t-7.5 -129t-7.5 -104t-7 -55h-198q-3 16 -10 49.5t-17 76t-21.5 90t-23.5 90t-22.5 76t-18.5 49.5v1h-701
q-8 -18 -19 -53.5t-22 -79t-22.5 -90.5t-21 -89t-16.5 -74t-9 -46h-222q0 23 0.5 63t1 90.5t2 109t3 117.5t3 116.5t3.5 106.5zM821 155v816h-277v-89q0 -129 -8.5 -242.5t-23.5 -207.5t-35 -164.5t-44 -112.5h388z" />
    <glyph glyph-name="afii10070" unicode="&#x435;" horiz-adv-x="1144" 
d="M53 0zM53 567q0 146 40 258t114.5 188t180.5 115t238 39q115 0 201.5 -29t144.5 -83t87.5 -132t31.5 -176q0 -73 -5.5 -125.5t-13.5 -94.5h-612q15 -162 81.5 -237t187.5 -75q39 0 79.5 7.5t78.5 19.5t70.5 25.5t55.5 25.5l66 -141q-21 -24 -66 -54t-106 -57t-134 -45.5
t-151 -18.5q-156 0 -264.5 43.5t-176 122t-98 187t-30.5 237.5zM715 676v18.5t0.5 23.5t0.5 23.5v18.5q0 59 -5 105.5t-18 79t-35.5 49.5t-56.5 17q-32 0 -58 -12t-45 -48t-30 -101.5t-12 -173.5h259z" />
    <glyph glyph-name="afii10072" unicode="&#x436;" horiz-adv-x="2132" 
d="M-13 156l96 20q22 9 42 41.5t41.5 77.5t46.5 97.5t57.5 102t74.5 91.5t98 65l-223 316l-171 24v147h600v-147l-143 -23l163 -293h200v293l-115 23v147h624l2 -147l-118 -24v-292h199l163 293l-142 23v147h600v-147l-171 -24l-223 -316q56 -23 98 -65t74.5 -91.5t57 -102
t46 -98t41 -78t42.5 -41.5l98 -19v-156h-413q-35 0 -61.5 22.5t-47 59.5t-37.5 84t-33 96t-33.5 96t-39.5 84t-50 60t-66 23h-102v-349l170 -24v-152h-710v152l147 24v350l-102 -1q-38 0 -65.5 -23t-49.5 -60t-39.5 -84t-33.5 -96t-33 -96t-37.5 -84t-47 -59.5t-61.5 -22.5
h-413v156z" />
    <glyph glyph-name="afii10073" unicode="&#x437;" horiz-adv-x="1144" 
d="M83 363h232l43 -177q16 -28 54 -42t94 -14q50 0 81.5 18.5t49.5 47t24.5 64t6.5 69.5t-5.5 65.5t-20.5 56t-40.5 39.5t-65.5 15q-12 0 -29 -2.5t-35 -6t-35 -8t-29 -7.5l4 187l88 11q27 6 52.5 22t45 41t31.5 60.5t12 80.5q0 73 -35.5 103.5t-106.5 30.5
q-30 0 -54.5 -8.5t-42.5 -22t-29.5 -31t-16.5 -35.5l-23 -144h-255v330q52 0 100.5 8.5t103 19t118 19t145.5 8.5q141 0 238.5 -19t158 -54.5t88 -87t27.5 -116.5q0 -87 -57 -159t-166 -114q74 -9 127 -32.5t87.5 -58t50.5 -79t17 -95.5q1 -83 -30.5 -150t-99 -114
t-173 -72.5t-252.5 -25.5q-104 0 -188 10.5t-147 24t-105 25.5t-62 16z" />
    <glyph glyph-name="afii10074" unicode="&#x438;" horiz-adv-x="1623" 
d="M82 152l126 20v796l-124 23v147h663v-147l-138 -23v-522l100 134l305 334v55l-117 22v147h645v-147l-126 -24v-795l133 -21v-151h-673v151l138 22v533l-94 -144l-311 -339v-57l132 -14v-152h-659v152z" />
    <glyph glyph-name="afii10075" unicode="&#x439;" horiz-adv-x="1623" 
d="M82 0zM82 152l126 20v796l-124 23v147h663v-147l-138 -23v-522l100 134l305 334v55l-117 22v147h645v-147l-126 -24v-795l133 -21v-151h-673v151l138 22v533l-94 -144l-311 -339v-57l132 -14v-152h-659v152zM802 1304q-101 0 -184 26.5t-142 74.5t-91.5 115t-32.5 148
v12.5t0.5 17.5t1 17.5t0.5 12.5h255q12 0 19 -11t10.5 -27.5t5 -34.5t1.5 -33q0 -37 10 -70t29.5 -57.5t49 -39t69.5 -14.5t69.5 14.5t49 39t29 57.5t9.5 70q0 15 1.5 33t5 34.5t10.5 27.5t19 11h257q0 -4 0.5 -12.5t1 -17.5t0.5 -17.5v-12.5q0 -82 -31 -149t-89.5 -115
t-142.5 -74t-190 -26z" />
    <glyph glyph-name="afii10076" unicode="&#x43a;" horiz-adv-x="1472" 
d="M81 152l126 21v795l-124 23v147h632v-147l-105 -23v-293h189l164 294l-144 22v147h600v-147l-170 -24l-221 -314q57 -22 99.5 -64t74.5 -91.5t57 -103t46 -99t41 -78.5t43 -42l97 -19v-156h-410q-35 0 -61.5 22.5t-47 59.5t-37.5 84t-33 96t-33.5 96t-39.5 84t-50 60
t-66 23h-98v-353l147 -20v-152h-676v152z" />
    <glyph glyph-name="afii10077" unicode="&#x43b;" horiz-adv-x="1328" 
d="M-3 204q22 -5 51 -7.5t71 -2.5q25 0 47 28t40.5 78t33 121t24.5 157t15.5 184.5t5.5 205.5l-183 23v147h1195v-149l-178 -25v-792l163 -20v-152h-721v152l153 21v795h-248v-95q0 -135 -9.5 -253t-25.5 -213t-36.5 -166t-42.5 -113q-12 -30 -29.5 -56.5t-43.5 -45.5
t-60.5 -30t-79.5 -11q-36 0 -66 4t-53 10z" />
    <glyph glyph-name="afii10078" unicode="&#x43c;" horiz-adv-x="1984" 
d="M-20 152l151 20l121 796l-175 23v147h704l209 -626l26 -110l20 110l157 626h719v-147l-192 -23l149 -795l141 -21v-152h-699v152l148 22l-74 593l-34 237l-60 -234l-191 -689h-329l-256 697l-66 234l-24 -231l-59 -608l173 -21v-152h-559v152z" />
    <glyph glyph-name="afii10079" unicode="&#x43d;" horiz-adv-x="1590" 
d="M81 152l127 20v795l-131 24v147h653v-147l-120 -23v-297h369v297l-120 23v147h655v-147l-131 -24v-794l126 -21v-152h-651v152l121 20v338h-369v-337l120 -21v-152h-649v152z" />
    <glyph glyph-name="afii10080" unicode="&#x43e;" horiz-adv-x="1269" 
d="M53 0zM53 559q0 158 47.5 273t129.5 189.5t190 110.5t230 36q124 0 228 -36t179 -109t117 -182t42 -255q0 -165 -47.5 -280.5t-129 -188.5t-190 -106.5t-230.5 -33.5q-123 0 -227 36.5t-179 109t-117.5 181.5t-42.5 255zM642 134q38 0 65.5 24t45.5 75t27 131.5t9 193.5
q0 121 -8 207t-27 140.5t-49 80t-73 25.5q-38 0 -66.5 -24t-48 -75t-29.5 -131.5t-10 -193.5q0 -121 9.5 -207t29.5 -140.5t51 -80t74 -25.5z" />
    <glyph glyph-name="afii10081" unicode="&#x43f;" horiz-adv-x="1557" 
d="M82 152l126 24v792l-132 23v147h1411v-147l-137 -23v-793l126 -23v-152h-654v152l124 23v812h-334v-812l113 -23v-152h-643v152z" />
    <glyph glyph-name="afii10082" unicode="&#x440;" horiz-adv-x="1325" 
d="M54 0zM166 -327v1222l-109 39v184l402 49h5l61 -47v-104q19 28 49 55t69 48.5t85 35t97 13.5q94 0 174.5 -31t140 -98.5t93.5 -175t34 -259.5q0 -121 -38 -234t-116 -200.5t-195.5 -140t-276.5 -52.5q-28 0 -54.5 5.5t-39.5 10.5l6 -163v-157l159 -27v-142h-658v142z
M553 160q13 -14 38 -24t58 -10q40 0 76.5 21t64 72t44.5 136t17 213q1 103 -11 176.5t-34 120.5t-53.5 69t-70.5 22q-41 0 -76 -17t-53 -39v-740z" />
    </font>
</defs>
</svg>
